<svg width="96" height="96" viewBox="0 0 96 96" fill="none" xmlns="http://www.w3.org/2000/svg">
<path d="M24.5628 19.9222C24.4818 20.2575 24.5031 20.6861 24.627 21.208C24.3621 21.0489 24.1157 20.9774 23.8877 20.9936C23.6633 21.0073 23.4237 21.1063 23.169 21.2908C22.9178 21.4727 22.7515 21.625 22.6703 21.7478L24.8628 24.7626L25.6655 24.7236L24.0431 25.8988L24.2395 25.2459L22.0547 22.2416L21.3756 22.2308L24.5628 19.9222Z" fill="white"/>
<path d="M30.6466 19.1198C30.9731 19.7314 31.0872 20.2974 30.989 20.8178C30.8882 21.3884 30.5391 21.8325 29.9418 22.1502C29.3292 22.4759 28.7585 22.5186 28.2295 22.2781C27.7532 22.0632 27.3467 21.6405 27.01 21.0099C26.6754 20.3832 26.5515 19.8126 26.6383 19.2982C26.7312 18.7221 27.0821 18.2722 27.6908 17.9484C28.3034 17.6226 28.8791 17.5847 29.418 17.8346C29.8983 18.0571 30.3079 18.4855 30.6466 19.1198ZM29.916 19.5083C29.6321 18.9766 29.3551 18.5996 29.0851 18.3774C28.6808 18.0413 28.2543 17.9926 27.8053 18.2314C27.3639 18.4661 27.1759 18.8368 27.2413 19.3434C27.2823 19.6581 27.4468 20.0851 27.7348 20.6245C28.0147 21.1486 28.2887 21.5199 28.5567 21.7382C28.9569 22.0668 29.3815 22.1117 29.8304 21.8729C30.5304 21.5006 30.559 20.7124 29.916 19.5083Z" fill="white"/>
<path d="M36.6329 19.1855L34.8562 19.8239L35.2393 19.2471L33.966 15.7181C33.743 15.7479 33.5525 15.7912 33.3943 15.8481C33.0941 15.9559 32.8591 16.0793 32.6892 16.2181L33.728 19.0972C33.8493 19.4333 33.9024 19.6886 33.8875 19.8633C33.8665 20.1224 33.7099 20.3045 33.4178 20.4094C32.8905 20.5989 32.5084 20.4732 32.2714 20.0323C32.4268 19.917 32.6058 19.7337 32.8085 19.4825C32.8182 19.6619 32.8319 19.776 32.8494 19.8246C32.959 20.1283 33.1193 20.2422 33.3301 20.1665C33.5938 20.0717 33.622 19.7368 33.4145 19.1618L32.4196 16.4042L31.602 16.1765L35.0945 14.9214L34.7153 15.49L35.9755 18.9826L36.6329 19.1855Z" fill="white"/>
<path d="M41.3313 15.8104C41.4719 16.489 41.4216 17.0641 41.1803 17.5358C40.9225 18.0549 40.4621 18.3828 39.7992 18.5196C39.1195 18.6599 38.5597 18.5403 38.1201 18.1608C37.7238 17.8207 37.4531 17.3009 37.3082 16.6012C37.1641 15.9058 37.2063 15.3236 37.4349 14.8545C37.6868 14.3278 38.1505 13.9949 38.8261 13.8554C39.5059 13.7151 40.069 13.8406 40.5154 14.2319C40.9135 14.5804 41.1854 15.1066 41.3313 15.8104ZM40.5206 15.9778C40.3983 15.3877 40.2391 14.9482 40.0427 14.6591C39.7498 14.223 39.3542 14.0562 38.8559 14.1591C38.3662 14.2602 38.0811 14.5629 38.0007 15.0674C37.9512 15.3808 37.9885 15.8367 38.1125 16.4352C38.233 17.0168 38.3911 17.4501 38.5866 17.735C38.8777 18.1626 39.2724 18.3251 39.7706 18.2222C40.5475 18.0619 40.7975 17.3138 40.5206 15.9778Z" fill="white"/>
<path d="M47.189 16.7489C46.9202 17.0886 46.6566 17.3352 46.3982 17.4888C46.1063 17.6618 45.7581 17.7605 45.3535 17.785C44.5832 17.8317 43.9821 17.6439 43.5504 17.2217C43.1371 16.8199 42.9069 16.2302 42.8596 15.4527C42.8172 14.7569 42.977 14.1888 43.339 13.7487C43.7053 13.3082 44.2327 13.0672 44.9214 13.0254C45.1322 13.0126 45.3871 13.049 45.6861 13.1343C45.989 13.2151 46.19 13.2525 46.289 13.2465C46.4741 13.2353 46.6554 13.1639 46.8332 13.0325C46.5949 13.5169 46.4442 13.9873 46.3813 14.4438C46.1519 13.6558 45.6521 13.2851 44.8817 13.3318C44.3997 13.361 44.0626 13.6078 43.8706 14.0722C43.7318 14.4169 43.6788 14.8598 43.7117 15.4011C43.7483 16.0025 43.879 16.4818 44.1038 16.8389C44.3867 17.3003 44.8036 17.5143 45.3545 17.481C45.7806 17.4551 46.0744 17.3145 46.2359 17.0589C46.3705 16.8567 46.4368 16.5272 46.435 16.0703C46.5593 16.1964 46.6818 16.3291 46.8026 16.4684C46.9234 16.6077 47.0522 16.7011 47.189 16.7489Z" fill="white"/>
<path d="M54.5427 18.2103L52.665 17.9542L53.2721 17.6202L53.5121 15.8678C53.2555 15.898 53.0034 15.8962 52.7555 15.8623C52.3924 15.8128 52.0735 15.7259 51.799 15.6016L51.5547 17.3859L52.0433 17.8695L50.1721 17.6143L50.7728 17.2793L51.0206 15.4694C50.7173 15.428 50.4643 15.4956 50.2618 15.6721C50.3309 15.5165 50.439 15.3792 50.5858 15.2602C50.7558 15.1314 50.9176 15.0775 51.0714 15.0985L51.2763 13.6019L50.7868 13.1247L52.6581 13.3799L52.0582 13.7086L51.8471 15.2498C52.2392 15.4379 52.5869 15.5527 52.8902 15.5941C53.0398 15.6145 53.2599 15.6119 53.5506 15.5864L53.7757 13.9428L53.2797 13.4647L55.1574 13.7208L54.551 14.0486L54.0475 17.7259L54.5427 18.2103Z" fill="white"/>
<path d="M59.8152 19.6198L55.7329 18.4411L56.3681 18.2012L56.891 16.397C56.5679 16.3037 56.2836 16.309 56.0381 16.4127C56.2393 16.0901 56.5512 15.9898 56.9738 16.1118L57.4033 14.6299L56.9946 14.0886L60.9154 15.2206C60.529 15.4539 60.2032 15.7338 59.9379 16.0605C59.9118 15.717 59.8066 15.4604 59.6223 15.2907C59.4735 15.1537 59.2169 15.0326 58.8523 14.9273C58.6701 14.8746 58.4482 14.8196 58.1865 14.7619L57.7318 16.3306L58.7011 16.6105L59.3323 16.2216L58.9459 17.5546L58.6185 16.8957L57.6491 16.6158L57.101 18.5069C57.3282 18.5904 57.4914 18.6465 57.5909 18.6752C58.0548 18.8091 58.3842 18.8572 58.5793 18.8194C58.7933 18.7782 59.0707 18.603 59.4118 18.2938C59.4038 18.5692 59.4302 18.803 59.4912 18.9954C59.5398 19.1528 59.6478 19.3609 59.8152 19.6198Z" fill="white"/>
<path d="M65.1885 20.5571C65.1067 20.7374 65.0081 20.8818 64.8926 20.9902C64.5017 21.3614 63.8033 21.3197 62.7977 20.8652L60.6822 19.909L61.348 19.7565L62.1004 18.0985C61.8529 17.9866 61.6381 17.9226 61.4561 17.9065L61.8979 17.6527C61.9758 17.721 62.0815 17.7854 62.2151 17.8457L62.7541 16.6581L62.4628 16.2359C63.1907 16.1446 63.9042 16.2569 64.6035 16.573C65.0709 16.7842 65.423 17.0307 65.6597 17.3125C65.9733 17.6857 66.0357 18.08 65.8472 18.4954C65.7281 18.758 65.5211 18.9219 65.2264 18.9871C64.9852 19.0387 64.7105 19.0232 64.4025 18.9406L64.3998 18.9465C64.7966 19.1778 65.0557 19.4414 65.1772 19.7372C65.2986 20.033 65.3024 20.3062 65.1885 20.5571ZM65.0747 18.1321C65.3273 17.5755 65.1315 17.1517 64.4872 16.8605C64.2083 16.7344 63.9102 16.687 63.593 16.7185L62.934 18.1706L63.3524 18.3598C64.248 18.7646 64.8221 18.6887 65.0747 18.1321ZM64.4049 20.2029C64.5667 19.8462 64.5275 19.5309 64.2873 19.257C64.1257 19.0706 63.8406 18.8851 63.4321 18.7004L62.8193 18.4234L62.0269 20.1696C62.0661 20.1874 62.1488 20.2294 62.2749 20.2958C62.3774 20.3517 62.4601 20.3938 62.5229 20.4222C62.735 20.518 62.9337 20.5913 63.1191 20.642C63.435 20.7282 63.6858 20.7494 63.8713 20.7057C64.1025 20.6449 64.2803 20.4773 64.4049 20.2029Z" fill="white"/>
<path d="M70.6331 25.5207L69.0702 24.4504L69.7578 24.4203L71.8618 21.3606L71.639 20.7148L73.2018 21.7851L72.5019 21.7989L70.3979 24.8586L70.6331 25.5207ZM69.8934 23.4017C69.786 23.5578 69.6659 23.6868 69.533 23.7889C69.0858 24.1349 68.4106 23.9986 67.5074 23.3801L65.8273 22.2294L66.5095 22.1957L67.5195 20.727C67.2532 20.5968 67.0359 20.5211 66.8676 20.4997C67.0358 20.354 67.3019 20.3588 67.6658 20.5141L68.6099 19.1412L68.396 18.4938L69.9962 19.5897L69.235 19.6242L68.3823 20.864C68.7757 21.0603 69.0719 21.2266 69.271 21.363C69.7191 21.6698 69.9884 22.0083 70.0792 22.3783C70.1699 22.7484 70.108 23.0895 69.8934 23.4017ZM69.2479 22.9597C69.426 22.7007 69.4939 22.4498 69.4518 22.2069C69.4155 21.963 69.2676 21.7521 69.008 21.5743C68.688 21.3551 68.4258 21.1964 68.2214 21.0982L67.1273 22.6892C67.2523 22.827 67.3929 22.9494 67.5494 23.0566C68.289 23.5631 68.8552 23.5308 69.2479 22.9597Z" fill="white"/>
<path d="M47.9378 1C73.8621 1 94.876 21.973 94.876 47.8418C94.876 73.7107 73.8621 94.6835 47.9378 94.6835C22.0136 94.6835 1 73.7107 1 47.8418C1.00001 21.973 22.0136 1 47.9378 1Z" fill="url(#paint0_linear_204_81)" stroke="#4000AC" stroke-width="1.29041"/>
<path d="M1.85785 45.0946L20.1755 48.3794M19.8178 48.3153L29.3344 45.9515M66.6495 42.3454L79.9583 43.5594L93.8039 42.3454" stroke="white" stroke-width="3.22602"/>
<path d="M27.7598 53.7175V38.1341V36.2864C28.0671 36.2306 39.1594 35.4846 44.5624 35.2754H67.9673V38.8662V41.6203V46.9891V51.5212L67.2337 51.7013L66.6748 51.8385L65.3822 52.1557L64.5788 52.3529L63.0069 52.7387L62.4279 52.8808L60.7711 53.2875L50.6058 55.7826L48.2303 56.3657L47.5317 56.5371L46.1343 56.8801L45.6453 57.0002L43.6541 57.4889L42.9206 57.669L42.117 57.8662L27.7598 53.7175Z" fill="white"/>
<path d="M67.9673 38.8662V35.2754M67.9673 38.8662L66.57 39.015M67.9673 38.8662V41.6203M67.9673 35.2754H44.5624C39.1594 35.4846 28.0671 36.2306 27.7598 36.2864M67.9673 35.2754L66.3429 35.501M66.57 39.015L64.7186 39.2123M66.57 39.015L66.3429 35.501M67.9673 41.6203V46.9891M67.9673 41.6203L67.4782 41.7218M42.117 41.6203L27.7598 38.1341M42.117 41.6203V38.8662M42.117 41.6203L43.724 41.4491M42.117 41.6203V46.9891M27.7598 38.1341V53.7175L42.117 57.8662M27.7598 38.1341V36.2864M42.117 38.8662L27.7598 36.2864M42.117 38.8662L43.724 38.643M43.724 41.4491V38.643M43.724 41.4491L45.4706 41.263M42.117 46.9891V52.4276M42.117 46.9891L46.9378 45.9879M42.117 57.8662V52.4276M42.117 57.8662L42.9206 57.669M42.117 52.4276L67.9673 46.9891M42.9206 57.669L43.0602 53.1249L42.676 52.846L43.8637 52.567L43.6541 53.1249V57.4889M42.9206 57.669L43.6541 57.4889M43.724 38.643L45.4706 38.4003M66.3429 35.501L64.7186 35.7266M45.4706 38.4003V41.263M45.4706 38.4003L47.5666 38.1092M45.4706 41.263L47.5666 41.0397M47.5666 38.1092V41.0397M47.5666 38.1092L49.3831 37.8569M47.5666 41.0397L49.3831 40.8462M49.3831 37.8569V40.8462M49.3831 37.8569L51.4092 37.5754M49.3831 40.8462L53.8195 40.3735M51.4092 37.5754V40.435M51.4092 37.5754L53.6099 37.2698M53.8195 40.3735L53.6099 37.2698M53.8195 40.3735L55.2169 40.2246M53.6099 37.2698L55.2169 37.0465M55.2169 37.0465V40.2246M55.2169 37.0465L57.1382 36.7796M55.2169 40.2246L57.1382 40.0199M57.1382 36.7796V40.0199M57.1382 36.7796L58.4656 36.5952M57.1382 40.0199L58.6752 39.8562M58.4656 36.5952L58.6752 39.8562M58.4656 36.5952L60.0026 36.3818M58.6752 39.8562L60.2471 39.6887M60.0026 36.3818L60.2471 39.6887M60.0026 36.3818L61.5397 36.1682M60.2471 39.6887L61.5397 39.551M61.5397 36.1682V39.551M61.5397 36.1682L63.0069 35.9644M61.5397 39.551L63.0069 39.3946M63.0069 35.9644V39.3946M63.0069 35.9644L64.7186 35.7266M63.0069 39.3946L64.7186 39.2123M64.7186 35.7266V39.2123M46.9378 45.9879C46.8562 44.475 46.3649 41.6367 45.0514 42.3873C43.7379 43.1378 43.6192 45.4658 43.724 46.5359M46.9378 45.9879L49.6974 45.4147M67.9673 46.9891V51.5212L67.2337 51.7013M67.4782 41.7218C67.4084 41.0442 67.059 39.755 66.2206 40.0199C65.3822 40.285 65.5686 41.502 65.7666 42.0774M67.4782 41.7218L65.7666 42.0774M67.2337 51.7013V48.8019L67.3734 47.7212L66.7446 47.8606L66.6398 48.8019L66.6748 51.8385M67.2337 51.7013L66.6748 51.8385M49.6974 45.4147C49.5926 44.0337 49.7883 41.3833 51.4092 41.8295C52.0799 42.5825 52.5736 44.1126 52.7366 44.7835M49.6974 45.4147L52.7366 44.7835M52.7366 44.7835L54.9723 44.3192M54.9723 44.3192C54.7977 43.4394 54.7487 41.5965 55.9504 41.263C57.1521 40.9295 57.5922 42.7891 57.6622 43.7606M54.9723 44.3192L57.6622 43.7606M57.6622 43.7606L60.4567 43.1802M60.4567 43.1802C60.3869 42.128 60.5406 40.106 61.7143 40.435C62.8881 40.7639 63.065 42.0491 63.0069 42.6506M60.4567 43.1802L63.0069 42.6506M63.0069 42.6506L65.7666 42.0774M45.1911 47.0066L46.7282 46.7799L46.8155 47.7561M45.1911 47.0066L43.6541 47.2331L43.724 47.6166L43.7833 48.2442M45.1911 47.0066L45.6453 50.9837M46.8155 47.7561L47.0775 50.6845L45.6453 50.9837M46.8155 47.7561L43.7833 48.2442M43.7833 48.2442L43.9481 49.9873M45.6453 50.9837L44.0733 51.312L43.9481 49.9873M43.9481 49.9873L46.8155 49.3946M51.3044 45.8533L52.7366 45.4147L52.8252 46.5359M51.3044 45.8533L49.8722 46.2918V47.6166M51.3044 45.8533L51.4616 49.691M52.8252 46.5359L53.051 49.3946L51.4616 49.691M52.8252 46.5359L49.8722 47.6166M49.8722 47.6166V48.8019M51.4616 49.691L49.8722 49.9873V48.8019M49.8722 48.8019L52.7366 48.0001M56.719 44.6431L58.1512 44.3192V45.246M56.719 44.6431L55.2867 44.9671L55.3375 46.0826M56.719 44.6431L56.8063 48.5405M58.1512 45.246L55.3375 46.0826M58.1512 45.246V46.9891M55.3375 46.0826L55.4201 47.8955M56.8063 48.5405L55.4614 48.8019L55.4201 47.8955M56.8063 48.5405L58.1512 48.279V46.9891M55.4201 47.8955L58.1512 46.9891M60.7013 43.991L60.6846 44.0707M60.6846 44.0707L61.9156 43.9157M60.6846 44.0707L60.0743 46.9891M61.9156 43.9157L63.1466 43.7606L63.461 47.3029L61.9156 47.6023M61.9156 43.9157V47.6023M60.0743 46.9891L59.8629 48.0001L61.9156 47.6023M60.0743 46.9891L63.461 46.2918M60.4567 45.4147L63.1466 44.9671M66.6398 43.1368L67.3734 42.8405V46.4662L66.6398 46.5707M66.6398 43.1368L65.9062 43.4331V44.6431M66.6398 43.1368V46.5707M66.6398 46.5707L65.9062 46.6754V45.8386M65.9062 44.6431L67.2337 44.3192M65.9062 44.6431V45.8386M65.9062 45.8386L67.2337 45.5249M50.6058 55.7826L50.466 52.4625L49.8722 51.9047L49.6974 51.4863L60.7711 48.9762L60.4567 49.3946L60.7711 49.691V50.1267V53.2875M50.6058 55.7826L60.7711 53.2875M50.6058 55.7826L51.0249 55.2514M50.6058 55.7826L48.2303 56.3657M60.7711 53.2875L60.2122 52.8808M60.7711 53.2875L62.4279 52.8808M51.0249 55.2514L50.8852 52.1138L60.0725 49.9873L60.2122 52.8808M51.0249 55.2514L52.2825 54.927M48.2303 56.3657V52.846V51.9047L47.0775 52.1138L47.5317 52.846V56.5371M48.2303 56.3657L47.5317 56.5371M60.2122 52.8808L59.4437 53.0791M62.4279 52.8808V49.691V48.9762L63.1466 48.8019L62.7973 49.4992L63.0069 52.7387M62.4279 52.8808L63.0069 52.7387M52.2825 54.927C52.2266 54.8519 52.2126 53.2759 52.2126 52.4974L53.3829 52.201M52.2825 54.927L54.8326 54.269M59.4437 53.0791L59.304 50.8239L57.959 51.1551M59.4437 53.0791L58.221 53.3946M53.3829 52.201L54.5531 51.9047L54.8326 54.269M53.3829 52.201L53.4702 54.5194M54.8326 54.269L56.9984 53.7101M56.9984 53.7101L56.6142 51.4863L57.959 51.1551M56.9984 53.7101L58.221 53.3946M57.959 51.1551L58.221 53.3946M43.6541 57.4889L45.6453 57.0002M45.6453 57.0002L45.3309 53.1249L44.8418 52.4974L45.9247 52.201V52.846L46.1343 56.8801M45.6453 57.0002L46.1343 56.8801M46.1343 56.8801L47.5317 56.5371M63.0069 52.7387L64.5788 52.3529M64.5788 52.3529L64.7884 49.1157L64.3343 48.4533L65.8014 48.0001L65.3822 48.9762V52.1557M64.5788 52.3529L65.3822 52.1557M65.3822 52.1557L66.6748 51.8385" stroke="#4000AC" stroke-width="0.314992" stroke-linecap="square"/>
<path d="M52.3185 41.7257V41.0982L54.6939 40.8193V41.4817L52.3185 41.7257Z" fill="#4000AC"/>
<path d="M31.778 36.4966L43.6551 35.7994L37.6118 37.0544L46.1703 35.7994L42.2229 37.403C44.4237 36.7871 48.8043 35.6042 48.7204 35.7994C48.6366 35.9946 45.821 37.2286 44.4237 37.8211L55.0782 36.0431L59.1303 35.7994M44.1443 46.3973C44.2374 45.3049 44.5983 43.1132 45.297 43.0854C45.9956 43.0574 46.1703 44.9795 46.1703 45.9441M50.3972 45.2119C50.3506 44.4218 50.3483 42.8134 50.7115 42.7018C51.0749 42.5903 51.7712 44.0498 52.0739 44.7936M55.707 43.9918C55.6953 43.3294 55.7349 41.9976 55.9864 41.9698C56.3008 41.9349 57.0344 42.8064 57.0344 43.6431M61.0167 43.0854C61.0167 42.423 61.1146 41.0982 61.5058 41.0982C61.8971 41.0982 62.3675 42.1673 62.5538 42.7018M66.3265 41.9698C66.2334 41.563 66.1029 40.7426 66.3265 40.7147C66.6059 40.6798 66.8505 40.7495 67.0601 41.7257M28.8786 36.4966L27.9703 38.1698M30.1711 36.7753L28.8786 38.4486M31.778 37.0544L30.1711 38.7624M33.5596 37.403L31.778 39.111M35.0267 37.8211V39.8431M35.9699 37.8211L36.3891 40.1918M37.2625 37.9954L37.6118 40.5404M38.6248 38.1698L38.8694 40.8193M40.0222 38.4486V41.0982M41.1749 38.7624L41.6291 41.4817M42.2229 40.8193L67.8286 37.403M43.6551 41.4817V43.0854L42.2229 43.3991M52.3185 41.0982V41.7257L54.6939 41.4817V40.8193L52.3185 41.0982Z" stroke="#4000AC" stroke-width="0.125997" stroke-linecap="square"/>
<path d="M28.1451 42.841V38.8666L41.4893 42.1437L41.3147 46.2923L28.1451 42.841Z" fill="white"/>
<path d="M28.3896 48.4886V44.2354L41.3147 47.5474V51.8354L28.3896 48.4886Z" fill="white"/>
<path d="M41.3147 56.9602V53.2299L28.3896 49.9528V53.2299L41.3147 56.9602Z" fill="white"/>
<path d="M41.9785 47.0244L27.8287 43.3165M41.9785 52.5675L27.7872 49.1192M40.4065 42.5969L40.3366 43.085L40.8606 43.2244M29.193 45.9437V45.2813H29.8568M40.651 53.7528V54.6592L40.3366 55.5308M40.4065 48.2097V49.2207V50.5455M29.5074 50.8593L28.7738 51.173L29.0184 52.1143L29.5074 52.8115M28.1451 38.8666V42.841L41.3147 46.2923L41.4894 42.1437L28.1451 38.8666ZM28.3896 44.2354V48.4886L41.3147 51.8354V47.5474L28.3896 44.2354ZM41.3147 53.2299V56.9602L28.3896 53.2299V49.9528L41.3147 53.2299Z" stroke="#4000AC" stroke-width="0.251994" stroke-linecap="square"/>
<path d="M28.9122 42.4217V39.9116L30.9733 40.3648V43.0144L28.9122 42.4217Z" fill="white" stroke="#4000AC" stroke-width="0.125997" stroke-linecap="square"/>
<path d="M37.3147 41.9869L38.8343 42.3181L38.6861 43.0154L38.5157 43.8172L38.3453 44.619L37.0701 44.3052L35.7951 43.9914L35.8475 43.5034L35.8999 43.0154L35.8475 42.3355L35.7951 41.6557L37.3147 41.9869Z" fill="white"/>
<path d="M31.9875 41.3419V40.6098L33.1402 40.9759L34.293 41.3419L34.3804 41.9869L34.4677 42.6318L34.2406 43.1025L34.0136 43.5731L33.0006 43.3465L31.9875 43.1199V42.231V41.3419Z" fill="white"/>
<path d="M37.4174 47.4602L38.5157 47.7566L38.4264 48.419L38.3159 49.2382L38.2055 50.0575L37.1226 49.674L36.0397 49.2906L36.1222 48.663L36.2413 47.7566L36.3191 47.1639L37.4174 47.4602Z" fill="white"/>
<path d="M34.3454 46.7456L35.2362 46.9199L35.1446 47.6171L35.0507 48.3318L34.9568 49.0465L33.9262 48.8548L32.8958 48.663L33.0698 48.0118L33.2963 47.1639L33.4546 46.5713L34.3454 46.7456Z" fill="white"/>
<path d="M31.0967 45.9612L31.9875 46.2226V46.9199V47.6171V48.5584L30.9919 48.2795L29.9963 48.0006L30.0455 47.4602L30.1582 46.2226L30.2059 45.6998L31.0967 45.9612Z" fill="white"/>
<path d="M37.3147 41.9869L38.8343 42.3181L38.6861 43.0154M37.3147 41.9869L35.7951 41.6557L35.8475 42.3355M37.3147 41.9869L37.0702 44.3052M38.6861 43.0154L35.8475 42.3355M38.6861 43.0154L38.5157 43.8172M35.8475 42.3355L35.8999 43.0154L35.8475 43.5034M37.0702 44.3052L35.7951 43.9914L35.8475 43.5034M37.0702 44.3052L38.3453 44.619L38.5157 43.8172M35.8475 43.5034L38.5157 43.8172M31.9875 41.3419V40.6098L33.1402 40.9759M31.9875 41.3419L34.3804 41.9869M31.9875 41.3419V42.231M33.1402 40.9759L34.293 41.3419L34.3804 41.9869M33.1402 40.9759L33.0006 43.3465M34.3804 41.9869L34.4677 42.6318L34.2406 43.1025M31.9875 42.231V43.1199L33.0006 43.3465M31.9875 42.231L34.2406 43.1025M34.2406 43.1025L34.0136 43.5731L33.0006 43.3465M29.9614 40.1566L29.647 42.6318M28.8785 41.6557L30.9395 41.9869M28.8785 40.6098L30.9395 40.9759M37.4174 47.4602L38.5157 47.7566L38.4264 48.419M37.4174 47.4602L36.3191 47.1639L36.2413 47.7566M37.4174 47.4602L37.1226 49.674M38.4264 48.419L36.2413 47.7566M38.4264 48.419L38.3159 49.2382M36.2413 47.7566L36.1222 48.663M37.1226 49.674L36.0397 49.2906L36.1222 48.663M37.1226 49.674L38.2055 50.0575L38.3159 49.2382M36.1222 48.663L38.3159 49.2382M34.3454 46.7456L35.2362 46.9199L35.1446 47.6171M34.3454 46.7456L33.4546 46.5713L33.2963 47.1639M34.3454 46.7456L33.9262 48.8548M35.1446 47.6171L33.2963 47.1639M35.1446 47.6171L35.0507 48.3318M33.2963 47.1639L32.8958 48.663L33.9262 48.8548M33.9262 48.8548L34.9568 49.0465L35.0507 48.3318M35.0507 48.3318L33.0006 48.0006M31.0967 45.9612L31.9875 46.2226V46.9199M31.0967 45.9612L30.2059 45.6998L30.1582 46.2226M31.0967 45.9612L30.9919 48.2795M31.9875 46.9199L30.1582 46.2226M31.9875 46.9199V47.6171M30.1582 46.2226L30.0455 47.4602M30.9919 48.2795L29.9963 48.0006L30.0455 47.4602M30.9919 48.2795L31.9875 48.5584V47.6171M30.0455 47.4602L31.9875 47.6171" stroke="#4000AC" stroke-width="0.125997" stroke-linecap="square"/>
<path d="M62.6591 53.4738V54.1013V54.6242H63.1131V55.0774H63.6721V55.3912H64.6851V56.1233L50.2929 59.8884V59.4962V59.104V58.3196V57.6224V56.9949L50.4326 56.4545L50.5723 55.9141L61.3319 53.1704L61.7857 53.3343L62.6591 53.4738Z" fill="white"/>
<path d="M50.2929 56.9949L62.6591 54.1013M50.2929 56.9949L50.4326 56.4545M50.2929 56.9949V57.6224M62.6591 54.1013V53.4738L61.7857 53.3343M62.6591 54.1013V54.6242M50.4326 56.4545L50.5723 55.9141L61.3319 53.1704L61.7857 53.3343M50.4326 56.4545L61.7857 53.3343M50.2929 57.6224L62.6591 54.6242M50.2929 57.6224V58.3196M62.6591 54.6242H63.1131V55.0774M64.6851 55.3912V56.1233L50.2929 59.8884V59.4962M64.6851 55.3912H63.6721M64.6851 55.3912L50.2929 59.4962M50.2929 59.4962V59.104M63.6721 55.3912V55.0774H63.1131M63.6721 55.3912L50.2929 59.104M63.1131 55.0774L50.2929 58.3196M50.2929 59.104V58.3196" stroke="#4000AC" stroke-width="0.125997" stroke-linecap="square"/>
<path d="M50.327 59.889L42.013 60.4817L27.7953 56.8211V53.7533L42.013 57.8322L50.403 55.9132L50.1412 57.0234L50.2066 57.7418L50.1412 58.395V58.9827L50.2066 59.4399L50.327 59.889Z" fill="white"/>
<path d="M68.0728 54.311L67.941 51.6029L61.6588 53.105L61.9205 53.2356L62.7713 53.3662V54.4111H63.2293L63.3602 54.8683H63.8183V55.1949L64.7999 55.2602V55.9786L68.0728 54.311Z" fill="white"/>
<path d="M42.013 57.8322V60.4817M42.013 57.8322L50.403 55.9132L50.1412 57.0234L50.2066 57.7418L50.1412 58.395V58.9827L50.2066 59.4399L50.327 59.889L42.013 60.4817M42.013 57.8322L27.7953 53.7533V56.8211L42.013 60.4817M67.941 51.6029L68.0728 54.311L64.7999 55.9786V55.2602L63.8183 55.1949V54.8683H63.3602L63.2294 54.4111H62.7713V53.3662L61.9206 53.2356L61.6588 53.105L67.941 51.6029Z" stroke="#4000AC" stroke-width="0.251994" stroke-linecap="square"/>
<path d="M33.1254 67.9083C18.6915 68.6659 13.1619 77.5123 13.1619 80.2619C31.4438 99.8995 62.2148 100.078 79.4559 83.4035C71.2276 80.7971 50.0478 79.2979 62.2148 73.6731C79.2775 65.7858 76.4868 61.874 64.752 56.0541L50.3698 59.9459C56.4876 64.4804 40.6027 67.5155 33.1254 67.9083Z" fill="url(#paint1_linear_204_81)"/>
<path d="M16.3636 22.387C16.2696 22.8446 16.3186 23.4237 16.5108 24.1242C16.1448 23.9213 15.8079 23.8362 15.5001 23.8687C15.197 23.8978 14.8774 24.0431 14.5413 24.3047C14.2098 24.5628 13.9919 24.7768 13.8877 24.9466L16.9969 28.9242L18.0815 28.8339L15.9407 30.5006L16.1759 29.6078L13.0775 25.6439L12.1579 25.6612L16.3636 22.387Z" fill="#4000AC"/>
<path d="M24.5661 21.0126C25.0368 21.825 25.2178 22.5857 25.1093 23.2947C24.9997 24.0717 24.548 24.6891 23.7544 25.1471C22.9405 25.6168 22.17 25.7013 21.4426 25.4006C20.7879 25.1321 20.2179 24.579 19.7325 23.7414C19.2501 22.9088 19.0557 22.1424 19.149 21.4422C19.2477 20.658 19.7015 20.0326 20.5103 19.5658C21.3241 19.0962 22.1017 19.0178 22.8428 19.3307C23.5033 19.6093 24.0777 20.1699 24.5661 21.0126ZM23.5955 21.5727C23.1862 20.8662 22.7936 20.369 22.4176 20.081C21.8547 19.645 21.2749 19.5992 20.6785 19.9434C20.0921 20.2818 19.8551 20.7923 19.9673 21.4749C20.0376 21.8989 20.2804 22.4692 20.6955 23.1857C21.0989 23.882 21.4873 24.3716 21.8603 24.6546C22.4173 25.0805 22.9941 25.1213 23.5906 24.7771C24.5207 24.2403 24.5223 23.1722 23.5955 21.5727Z" fill="#4000AC"/>
<path d="M32.6784 20.8145L30.3035 21.7618L30.7948 20.9633L28.9056 16.2465C28.6052 16.2973 28.3493 16.3649 28.1378 16.4492C27.7366 16.6093 27.4243 16.7872 27.2009 16.983L28.7421 20.8311C28.9221 21.2803 29.0061 21.6234 28.9941 21.8605C28.9777 22.2122 28.7744 22.466 28.384 22.6218C27.6792 22.9029 27.156 22.7507 26.8145 22.165C27.0195 22.0017 27.2532 21.7453 27.5157 21.3958C27.5373 21.6382 27.5611 21.7919 27.5872 21.8568C27.7497 22.2627 27.972 22.4094 28.254 22.297C28.6064 22.1564 28.6287 21.7018 28.3209 20.9333L26.8446 17.2476L25.7273 16.9778L30.3957 15.1154L29.9092 15.9026L31.7789 20.5706L32.6784 20.8145Z" fill="#4000AC"/>
<path d="M38.887 16.0271C39.1092 16.939 39.0682 17.7197 38.7638 18.3694C38.4391 19.0841 37.8314 19.5495 36.9406 19.7658C36.027 19.9874 35.2638 19.8518 34.6509 19.3588C34.0985 18.917 33.7078 18.2261 33.4786 17.286C33.2509 16.3515 33.2807 15.5615 33.5681 14.9159C33.8842 14.1914 34.4962 13.7189 35.4041 13.4985C36.3176 13.2767 37.0858 13.4202 37.7086 13.9289C38.2637 14.3819 38.6565 15.0814 38.887 16.0271ZM37.7976 16.2916C37.6043 15.4987 37.368 14.9113 37.0886 14.5292C36.6716 13.9526 36.1284 13.7456 35.4589 13.9081C34.8006 14.0678 34.429 14.491 34.3439 15.1774C34.2917 15.604 34.3635 16.2194 34.5595 17.0236C34.75 17.8051 34.9842 18.3841 35.2623 18.7605C35.6765 19.3258 36.2184 19.5271 36.8879 19.3646C37.9319 19.1112 38.2351 18.0869 37.7976 16.2916Z" fill="#4000AC"/>
<path d="M46.8674 17.0205C46.5197 17.4927 46.1745 17.839 45.8318 18.059C45.4449 18.3066 44.9782 18.4566 44.4318 18.5087C43.3913 18.608 42.5689 18.3821 41.9647 17.8308C41.3865 17.3063 41.047 16.519 40.9464 15.469C40.8564 14.529 41.046 13.7527 41.5153 13.1401C41.9903 12.5268 42.6929 12.1758 43.623 12.087C43.9079 12.0598 44.2546 12.097 44.6632 12.1986C45.0771 12.2938 45.3509 12.335 45.4846 12.3222C45.7346 12.2983 45.9767 12.1933 46.2111 12.007C45.9113 12.6738 45.7295 13.3175 45.6658 13.9384C45.3183 12.8826 44.6242 12.4042 43.5837 12.5035C42.9326 12.5657 42.4881 12.9155 42.2499 13.553C42.0783 14.026 42.0274 14.6281 42.0974 15.3591C42.1752 16.1714 42.3747 16.8139 42.6957 17.2868C43.1003 17.8981 43.6747 18.1682 44.4188 18.0972C44.9943 18.0423 45.3854 17.8381 45.592 17.4846C45.7646 17.2047 45.839 16.7556 45.8149 16.1373C45.9891 16.3022 46.1612 16.476 46.3312 16.6589C46.5013 16.8417 46.68 16.9622 46.8674 17.0205Z" fill="#4000AC"/>
<path d="M56.8988 18.6546L54.3454 18.3959L55.1514 17.9152L55.3938 15.5322C55.048 15.585 54.7066 15.5943 54.3696 15.5602C53.8758 15.5102 53.4401 15.4075 53.0626 15.2521L52.8158 17.6786L53.5 18.3103L50.9552 18.0526L51.7526 17.571L52.0029 15.1096C51.5904 15.0678 51.2512 15.1711 50.9853 15.4195C51.0716 15.2057 51.2113 15.0148 51.4045 14.8469C51.6285 14.6646 51.845 14.584 52.0542 14.6052L52.2612 12.57L51.5762 11.947L54.121 12.2048L53.3244 12.6777L53.1113 14.7738C53.6507 15.01 54.1267 15.149 54.5392 15.1908C54.7426 15.2114 55.0404 15.1976 55.4327 15.1495L55.6601 12.9143L54.9662 12.2904L57.5198 12.5491L56.7146 13.0211L56.2059 18.022L56.8988 18.6546Z" fill="#4000AC"/>
<path d="M64.109 20.3168L58.5282 18.9129L59.3766 18.5583L59.9997 16.0917C59.5579 15.9806 59.1734 16.001 58.8458 16.153C59.1031 15.7069 59.5206 15.5565 60.0982 15.7018L60.6098 13.6759L60.0312 12.9624L65.3912 14.3108C64.8792 14.6447 64.4514 15.039 64.1078 15.4934C64.0562 15.0297 63.9018 14.6874 63.6444 14.4663C63.4366 14.2878 63.0834 14.1359 62.5851 14.0106C62.3359 13.9478 62.033 13.8837 61.6762 13.8179L61.1345 15.9625L62.4596 16.2958L63.2957 15.7399L62.8353 17.5623L62.3611 16.6858L61.036 16.3524L60.383 18.9378C60.6943 19.0401 60.918 19.1084 61.0539 19.1426C61.6882 19.3022 62.1364 19.3518 62.3986 19.2915C62.6862 19.2257 63.0535 18.9755 63.5006 18.541C63.5026 18.9142 63.5495 19.2295 63.641 19.487C63.7143 19.6977 63.8703 19.9743 64.109 20.3168Z" fill="#4000AC"/>
<path d="M71.4323 21.3354C71.3301 21.5834 71.2034 21.7834 71.0522 21.9355C70.5404 22.4563 69.5934 22.4326 68.2108 21.8646L65.3027 20.6695L66.1967 20.4318L67.1371 18.1524C66.7968 18.0126 66.5031 17.9361 66.256 17.9227L66.8421 17.5586C66.9507 17.6473 67.0969 17.7294 67.2805 17.8049L67.9541 16.1721L67.54 15.6143C68.521 15.4566 69.492 15.5751 70.4533 15.9702C71.0959 16.2342 71.5841 16.5514 71.9176 16.9216C72.3595 17.412 72.4627 17.9428 72.227 18.514C72.078 18.875 71.8056 19.1066 71.4099 19.2086C71.0859 19.2898 70.7134 19.2817 70.2925 19.1843L70.2891 19.1924C70.8371 19.487 71.2003 19.8315 71.3784 20.2262C71.5567 20.6208 71.5747 20.9906 71.4323 21.3354ZM71.1643 18.0585C71.4801 17.2933 71.1951 16.7287 70.3095 16.3648C69.926 16.2072 69.5203 16.1571 69.0925 16.2145L68.2687 18.211L68.8439 18.4473C70.0751 18.9533 70.8487 18.8237 71.1643 18.0585ZM70.355 20.8927C70.5573 20.4024 70.4895 19.9774 70.1515 19.618C69.924 19.3733 69.5295 19.1355 68.9678 18.9047L68.1254 18.5586L67.1349 20.9592C67.1889 20.9814 67.3027 21.0345 67.4765 21.1185C67.6179 21.1892 67.7318 21.2422 67.8182 21.2778C68.1098 21.3976 68.3822 21.4875 68.6354 21.5474C69.0671 21.6492 69.4075 21.6662 69.6565 21.5983C69.9665 21.5051 70.1994 21.27 70.355 20.8927Z" fill="#4000AC"/>
<path d="M79.0439 27.8025L76.8781 26.427L77.8073 26.3542L80.5111 22.1139L80.1791 21.2503L82.3447 22.6258L81.3983 22.6772L78.6942 26.9174L79.0439 27.8025ZM77.943 24.969C77.8051 25.1853 77.6485 25.3656 77.4734 25.51C76.8843 25.9994 75.9641 25.8466 74.7127 25.0517L72.3846 23.573L73.3063 23.4954L74.6043 21.46C74.2379 21.2964 73.9403 21.204 73.7114 21.183C73.9322 20.9778 74.2926 20.9718 74.7924 21.165L76.0057 19.2625L75.6859 18.3962L77.9031 19.8045L76.8745 19.8868L75.7787 21.605C76.3203 21.8522 76.729 22.0635 77.0049 22.2388C77.6258 22.6331 78.0063 23.0786 78.1465 23.5751C78.2867 24.0718 78.2189 24.5364 77.943 24.969ZM77.0487 24.401C77.2775 24.0421 77.3577 23.6993 77.2891 23.3726C77.2287 23.044 77.0186 22.7655 76.6589 22.537C76.2155 22.2554 75.8531 22.0529 75.5718 21.9294L74.1657 24.1344C74.3413 24.315 74.5375 24.4742 74.7543 24.6118C75.7791 25.2628 76.5439 25.1925 77.0487 24.401Z" fill="#4000AC"/>
<path d="M18.9934 85.2963C18.9934 72.7995 30.1558 69.4843 49.4037 67.4795C60.0294 66.3723 58.3837 61.8738 52.0512 59.4816" stroke="white" stroke-width="0.129041" stroke-linecap="round" stroke-linejoin="round"/>
<path d="M20.7823 86.6163C20.7823 74.1203 30.3972 70.4395 49.6183 68.1931C61.5319 66.8003 58.8845 61.5519 52.552 59.1598" stroke="white" stroke-width="0.0645205" stroke-linecap="round" stroke-linejoin="round"/>
<path d="M22.4634 87.9371C22.4634 75.4411 30.5401 71.2251 49.7611 68.9779C61.6748 67.5859 60.3868 61.4089 53.2673 58.981" stroke="white" stroke-width="0.0645205" stroke-linecap="round" stroke-linejoin="round"/>
<path d="M25.3266 89.7235C25.3266 77.2267 30.7557 71.6899 49.9768 69.4435C61.8904 68.0507 61.3538 61.3385 54.27 58.8391" stroke="white" stroke-width="0.0645205" stroke-linecap="round" stroke-linejoin="round"/>
<path d="M29.762 91.7587C24.6461 76.3347 36.6314 71.9595 50.62 69.4435C62.5013 67.3059 61.4253 61.5424 54.2693 58.8391" stroke="white" stroke-width="0.129041" stroke-linecap="round" stroke-linejoin="round"/>
<path d="M36.3607 95.2499C29.703 84.6579 27.6671 77.7667 50.9919 71.5635C61.5937 68.7443 66.6827 62.9673 55.2747 57.8166" stroke="white" stroke-width="0.129041" stroke-linecap="round" stroke-linejoin="round"/>
<path d="M48.0661 95.7931C34.6651 85.9995 37.0374 76.9347 50.2713 73.4491C63.6298 69.9307 68.8034 62.277 56.4202 57.5254" stroke="white" stroke-width="0.0645205" stroke-linecap="round" stroke-linejoin="round"/>
<path d="M52.6464 95.4299C39.2454 85.6363 37.1838 77.9803 53.8762 72.8323C66.3446 68.9875 67.1929 61.2253 57.1846 57.2716" stroke="white" stroke-width="0.0645205" stroke-linecap="round" stroke-linejoin="round"/>
<path d="M42.6379 95.6843C31.2298 85.9275 34.6176 75.9523 48.7819 72.6875C65.1824 68.9075 66.3013 61.7334 55.5721 57.7435" stroke="white" stroke-width="0.0645205" stroke-linecap="round" stroke-linejoin="round"/>
<path d="M56.5749 94.8867C43.1738 85.0931 40.9831 77.1131 53.1119 73.5227C63.3274 70.4979 70.457 62.8582 58.2436 57.236" stroke="white" stroke-width="0.129041" stroke-linecap="round" stroke-linejoin="round"/>
<path d="M76.5584 86.0451C65.0026 84.1891 54.4617 79.3307 58.062 75.7627C63.1778 70.6923 84.2503 65.6939 63.1778 56.2678" stroke="white" stroke-width="0.129041" stroke-linecap="round" stroke-linejoin="round"/>
<path d="M64.3587 92.8291C60.9248 91.7579 37.8124 80.9699 62.6414 71.0491C68.0793 68.8763 70.5122 63.2297 60.6737 57.0885" stroke="white" stroke-width="0.129041" stroke-linecap="round" stroke-linejoin="round"/>
<path d="M67.5785 91.3299C62.6771 88.8307 42.5346 80.6547 60.3871 72.8347C65.7509 70.4859 74.6266 65.1942 61.5681 56.7322" stroke="white" stroke-width="0.0645205" stroke-linecap="round" stroke-linejoin="round"/>
<path d="M71.3357 89.5099C66.7202 86.6891 43.6713 81.3675 61.2106 72.8715C67.3284 69.9075 75.5571 64.9449 62.4986 56.4829" stroke="white" stroke-width="0.0645205" stroke-linecap="round" stroke-linejoin="round"/>
<path d="M73.8755 87.8315C68.8499 85.2611 48.3308 80.9763 60.5663 73.5859C68.9634 68.5131 77.3816 63.4455 63.0351 56.376" stroke="white" stroke-width="0.0645205" stroke-linecap="round" stroke-linejoin="round"/>
<path fill-rule="evenodd" clip-rule="evenodd" d="M24.7651 80.9771L21.0801 79.5483L20.1068 82.0483L23.3824 83.3187C23.1501 83.6067 22.8443 84.3163 23.4792 84.8499C23.8405 84.9899 24.1695 84.7859 24.1198 84.1299C24.0801 83.6059 23.9033 83.4283 23.8199 83.4051L22.7362 82.9851L21.1707 82.3779L22.0597 80.0947L24.2995 80.9627C24.0878 81.2219 23.8078 81.8843 24.3817 82.4611C24.7187 82.5915 25.0199 82.4595 25.0572 81.8651C25.087 81.3899 24.8749 81.0755 24.7651 80.9771ZM21.5392 79.8651L21.8764 79.9955L20.9873 82.2787L20.6501 82.1483L21.5392 79.8651Z" fill="white"/>
<path fill-rule="evenodd" clip-rule="evenodd" d="M32.6341 74.4875L31.4649 71.8579L35.3877 70.1203L35.7633 70.9651L36.335 72.2507L36.6423 72.9419L36.6765 73.0187L36.5394 73.5387C36.3086 73.8475 35.615 74.2235 35.6102 73.6747C35.6772 72.8731 36.2123 72.7339 36.4715 72.7643L35.65 70.9691L33.8232 71.7787L34.3779 73.0259C34.4562 73.1675 34.6409 73.5339 34.7535 73.8699C34.8661 74.2059 34.5566 74.5315 34.3878 74.6523C34.2282 74.7763 33.8656 74.9067 33.6915 74.4323C33.8594 73.7331 34.3257 73.6155 34.5378 73.6443L33.727 71.8211L31.9194 72.6219L32.8156 74.6363C32.8498 74.7131 32.8693 74.9435 32.6743 75.2507C32.3408 75.7843 31.9457 75.5963 31.7898 75.4355C31.8125 74.6171 32.3622 74.4619 32.6341 74.4875ZM33.5927 71.2603L33.7634 71.6443L35.6095 70.8259L35.4388 70.4427L33.5927 71.2603ZM31.8597 72.4875L31.689 72.1035L33.4966 71.3027L33.6673 71.6867L31.8597 72.4875Z" fill="white"/>
<path fill-rule="evenodd" clip-rule="evenodd" d="M59.1763 84.9531L61.8332 83.8379L63.4967 87.7867L62.6432 88.1443L61.3439 88.6899L60.6457 88.9827L60.5682 89.0155L60.0498 88.8683C59.7447 88.6315 59.3816 87.9323 59.9319 87.9387C60.7335 88.0211 60.8623 88.5579 60.8264 88.8155L62.6413 88.0315L61.8667 86.1931L60.6061 86.7219C60.4628 86.7971 60.0916 86.9739 59.7527 87.0795C59.4139 87.1851 59.0939 86.8699 58.9763 86.6995C58.855 86.5379 58.7319 86.1731 59.2103 86.0091C59.9075 86.1899 60.0163 86.6579 59.9835 86.8691L61.8259 86.0963L61.0595 84.2763L59.0231 85.1307C58.9455 85.1635 58.7144 85.1787 58.4108 84.9779C57.8827 84.6347 58.0788 84.2443 58.2429 84.0915C59.0626 84.1307 59.2067 84.6819 59.1763 84.9531ZM62.3903 85.9731L62.0024 86.1355L62.7852 87.9939L63.1731 87.8307L62.3903 85.9731ZM61.1952 84.2195L61.5831 84.0571L62.3495 85.8763L61.9617 86.0387L61.1952 84.2195Z" fill="white"/>
<path fill-rule="evenodd" clip-rule="evenodd" d="M59.931 64.5589L62.1184 62.5553L64.3205 64.9496L63.6178 65.5932L62.5482 66.5731L61.9734 67.0995L61.9096 67.1579L61.4175 67.2627C61.101 67.2067 60.6495 66.8115 61.145 66.5827C61.8801 66.3067 62.0918 66.6739 62.1059 66.8915L63.5959 65.5051L62.5705 64.3902L61.5326 65.3408C61.4174 65.4607 61.1156 65.7574 60.8302 65.9843C60.5446 66.2115 60.2007 66.0995 60.0644 66.0154C59.9264 65.9399 59.7506 65.706 60.151 65.3738C60.8098 65.2201 60.9913 65.5411 60.9997 65.7209L62.5165 64.3314L61.5018 63.2282L59.8254 64.7638C59.7615 64.8223 59.5566 64.9322 59.2478 64.9036C58.7119 64.8582 58.8181 64.4683 58.9382 64.279C59.6815 63.9614 59.9098 64.3333 59.931 64.5589ZM63.0015 63.9953L62.6822 64.2878L63.7185 65.4145L64.0378 65.122L63.0015 63.9953ZM61.6136 63.1258L61.9329 62.8334L62.9476 63.9366L62.6282 64.2291L61.6136 63.1258Z" fill="white"/>
<path d="M38.2262 83.6619C37.8583 83.1939 38.2067 82.6867 38.4269 82.4915L37.2271 82.1339L35.7874 81.7051L34.519 81.3267L34.5599 81.1899L35.8283 81.5683L36.4111 81.7419L37.7138 82.1299L38.6051 82.3955C39.7331 82.9931 39.2613 83.8211 39.1723 83.8691C39.0832 83.9171 38.6861 84.2459 38.2262 83.6619Z" fill="white"/>
<path d="M43.5169 85.0227C44.4283 85.9219 44.0767 86.7291 43.787 87.0203L43.7682 87.0891L44.5276 87.2955L46.357 87.7931L48.4971 88.3755L47.5185 91.9579L46.0687 91.5635L43.5835 90.8875L42.3634 90.5555C42.3661 90.5619 42.3552 90.5579 42.3409 90.5499L42.3634 90.5555C42.358 90.5435 42.2982 90.4883 42.1024 90.3363C41.7352 90.0515 41.302 87.9723 42.5854 88.4323C43.5971 89.5075 43.1682 90.2811 42.8272 90.5339L46.1064 91.4259L46.6427 89.4627L47.0097 88.1187L44.2828 87.3771L43.2819 87.1051C43.331 87.1059 43.3351 87.0451 42.9586 86.7947C42.4879 86.4819 42.4155 84.5747 43.5169 85.0227Z" fill="white"/>
<path d="M69.283 61.0654C69.6849 61.4619 69.5299 61.8179 69.4022 61.9463L69.3938 61.9766L69.7287 62.0678L70.5354 62.2872L71.4791 62.544L71.0476 64.1238L70.4083 63.9498L69.3124 63.6517L68.7744 63.5053C68.7756 63.5081 68.7708 63.5062 68.7645 63.5026L68.7744 63.5053C68.772 63.4998 68.7457 63.4758 68.6593 63.4087C68.4974 63.283 68.3063 62.3662 68.8723 62.5691C69.3184 63.043 69.1293 63.3842 68.979 63.4957L70.4249 63.889L70.6614 63.0232L70.8233 62.4308L69.6208 62.1037L69.1794 61.9836C69.201 61.9841 69.2029 61.9574 69.0369 61.847C68.8293 61.7089 68.7974 60.8679 69.283 61.0654Z" fill="white"/>
<path d="M47.0427 73.7563C47.0704 73.7499 48.8312 74.8539 49.7081 75.4075L49.761 75.3219L47.3729 73.8427C47.4402 73.8451 47.5776 73.7987 47.5876 73.5923C47.817 72.9387 47.5494 72.4187 47.1193 72.6835C46.6891 72.9475 47.0082 73.7643 47.0427 73.7563Z" fill="white"/>
<path d="M52.624 71.7571C52.6516 71.7499 54.4124 72.8547 55.2893 73.4083L55.3422 73.3227L52.9541 71.8435C53.0215 71.8459 53.1588 71.7995 53.1688 71.5931C53.3982 70.9395 53.1306 70.4195 52.7005 70.6835C52.2703 70.9483 52.5894 71.7651 52.624 71.7571Z" fill="white"/>
<path d="M54.3677 60.4365C54.3739 60.4194 55.5875 59.864 56.1936 59.5885L56.1664 59.5302L54.5304 60.29C54.5554 60.2547 54.5786 60.1647 54.4712 60.087C54.2001 59.734 53.8263 59.6947 53.8172 60.0182C53.8081 60.3417 54.3598 60.4578 54.3677 60.4365Z" fill="white"/>
<path d="M48.0233 69.2587L46.7905 67.9395L46.8606 67.8739C46.9037 67.9355 47.0386 68.0267 47.2333 67.8987C47.4281 67.7699 47.6777 68.0307 47.7782 68.1771C47.6865 68.1027 47.4617 67.9699 47.2965 68.0363C47.1311 68.1027 47.0606 68.0883 47.0461 68.0723L48.2353 69.3459L48.4225 69.1715L48.488 69.2411L48.254 69.4595C48.2692 69.6707 48.1624 70.1339 47.7273 69.9491L47.5167 70.1451L47.4513 70.0747L47.697 69.8467C47.6287 69.6619 47.6451 69.4147 48.0233 69.2587Z" fill="white"/>
<path d="M79.6327 38.476V56.5538L75.7598 56.5342V55.0895H75.4076C75.345 55.0895 74.9642 54.8813 74.7817 54.7772L73.921 53.9768H73.4123H73.158L73.0602 54.0549L72.6886 53.762L72.5516 53.5863L72.7668 53.4692V53.2154L72.845 53.0592L73.2754 53.2935L73.5297 53.2154L73.6373 53.1373L73.7449 53.0592C73.6797 53.0462 73.5218 53.0124 73.4123 52.9811C73.3028 52.9499 73.1319 52.9681 73.0602 52.9811L73.2754 52.6493L73.0602 52.4345L73.158 52.3174H73.4123L73.7449 52.2002L73.8329 52.1026L73.921 52.005L73.7449 51.5755V51.1655L73.921 50.8727L74.0774 50.6775H74.4491L74.5469 50.8727L74.3513 51.0484L74.2339 51.3998V51.6926L74.4491 52.005H74.7817H75.212H75.5641V42.6147L75.4272 42.439C74.8933 42.1529 74.503 41.8101 74.2534 41.5358C74.1081 41.3758 74.0105 41.2392 73.9601 41.1506H73.3732L73.1776 41.3067L72.9428 40.8773C73.0015 40.8187 73.1306 40.6938 73.1776 40.6626C73.2246 40.6313 73.5623 40.6234 73.7253 40.6234L73.471 40.233L73.1189 40.155L73.471 39.6474V39.3741C73.6098 39.6626 73.807 39.8552 73.9505 39.9597C74.0011 39.9966 74.0451 40.0226 74.0774 40.0378V39.1398H74.4295C74.6799 40.155 75.199 40.1094 75.4272 39.9597V38.476V37.6756L75.0182 37.2266L74.8403 37.0314V36.7776V36.0748L75.1338 36.0539L75.4272 36.0331V35.7819V35.7038L76.7378 35.6308C76.7378 35.5643 76.6074 34.4934 76.5422 33.9663H76.4835L76.3074 33.8492L76.4248 33.7126L76.5422 33.5954L76.3662 33.283L76.151 33.2245L76.014 33.0293V32.8926H76.4248L76.5814 32.8536V32.6193H76.953H77.1878V32.346H77.4812H77.6377V32.5217V32.6193H77.8333H78.2245L78.3223 32.8536L78.8114 32.8926V33.0293L78.5556 33.2245L78.4788 33.283L78.3223 33.5954V33.7126L78.4397 33.7516L78.3223 33.9078V34.2787C78.2898 34.3828 78.2245 34.6028 78.2245 34.6496C78.2245 34.6965 78.1593 35.0075 78.1267 35.1572V35.5534L79.6327 35.4696V35.7344L79.7503 35.7261L80.0631 35.7038V36.6604V37.0314L79.9847 37.1485L79.6327 37.6756V38.476Z" fill="white"/>
<path d="M79.6327 38.476V56.5538L75.7598 56.5342V55.0895M79.6327 38.476V37.6756M79.6327 38.476L79.4959 38.2613L75.5641 38.3589L75.4272 38.476M75.7598 55.0895L76.1314 54.9529C76.163 54.8516 76.204 54.7221 76.2488 54.5831M75.7598 55.0895C75.6685 55.0895 75.4702 55.0895 75.4076 55.0895C75.345 55.0895 74.9642 54.8813 74.7817 54.7772L73.921 53.9768M79.6327 37.6756L79.9847 37.1485M79.6327 37.6756L79.4959 37.5585H79.0855H77.5398H75.7402L75.4272 37.6756M75.4272 38.476V37.6756M75.4272 38.476V39.9597M79.9847 37.1485L75.0182 37.2266M79.9847 37.1485L80.0631 37.0314V36.6604M75.4272 37.6756L75.0182 37.2266M75.0182 37.2266L74.8403 37.0314V36.7776M75.4272 39.9597C75.199 40.1094 74.6799 40.155 74.4295 39.1398H74.0774V40.0378M75.4272 39.9597L75.6619 40.0574M74.0774 40.0378C74.0451 40.0226 74.0011 39.9966 73.9505 39.9597M74.0774 40.0378V40.233L74.0187 40.4868L73.9505 40.6234M74.0774 40.0378L74.4882 40.0574C74.6642 40.0898 75.0281 40.155 75.075 40.155C75.122 40.155 75.3294 40.155 75.4272 40.155L75.6619 40.0574M75.6619 40.0574L75.8966 40.155V40.3111V40.6527M73.9505 39.9597C73.807 39.8552 73.6098 39.6626 73.471 39.3741V39.6474L73.1189 40.155L73.471 40.233M73.9505 39.9597L73.8231 40.0378L73.5884 40.155L73.471 40.233M73.9505 40.6234H73.7253M73.9505 40.6234L74.3122 40.6626H74.6838H74.9186H75.1533H75.4272H75.7402L75.8966 40.6527M73.471 40.233L73.7253 40.6234M73.7253 40.6234C73.5623 40.6234 73.2246 40.6313 73.1776 40.6626C73.1306 40.6938 73.0015 40.8187 72.9428 40.8773L73.1776 41.3067L73.3732 41.1506H73.9601M73.7253 40.6234L73.8818 40.8187L73.9505 40.9944M73.9601 41.1506L73.9505 40.9944M73.9601 41.1506C74.0105 41.2392 74.1081 41.3758 74.2534 41.5358M73.9505 40.9944H74.2534L74.4882 41.092L74.7621 41.1506H75.1533H75.5641L75.8966 40.9944M74.2534 41.5358C74.503 41.8101 74.8933 42.1529 75.4272 42.439M74.2534 41.5358H74.4882L74.6838 41.6582L75.075 41.5996L75.3294 41.7167L75.6619 41.6582H75.8966M75.4272 42.439L75.7402 42.2634L75.8966 41.6582M75.4272 42.439L75.5641 42.6147V52.005M75.8966 41.6582V40.9944M75.5641 52.005H75.7598L75.8771 52.3174L76.0042 52.3759M75.5641 52.005H75.212H74.7817H74.4491L74.2339 51.6926V51.3998L74.3513 51.0484L74.5469 50.8727L74.4491 50.6775H74.0774L73.921 50.8727L73.7449 51.1655V51.5755L73.921 52.005L73.8329 52.1026M75.8966 40.9944V40.6527M76.0042 52.3759L75.7598 52.5321H75.4076M76.0042 52.3759L76.1314 52.4345H76.327L76.2488 51.927H76.6009L76.7182 52.3174C76.7159 52.4501 76.7101 52.6357 76.6998 52.825M73.8329 52.1026L73.7449 52.2002L73.4123 52.3174H73.158L73.0602 52.4345L73.2754 52.6493L73.0602 52.9811C73.1319 52.9681 73.3028 52.9499 73.4123 52.9811C73.5218 53.0124 73.6797 53.0462 73.7449 53.0592M73.8329 52.1026L73.921 52.3174L74.0774 52.5321M76.2488 54.5831L75.8771 54.5429L75.4076 54.4062L74.9382 54.3086L74.4491 54.172L73.8329 53.762M76.2488 54.5831C76.3046 54.4098 76.3664 54.2217 76.4234 54.0549M73.921 53.9768H73.4123H73.158L73.0602 54.0549L72.6886 53.762L72.5516 53.5863L72.7668 53.4692V53.2154L72.845 53.0592L73.2754 53.2935L73.5297 53.2154L73.6373 53.1373M73.921 53.9768L73.8329 53.762M73.6373 53.1373L73.7449 53.0592M73.6373 53.1373L73.7449 53.4692L73.7801 53.5863M73.6373 53.1373C74.4286 53.4431 76.0936 54.0549 76.4234 54.0549M73.8329 53.762L73.7801 53.5863M73.7449 53.0592L73.8329 52.8835L73.9601 52.825M73.9601 52.825L74.0187 52.7078L74.0774 52.5321M73.9601 52.825L76.6009 53.4692M74.0774 52.5321H74.5469H74.9382H75.4076M75.4076 52.5321L75.5641 52.7078L76.0042 52.825H76.327H76.6998M76.6998 52.825C76.6819 53.1554 76.6506 53.497 76.6009 53.5863C76.5675 53.6462 76.4998 53.8314 76.4234 54.0549M73.7801 53.5863H73.158M75.4272 36.0331V35.7819V35.7038L76.7378 35.6308M75.4272 36.0331L75.1338 36.0539M75.4272 36.0331L75.6619 36.0164M75.4272 36.0331L75.4076 36.7715M76.7378 35.6308C76.7378 35.5643 76.6074 34.4934 76.5422 33.9663M76.7378 35.6308L78.1267 35.5534M75.1338 36.0539L74.8403 36.0748V36.7776M75.1338 36.0539L75.1533 36.7776M75.6619 36.0164L76.3074 35.9706M75.6619 36.0164V36.7654M75.4076 36.7715L75.1533 36.7776M75.4076 36.7715L75.6619 36.7654M79.6327 35.7344V35.4696L78.1267 35.5534M79.6327 35.7344L79.7503 35.7261M79.6327 35.7344L79.2615 35.7608M78.1267 35.5534V35.1572C78.1593 35.0075 78.2245 34.6965 78.2245 34.6496C78.2245 34.6028 78.2898 34.3828 78.3223 34.2787V33.9078M79.7503 35.7261L80.0631 35.7038V36.6604M79.7503 35.7261V36.6679M79.2615 35.7608V36.6796M79.2615 35.7608L78.694 35.8011M76.5422 33.9663H77.4225H78.1267L78.3223 33.9078M76.5422 33.9663H76.4835L76.3074 33.8492L76.4248 33.7126M78.3223 33.9078L78.4397 33.7516L78.3223 33.7126M76.4248 33.7126L76.5422 33.5954L76.3662 33.283M76.4248 33.7126H76.7378H77.266L77.6377 33.7516L78.0876 33.6735L78.3223 33.7126M78.3223 33.7126V33.5954L78.4788 33.283L78.5556 33.2245M76.3662 33.283L76.151 33.2245L76.014 33.0293V32.8926H76.4248L76.5814 32.8536M76.3662 33.283L76.4835 33.2245H77.0117H77.5398H78.4397H78.5556M76.5814 32.8536V32.6193H76.953H77.1878M76.5814 32.8536H78.3223M78.5556 33.2245L78.8114 33.0293V32.8926L78.3223 32.8536M77.1878 32.6193V32.346H77.4812H77.6377V32.5217V32.6193M77.1878 32.6193H77.6377M78.3223 32.8536L78.2245 32.6193H77.8333H77.6377M74.8403 36.7776H75.1533M80.0631 36.6604L79.7503 36.6679M79.7503 36.6679L79.2615 36.6796M79.2615 36.6796L78.694 36.6931M78.694 35.8011V36.6931M78.694 35.8011L78.0876 35.8442M78.694 36.6931L78.1267 36.7066M78.0876 35.8442L78.1267 36.7066M78.0876 35.8442L77.5398 35.883M78.1267 36.7066L77.5398 36.7206M77.5398 35.883V36.7206M77.5398 35.883L76.9334 35.9261M77.5398 36.7206L76.9334 36.7351M76.9334 35.9261V36.7351M76.9334 35.9261L76.3074 35.9706M76.9334 36.7351L76.3074 36.75M76.3074 35.9706V36.75M76.3074 36.75L75.6619 36.7654M77.5398 39.3741C77.1642 39.2959 77.3834 39.0942 77.5398 39.0031C77.7075 38.8665 78.0094 39.4717 77.5398 39.3741ZM77.5398 39.3741V39.5107M77.5398 39.5107V40.8187M77.5398 39.5107H77.2855M77.5398 39.5107H77.7942M77.5398 40.8187C77.7029 40.8578 78.1267 40.7797 78.5179 40.155V40.3892M77.5398 40.8187C77.3246 40.7146 76.8513 40.4517 76.6791 40.233L76.7378 40.6234M77.266 45.5822L77.5398 45.4455M77.266 45.5822V44.3718M77.266 45.5822L76.6791 45.914L76.6009 46.4216M77.266 45.5822V45.6798M77.5398 45.4455L77.8509 45.5822M77.5398 45.4455V44.2351M77.266 44.3718V44.0594L77.5398 43.8446M77.266 44.3718L77.5398 44.2351M76.6009 46.4216L77.266 46.0117M76.6009 46.4216L76.2879 46.2264L76.151 46.324C76.1706 46.4568 76.2006 46.6103 76.2418 46.773M76.6009 46.4216L76.2418 46.773M77.266 45.6798V46.0117M77.266 45.6798L77.563 45.7578L77.5692 46.0117M77.5398 43.8446L77.7746 44.0594L77.7902 44.3718M77.5398 43.8446V44.2351M77.7902 44.3718L77.5398 44.2351M77.7902 44.3718L77.8402 45.3674M77.8724 46.0117L77.8509 45.5822M77.8724 46.0117L77.9702 46.2264V46.324M77.8724 46.0117H77.5692M77.8509 45.5822L77.8402 45.3674M77.9702 46.324V46.4216L77.8724 46.6054M77.9702 46.324L79.0359 46.773M77.5692 46.0117H77.266M77.266 46.0117L77.1878 46.4216M77.1878 46.4216L76.2879 46.9426M77.1878 46.4216L77.4127 46.734M77.8402 45.3674L78.3614 45.7578L78.5179 46.2264H78.6353M78.6353 46.2264L78.9092 46.0898H79.1247C79.1191 46.2233 79.1047 46.3841 79.0759 46.5582M78.6353 46.2264L79.0759 46.5582M79.0759 46.5582C79.0647 46.628 79.0519 46.6998 79.0359 46.773M77.7746 48.4519L77.6776 47.4563M77.7746 48.4519C77.5326 48.5002 77.3205 48.4501 77.1362 48.3348M77.7746 48.4519C78.0453 48.3979 78.2656 48.2552 78.4437 48.0615M77.6776 47.4563L77.6377 47.0463M77.6776 47.4563L77.1362 48.3348M77.6776 47.4563L78.4437 48.0615M77.1362 48.3348C76.9406 48.2126 76.7762 48.017 76.6407 47.7882M78.4437 48.0615C78.5656 47.929 78.6678 47.7726 78.7527 47.6045M76.2418 46.773C76.2558 46.8286 76.2712 46.8854 76.2879 46.9426M76.2879 46.9426C76.3298 47.0865 76.3801 47.2341 76.4392 47.3782M77.4127 46.734L76.4392 47.3782M77.4127 46.734L77.563 46.9426M77.6377 47.0463L77.563 46.9426M77.6377 47.0463L77.7312 46.8706M77.563 46.9426L76.6407 47.7882M77.7312 46.8706L78.7527 47.6045M77.7312 46.8706L77.8724 46.6054M77.8724 46.6054L78.9679 47.0463M79.0359 46.773C79.0167 46.8627 78.9943 46.9544 78.9679 47.0463M78.9679 47.0463C78.9131 47.2359 78.8425 47.4267 78.7527 47.6045M76.4392 47.3782C76.4976 47.5206 76.5646 47.6597 76.6407 47.7882M77.4127 49.7014H77.6914M77.6914 49.7014H77.9702M77.6914 49.7014V51.0484M77.6914 49.7014C77.2024 49.4671 77.4518 49.2654 77.6377 49.1938C77.8235 49.2198 78.0944 49.3578 77.6914 49.7014ZM77.6914 51.0484C77.967 51.0419 78.5414 50.8962 78.6353 50.3651V50.6775M77.6914 51.0484C77.4453 50.9834 76.9295 50.779 76.8356 50.4822V50.8727" stroke="#4000AC" stroke-width="0.211669"/>
<path d="M17.2079 46.5878V66.2651L21.4239 66.2443V64.6716H21.8072C21.8754 64.6716 22.2899 64.445 22.4886 64.3316L23.4255 63.4604H23.9791H24.2559L24.3623 63.5454L24.7669 63.2266L24.916 63.0354L24.6818 62.9078V62.6316L24.5966 62.4616L24.1282 62.7166L23.8514 62.6316L23.7343 62.5466L23.6171 62.4616C23.6881 62.4474 23.8599 62.4106 23.9791 62.3766C24.0983 62.3426 24.2843 62.3625 24.3623 62.3766L24.1282 62.0154L24.3623 61.7816L24.2559 61.6542H23.9791L23.6171 61.5266L23.5213 61.4204L23.4255 61.3142L23.6171 60.8466V60.4004L23.4255 60.0816L23.2551 59.8691H22.8506L22.7441 60.0816L22.9571 60.2729L23.0848 60.6554V60.9742L22.8506 61.3142H22.4886H22.0202H21.6369V51.0929L21.7859 50.9016C22.3671 50.5902 22.7919 50.217 23.0635 49.9183C23.2218 49.7443 23.328 49.5956 23.3829 49.4991H24.0217L24.2346 49.6691L24.4901 49.2016C24.4263 49.1378 24.2857 49.0018 24.2346 48.9678C24.1835 48.9338 23.8159 48.9254 23.6384 48.9254L23.9152 48.5004L24.2985 48.4154L23.9152 47.8629V47.5654C23.7642 47.8794 23.5495 48.0891 23.3933 48.2029C23.3382 48.243 23.2903 48.2712 23.2551 48.2878V47.3104H22.8719C22.5993 48.4154 22.0343 48.3658 21.7859 48.2029V46.5878V45.7166L22.2311 45.2278L22.4247 45.0154V44.7391V43.9742L22.1053 43.9514L21.7859 43.9287V43.6554V43.5704L20.3593 43.4909C20.3593 43.4185 20.5012 42.2529 20.5723 41.6791H20.6361L20.8278 41.5516L20.7 41.4029L20.5723 41.2754L20.7639 40.9354L20.9981 40.8716L21.1471 40.6591V40.5104H20.7L20.5296 40.4678V40.2129H20.1251H19.8695V39.9154H19.5502H19.3799V40.1066V40.2129H19.1669H18.7411L18.6346 40.4678L18.1023 40.5104V40.6591L18.3807 40.8716L18.4643 40.9354L18.6346 41.2754V41.4029L18.5068 41.4454L18.6346 41.6154V42.0191C18.6701 42.1325 18.7411 42.3718 18.7411 42.4229C18.7411 42.4738 18.812 42.8125 18.8475 42.9754V43.4067L17.2079 43.3154V43.6036L17.0802 43.5946L16.7395 43.5704V44.6116V45.0154L16.8247 45.1429L17.2079 45.7166V46.5878Z" fill="white"/>
<path d="M17.2079 46.5878V66.2651L21.4239 66.2443V64.6716M17.2079 46.5878V45.7166M17.2079 46.5878L17.357 46.3542L21.6369 46.4604L21.7859 46.5878M21.4239 64.6716L21.0194 64.5229C20.985 64.4126 20.9403 64.2717 20.8916 64.1204M21.4239 64.6716C21.5233 64.6716 21.7391 64.6716 21.8072 64.6716C21.8754 64.6716 22.2899 64.445 22.4886 64.3316L23.4255 63.4604M17.2079 45.7166L16.8247 45.1429M17.2079 45.7166L17.357 45.5891H17.8042H19.4863H21.4452L21.7859 45.7166M21.7859 46.5878V45.7166M21.7859 46.5878V48.2029M16.8247 45.1429L22.2311 45.2278M16.8247 45.1429L16.7395 45.0154V44.6116M21.7859 45.7166L22.2311 45.2278M22.2311 45.2278L22.4247 45.0154V44.7391M21.7859 48.2029C22.0343 48.3658 22.5993 48.4154 22.8719 47.3104H23.2551V48.2878M21.7859 48.2029L21.5304 48.3091M23.2551 48.2878C23.2903 48.2712 23.3382 48.243 23.3933 48.2029M23.2551 48.2878V48.5004L23.319 48.7766L23.3933 48.9254M23.2551 48.2878L22.808 48.3091C22.6163 48.3446 22.2203 48.4154 22.1692 48.4154C22.1181 48.4154 21.8924 48.4154 21.7859 48.4154L21.5304 48.3091M21.5304 48.3091L21.2749 48.4154V48.5854V48.9573M23.3933 48.2029C23.5495 48.0891 23.7642 47.8794 23.9152 47.5654V47.8629L24.2985 48.4154L23.9152 48.5004M23.3933 48.2029L23.5319 48.2878L23.7875 48.4154L23.9152 48.5004M23.3933 48.9254H23.6384M23.3933 48.9254L22.9996 48.9678H22.5951H22.3395H22.084H21.7859H21.4452L21.2749 48.9573M23.9152 48.5004L23.6384 48.9254M23.6384 48.9254C23.8159 48.9254 24.1835 48.9338 24.2346 48.9678C24.2857 49.0018 24.4263 49.1378 24.4901 49.2016L24.2346 49.6691L24.0217 49.4991H23.3829M23.6384 48.9254L23.4681 49.1378L23.3933 49.3291M23.3829 49.4991L23.3933 49.3291M23.3829 49.4991C23.328 49.5956 23.2218 49.7443 23.0635 49.9183M23.3933 49.3291H23.0635L22.808 49.4354L22.5099 49.4991H22.084H21.6369L21.2749 49.3291M23.0635 49.9183C22.7919 50.217 22.3671 50.5902 21.7859 50.9016M23.0635 49.9183H22.808L22.5951 50.0516L22.1692 49.9878L21.8924 50.1154L21.5304 50.0516H21.2749M21.7859 50.9016L21.4452 50.7104L21.2749 50.0516M21.7859 50.9016L21.6369 51.0929V61.3142M21.2749 50.0516V49.3291M21.6369 61.3142H21.4239L21.2962 61.6542L21.1578 61.7178M21.6369 61.3142H22.0202H22.4886H22.8506L23.0848 60.9742V60.6554L22.9571 60.2729L22.7441 60.0816L22.8506 59.8691H23.2551L23.4255 60.0816L23.6171 60.4004V60.8466L23.4255 61.3142L23.5213 61.4204M21.2749 49.3291V48.9573M21.1578 61.7178L21.4239 61.8878H21.8072M21.1578 61.7178L21.0194 61.7816H20.8064L20.8916 61.2291H20.5083L20.3806 61.6542C20.3831 61.7986 20.3895 62.0006 20.4007 62.2066M23.5213 61.4204L23.6171 61.5266L23.9791 61.6542H24.2559L24.3623 61.7816L24.1282 62.0154L24.3623 62.3766C24.2843 62.3625 24.0983 62.3426 23.9791 62.3766C23.8599 62.4106 23.6881 62.4474 23.6171 62.4616M23.5213 61.4204L23.4255 61.6542L23.2551 61.8878M20.8916 64.1204L21.2962 64.0766L21.8072 63.9278L22.3183 63.8216L22.8506 63.6729L23.5213 63.2266M20.8916 64.1204C20.8308 63.9317 20.7635 63.727 20.7015 63.5454M23.4255 63.4604H23.9791H24.2559L24.3623 63.5454L24.7669 63.2266L24.916 63.0354L24.6818 62.9078V62.6316L24.5966 62.4616L24.1282 62.7166L23.8514 62.6316L23.7343 62.5466M23.4255 63.4604L23.5213 63.2266M23.7343 62.5466L23.6171 62.4616M23.7343 62.5466L23.6171 62.9078L23.5788 63.0354M23.7343 62.5466C22.8729 62.8795 21.0605 63.5454 20.7015 63.5454M23.5213 63.2266L23.5788 63.0354M23.6171 62.4616L23.5213 62.2704L23.3829 62.2066M23.3829 62.2066L23.319 62.0791L23.2551 61.8878M23.3829 62.2066L20.5083 62.9078M23.2551 61.8878H22.7441H22.3183H21.8072M21.8072 61.8878L21.6369 62.0791L21.1578 62.2066H20.8064H20.4007M20.4007 62.2066C20.4201 62.5664 20.4542 62.9381 20.5083 63.0354C20.5447 63.1006 20.6184 63.3022 20.7015 63.5454M23.5788 63.0354H24.2559M21.7859 43.9287V43.6554V43.5704L20.3593 43.4909M21.7859 43.9287L22.1053 43.9514M21.7859 43.9287L21.5304 43.9106M21.7859 43.9287L21.8072 44.7325M20.3593 43.4909C20.3593 43.4185 20.5012 42.2529 20.5723 41.6791M20.3593 43.4909L18.8475 43.4067M22.1053 43.9514L22.4247 43.9742V44.7391M22.1053 43.9514L22.084 44.7391M21.5304 43.9106L20.8278 43.8607M21.5304 43.9106V44.7259M21.8072 44.7325L22.084 44.7391M21.8072 44.7325L21.5304 44.7259M17.2079 43.6036V43.3154L18.8475 43.4067M17.2079 43.6036L17.0802 43.5946M17.2079 43.6036L17.6125 43.6324M18.8475 43.4067V42.9754C18.812 42.8125 18.7411 42.4738 18.7411 42.4229C18.7411 42.3718 18.6701 42.1325 18.6346 42.0191V41.6154M17.0802 43.5946L16.7395 43.5704V44.6116M17.0802 43.5946V44.6198M17.6125 43.6324V44.6325M17.6125 43.6324L18.23 43.6762M20.5723 41.6791H19.614H18.8475L18.6346 41.6154M20.5723 41.6791H20.6361L20.8278 41.5516L20.7 41.4029M18.6346 41.6154L18.5068 41.4454L18.6346 41.4029M20.7 41.4029L20.5723 41.2754L20.7639 40.9354M20.7 41.4029H20.3593H19.7844L19.3799 41.4454L18.8901 41.3604L18.6346 41.4029M18.6346 41.4029V41.2754L18.4643 40.9354L18.3807 40.8716M20.7639 40.9354L20.9981 40.8716L21.1471 40.6591V40.5104H20.7L20.5296 40.4678M20.7639 40.9354L20.6361 40.8716H20.0612H19.4863H18.5068H18.3807M20.5296 40.4678V40.2129H20.1251H19.8695M20.5296 40.4678H18.6346M18.3807 40.8716L18.1023 40.6591V40.5104L18.6346 40.4678M19.8695 40.2129V39.9154H19.5502H19.3799V40.1066V40.2129M19.8695 40.2129H19.3799M18.6346 40.4678L18.7411 40.2129H19.1669H19.3799M22.4247 44.7391H22.084M16.7395 44.6116L17.0802 44.6198M17.0802 44.6198L17.6125 44.6325M17.6125 44.6325L18.23 44.6472M18.23 43.6762V44.6472M18.23 43.6762L18.8901 43.7231M18.23 44.6472L18.8475 44.6619M18.8901 43.7231L18.8475 44.6619M18.8901 43.7231L19.4863 43.7654M18.8475 44.6619L19.4863 44.6771M19.4863 43.7654V44.6771M19.4863 43.7654L20.1463 43.8123M19.4863 44.6771L20.1463 44.6929M20.1463 43.8123V44.6929M20.1463 43.8123L20.8278 43.8607M20.1463 44.6929L20.8278 44.7091M20.8278 43.8607V44.7091M20.8278 44.7091L21.5304 44.7259M19.4863 47.5654C19.8951 47.4804 19.6567 47.2608 19.4863 47.1616C19.3038 47.0129 18.9753 47.6716 19.4863 47.5654ZM19.4863 47.5654V47.7142M19.4863 47.7142V49.1378M19.4863 47.7142H19.7631M19.4863 47.7142H19.2095M19.4863 49.1378C19.3088 49.1804 18.8475 49.0954 18.4216 48.4154V48.6704M19.4863 49.1378C19.7205 49.0246 20.2358 48.7384 20.4232 48.5004L20.3593 48.9254M19.7844 54.3229L19.4863 54.1742M19.7844 54.3229V53.0054M19.7844 54.3229L20.4232 54.6842L20.5083 55.2366M19.7844 54.3229V54.4291M19.4863 54.1742L19.1477 54.3229M19.4863 54.1742V52.8566M19.7844 53.0054V52.6654L19.4863 52.4316M19.7844 53.0054L19.4863 52.8566M20.5083 55.2366L19.7844 54.7904M20.5083 55.2366L20.8491 55.0242L20.9981 55.1304C20.9767 55.2749 20.944 55.442 20.8993 55.6191M20.5083 55.2366L20.8993 55.6191M19.7844 54.4291V54.7904M19.7844 54.4291L19.4611 54.5142L19.4543 54.7904M19.4863 52.4316L19.2307 52.6654L19.2138 53.0054M19.4863 52.4316V52.8566M19.2138 53.0054L19.4863 52.8566M19.2138 53.0054L19.1595 54.0891M19.1243 54.7904L19.1477 54.3229M19.1243 54.7904L19.0179 55.0242V55.1304M19.1243 54.7904H19.4543M19.1477 54.3229L19.1595 54.0891M19.0179 55.1304V55.2366L19.1243 55.4366M19.0179 55.1304L17.8579 55.6191M19.4543 54.7904H19.7844M19.7844 54.7904L19.8695 55.2366M19.8695 55.2366L20.8491 55.8038M19.8695 55.2366L19.6247 55.5766M19.1595 54.0891L18.592 54.5142L18.4216 55.0242H18.2939M18.2939 55.0242L17.9958 54.8754H17.7615C17.767 55.0207 17.7834 55.1958 17.814 55.3854M18.2939 55.0242L17.814 55.3854M17.814 55.3854C17.8263 55.4613 17.8408 55.5395 17.8579 55.6191M19.2307 57.4466L19.3363 56.3629M19.2307 57.4466C19.4942 57.4992 19.7251 57.4446 19.9257 57.3191M19.2307 57.4466C18.9362 57.3878 18.6963 57.2324 18.5024 57.0216M19.3363 56.3629L19.3799 55.9166M19.3363 56.3629L19.9257 57.3191M19.3363 56.3629L18.5024 57.0216M19.9257 57.3191C20.1387 57.186 20.3175 56.9732 20.465 56.7242M18.5024 57.0216C18.3698 56.8774 18.2586 56.7071 18.1661 56.5242M20.8993 55.6191C20.8839 55.6797 20.8672 55.7414 20.8491 55.8038M20.8491 55.8038C20.8035 55.9603 20.7487 56.121 20.6844 56.2778M19.6247 55.5766L20.6844 56.2778M19.6247 55.5766L19.4611 55.8038M19.3799 55.9166L19.4611 55.8038M19.3799 55.9166L19.278 55.7254M19.4611 55.8038L20.465 56.7242M19.278 55.7254L18.1661 56.5242M19.278 55.7254L19.1243 55.4366M19.1243 55.4366L17.9322 55.9166M17.8579 55.6191C17.8787 55.7168 17.9034 55.8166 17.9322 55.9166M17.9322 55.9166C17.9915 56.123 18.0684 56.3307 18.1661 56.5242M20.6844 56.2778C20.6208 56.4329 20.5479 56.5842 20.465 56.7242M19.6247 58.8066H19.3213M19.3213 58.8066H19.0179M19.3213 58.8066V60.2729M19.3213 58.8066C19.8536 58.5516 19.5821 58.332 19.3799 58.2542C19.1775 58.2825 18.8827 58.4326 19.3213 58.8066ZM19.3213 60.2729C19.0214 60.2658 18.3961 60.1071 18.2939 59.5291V59.8691M19.3213 60.2729C19.5892 60.202 20.1507 59.9796 20.2528 59.6566V60.0816" stroke="#4000AC" stroke-width="0.248865"/>
<defs>
<linearGradient id="paint0_linear_204_81" x1="48.4519" y1="0.35472" x2="47.4279" y2="95.3291" gradientUnits="userSpaceOnUse">
<stop stop-color="#FF9101"/>
<stop offset="0.466346" stop-color="#F0BE47"/>
<stop offset="0.620192" stop-color="#D7AA99"/>
<stop offset="0.706731" stop-color="#BC95F2"/>
</linearGradient>
<linearGradient id="paint1_linear_204_81" x1="48.7419" y1="59.2318" x2="48.7241" y2="96.6499" gradientUnits="userSpaceOnUse">
<stop stop-color="#5B13D3"/>
<stop offset="1" stop-color="#A767FF"/>
</linearGradient>
</defs>
</svg>
