<svg width="183" height="229" viewBox="0 0 183 229" fill="none" xmlns="http://www.w3.org/2000/svg">
<path d="M49 131C51.1846 176.019 52.9813 177.815 98 180C52.9813 182.185 51.1846 183.981 49 229C46.8154 183.981 45.0187 182.185 0 180C45.0187 177.815 46.8154 176.019 49 131ZM49 156.024C48.9105 156.595 48.8188 157.152 48.7207 157.696C47.5122 164.393 45.5733 169.38 41.9766 172.977C38.3799 176.573 33.3926 178.512 26.6963 179.721C26.1525 179.819 25.5951 179.91 25.0244 180C25.5951 180.09 26.1525 180.181 26.6963 180.279C33.3926 181.488 38.3799 183.427 41.9766 187.023C45.5732 190.62 47.5122 195.607 48.7207 202.304C48.8188 202.847 48.9105 203.404 49 203.975C49.0895 203.404 49.1812 202.847 49.2793 202.304C50.4878 195.607 52.4267 190.62 56.0234 187.023C59.6201 183.427 64.6074 181.488 71.3037 180.279C71.8472 180.181 72.4043 180.089 72.9746 180C72.4043 179.911 71.8472 179.819 71.3037 179.721C64.6074 178.512 59.6201 176.573 56.0234 172.977C52.4267 169.38 50.4878 164.393 49.2793 157.696C49.1812 157.152 49.0895 156.595 49 156.024ZM145.5 125C147.172 159.453 148.547 160.828 183 162.5C148.547 164.172 147.172 165.547 145.5 200C143.828 165.547 142.453 164.172 108 162.5C142.453 160.828 143.828 159.453 145.5 125ZM145.5 146.78C144.553 151.325 143.071 154.843 140.457 157.457C137.843 160.071 134.325 161.553 129.78 162.5C134.325 163.447 137.843 164.929 140.457 167.543C143.071 170.156 144.553 173.675 145.5 178.219C146.447 173.675 147.929 170.156 150.543 167.543C153.156 164.929 156.675 163.447 161.219 162.5C156.675 161.553 153.156 160.071 150.543 157.457C147.929 154.843 146.447 151.325 145.5 146.78ZM97.5 0C101.134 74.8781 104.122 77.8665 179 81.5C104.122 85.1335 101.134 88.1219 97.5 163C93.8665 88.1219 90.8781 85.1335 16 81.5C90.8781 77.8665 93.8665 74.8781 97.5 0ZM97.5 30.8779C97.019 35.7746 96.4485 40.1894 95.7305 44.168C93.74 55.1975 90.5832 63.1785 84.8809 68.8809C79.1785 74.5832 71.1975 77.74 60.168 79.7305C56.1894 80.4485 51.7746 81.019 46.8779 81.5C51.7747 81.981 56.1894 82.5515 60.168 83.2695C71.1975 85.26 79.1785 88.4168 84.8809 94.1191C90.5832 99.8215 93.74 107.803 95.7305 118.832C96.4484 122.81 97.019 127.225 97.5 132.121C97.981 127.225 98.5516 122.81 99.2695 118.832C101.26 107.803 104.417 99.8215 110.119 94.1191C115.822 88.4168 123.803 85.26 134.832 83.2695C138.81 82.5516 143.225 81.981 148.121 81.5C143.225 81.019 138.81 80.4484 134.832 79.7305C123.803 77.74 115.822 74.5832 110.119 68.8809C104.417 63.1785 101.26 55.1975 99.2695 44.168C98.5515 40.1894 97.981 35.7746 97.5 30.8779Z" fill="#7A36E5"/>
</svg>
