<svg width="188" height="232" viewBox="0 0 188 232" fill="none" xmlns="http://www.w3.org/2000/svg">
<path d="M100.5 69C104.134 143.878 107.122 146.866 182 150.5C107.122 154.134 104.134 157.122 100.5 232C96.8665 157.122 93.8781 154.134 19 150.5C93.8781 146.866 96.8665 143.878 100.5 69ZM100.5 99.8779C100.019 104.775 99.4485 109.189 98.7305 113.168C96.74 124.197 93.5832 132.178 87.8809 137.881C82.1785 143.583 74.1975 146.74 63.168 148.73C59.1894 149.448 54.7746 150.019 49.8779 150.5C54.7747 150.981 59.1894 151.552 63.168 152.27C74.1975 154.26 82.1785 157.417 87.8809 163.119C93.5832 168.822 96.74 176.803 98.7305 187.832C99.4484 191.81 100.019 196.225 100.5 201.121C100.981 196.225 101.552 191.81 102.27 187.832C104.26 176.803 107.417 168.822 113.119 163.119C118.822 157.417 126.803 154.26 137.832 152.27C141.81 151.552 146.225 150.981 151.121 150.5C146.225 150.019 141.81 149.448 137.832 148.73C126.803 146.74 118.822 143.583 113.119 137.881C107.417 132.178 104.26 124.197 102.27 113.168C101.552 109.189 100.981 104.775 100.5 99.8779ZM37.5 57C39.1719 91.4531 40.5469 92.8281 75 94.5C40.5469 96.1719 39.1719 97.5469 37.5 132C35.8281 97.5469 34.4531 96.1719 0 94.5C34.4531 92.8281 35.8281 91.4531 37.5 57ZM37.5 78.7803C36.553 83.3247 35.0707 86.8433 32.457 89.457C29.8433 92.0707 26.3247 93.553 21.7803 94.5C26.3247 95.447 29.8433 96.9293 32.457 99.543C35.0705 102.156 36.553 105.675 37.5 110.219C38.447 105.675 39.9295 102.156 42.543 99.543C45.1565 96.9295 48.6748 95.447 53.2188 94.5C48.6748 93.553 45.1565 92.0705 42.543 89.457C39.9293 86.8433 38.447 83.3247 37.5 78.7803ZM139 0C141.185 45.0187 142.981 46.8154 188 49C142.981 51.1846 141.185 52.9813 139 98C136.815 52.9813 135.019 51.1846 90 49C135.019 46.8154 136.815 45.0187 139 0ZM139 25.0244C138.91 25.5951 138.819 26.1525 138.721 26.6963C137.512 33.3926 135.573 38.3799 131.977 41.9766C128.38 45.5733 123.393 47.5122 116.696 48.7207C116.152 48.8188 115.595 48.9105 115.024 49C115.595 49.0895 116.152 49.1812 116.696 49.2793C123.393 50.4878 128.38 52.4267 131.977 56.0234C135.573 59.6201 137.512 64.6074 138.721 71.3037C138.819 71.8472 138.911 72.4043 139 72.9746C139.089 72.4043 139.181 71.8472 139.279 71.3037C140.488 64.6074 142.427 59.6201 146.023 56.0234C149.62 52.4267 154.607 50.4878 161.304 49.2793C161.847 49.1812 162.404 49.0895 162.975 49C162.404 48.9105 161.847 48.8188 161.304 48.7207C154.607 47.5122 149.62 45.5732 146.023 41.9766C142.427 38.3799 140.488 33.3926 139.279 26.6963C139.181 26.1525 139.09 25.5951 139 25.0244Z" fill="#7A36E5"/>
</svg>
