<svg width="22" height="22" viewBox="0 0 22 22" fill="none" xmlns="http://www.w3.org/2000/svg">
<path d="M2.28677 10.0044C1.85377 10.0056 1.42995 10.1294 1.06436 10.3614C0.698773 10.5935 0.406347 10.9242 0.220916 11.3155C0.0354852 11.7068 -0.0353719 12.1426 0.0165424 12.5725C0.0684567 13.0024 0.241021 13.4088 0.51427 13.7447L6.33931 20.8804C6.547 21.1383 6.81323 21.3429 7.11587 21.4772C7.41852 21.6116 7.74886 21.6717 8.07944 21.6528C8.78647 21.6148 9.4248 21.2366 9.83177 20.6147L21.9319 1.12754C21.9339 1.12428 21.9359 1.12106 21.938 1.11789C22.0516 0.943566 22.0148 0.598107 21.7804 0.381085C21.716 0.321489 21.6401 0.275702 21.5574 0.246545C21.4747 0.217387 21.3868 0.205477 21.2993 0.211547C21.2118 0.217618 21.1264 0.24154 21.0485 0.281842C20.9706 0.322143 20.9018 0.377969 20.8462 0.445883C20.8419 0.451223 20.8374 0.456482 20.8328 0.461661L8.62971 14.2493C8.58328 14.3018 8.52688 14.3445 8.4638 14.375C8.40072 14.4055 8.3322 14.4231 8.26224 14.4269C8.19228 14.4307 8.12226 14.4206 8.05626 14.3971C7.99026 14.3736 7.92958 14.3372 7.87776 14.29L3.82778 10.6045C3.40716 10.2189 2.85739 10.0048 2.28677 10.0044Z" fill="#F0BE47"/>
</svg>
