<svg width="17" height="22" viewBox="0 0 17 22" fill="none" xmlns="http://www.w3.org/2000/svg">
<path d="M8.47755 0C3.80295 0 0 3.80346 0 8.47856C0 11.8191 1.39857 15.1982 4.04452 18.2506C6.02078 20.5305 7.9793 21.8221 8.06179 21.876C8.1854 21.9569 8.32992 22 8.47765 22C8.62538 22 8.7699 21.9569 8.89351 21.876C8.97589 21.8221 10.9347 20.5305 12.911 18.2507C15.5571 15.1982 16.9558 11.8191 16.9558 8.47856C16.9557 3.80346 13.1523 0 8.47755 0ZM8.47755 20.3067C6.91837 19.1449 1.51996 14.6733 1.51996 8.47856C1.51996 4.64156 4.64106 1.51996 8.47755 1.51996C12.3143 1.51996 15.4357 4.64156 15.4357 8.47856C15.4357 14.6733 10.0368 19.1449 8.47755 20.3067Z" fill="#F0BE47"/>
<path d="M8.47808 5.11205C6.62271 5.11205 5.11328 6.62157 5.11328 8.47714C5.11328 10.3322 6.62271 11.8414 8.47808 11.8414C10.3334 11.8414 11.8428 10.3322 11.8428 8.47714C11.8428 6.62167 10.3333 5.11205 8.47808 5.11205ZM8.47808 10.3215C7.46081 10.3215 6.63324 9.4941 6.63324 8.47714C6.63324 7.45968 7.46081 6.63201 8.47808 6.63201C9.49524 6.63201 10.3228 7.45968 10.3228 8.47714C10.3228 9.4941 9.49524 10.3215 8.47808 10.3215Z" fill="#F0BE47"/>
</svg>
