<svg width="22" height="22" viewBox="0 0 22 22" fill="none" xmlns="http://www.w3.org/2000/svg">
<path d="M11 0C4.93459 0 0 4.93451 0 10.9998C0 17.0654 4.93459 22 11 22C11.2179 22 11.4269 21.9134 11.581 21.7593C11.7351 21.6053 11.8217 21.3963 11.8217 21.1783C11.8217 20.9604 11.7351 20.7514 11.581 20.5974C11.4269 20.4433 11.2179 20.3567 11 20.3567C5.84072 20.3567 1.64333 16.1593 1.64333 10.9998C1.64333 5.84063 5.84072 1.6433 11 1.6433C16.1593 1.6433 20.3567 5.84063 20.3567 10.9998V13.5448C20.3567 14.4948 19.5836 15.2677 18.6335 15.2677C17.6834 15.2677 16.9105 14.4948 16.9105 13.5448V10.9998C16.9105 7.74062 14.259 5.08909 10.9999 5.08909C7.74062 5.08909 5.08906 7.74062 5.08906 10.9998C5.08906 14.2593 7.74062 16.911 10.9999 16.911C12.8088 16.911 14.4295 16.0934 15.5146 14.8092C16.0154 16.0404 17.2244 16.911 18.6335 16.911C20.4897 16.911 22 15.4009 22 13.5448V10.9998C22 4.93451 17.0654 0 11 0ZM11 15.2677C8.64686 15.2677 6.7325 13.3532 6.7325 10.9998C6.7325 8.64673 8.64697 6.7324 11 6.7324C13.353 6.7324 15.2673 8.64673 15.2673 10.9998C15.2673 13.3532 13.353 15.2677 11 15.2677Z" fill="#F0BE47"/>
</svg>
