<svg width="22" height="22" viewBox="0 0 22 22" fill="none" xmlns="http://www.w3.org/2000/svg">
<path d="M10.9999 0C4.93455 0 0 4.93444 0 10.9997C0 17.0653 4.93455 22 10.9999 22C17.0651 22 21.9996 17.0652 21.9996 10.9997C21.9996 4.93444 17.0651 0 10.9999 0ZM10.9999 20.4232C5.80401 20.4232 1.57683 16.1958 1.57683 10.9997C1.57683 5.80391 5.80401 1.57683 10.9999 1.57683C16.1957 1.57683 20.4227 5.80391 20.4227 10.9997C20.4227 16.1958 16.1957 20.4232 10.9999 20.4232Z" fill="#F0BE47"/>
<path d="M16.6558 10.8156H11.4865V5.16508C11.4865 4.95598 11.4034 4.75544 11.2556 4.60759C11.1077 4.45973 10.9072 4.37666 10.6981 4.37666C10.489 4.37666 10.2884 4.45973 10.1406 4.60759C9.99273 4.75544 9.90967 4.95598 9.90967 5.16508V11.604C9.90967 11.8131 9.99273 12.0137 10.1406 12.1615C10.2884 12.3094 10.489 12.3925 10.6981 12.3925H16.6558C16.8649 12.3925 17.0654 12.3094 17.2133 12.1615C17.3611 12.0137 17.4442 11.8131 17.4442 11.604C17.4442 11.3949 17.3611 11.1944 17.2133 11.0465C17.0654 10.8987 16.8649 10.8156 16.6558 10.8156Z" fill="#F0BE47"/>
</svg>
