<svg width="35" height="22" viewBox="0 0 35 22" fill="none" xmlns="http://www.w3.org/2000/svg">
<path d="M18.2705 21.9912L17.8125 22C18.0776 22 18.3238 21.9893 18.5527 21.9727C18.4614 21.9793 18.3675 21.9871 18.2705 21.9912ZM19.3701 0.400391L19.5566 0.405273C19.9731 0.430825 20.2532 0.543101 20.4492 0.694336C20.6742 0.867959 20.8336 1.12787 20.9395 1.48926C21.1601 2.24257 21.1112 3.27156 21.084 4.43164C21.0405 6.01854 21.0367 7.60629 21.0732 9.19336L21.0938 10.0508L21.7373 9.48438C22.6063 8.72065 23.5869 7.29842 24.4346 5.85547C25.2863 4.40553 26.0336 2.88324 26.4316 1.87305C26.8326 0.912601 27.6033 0.400391 28.6514 0.400391H32.2607C33.04 0.400391 33.542 0.638467 33.8467 1.04102V1.04004C34.0404 1.29776 34.2654 1.78991 34.0303 2.61816L34.0283 2.62305L34.0234 2.64453L34.0107 2.6875L34.0098 2.69434C33.8869 3.17462 33.5918 3.85771 33.1826 4.65234C32.7693 5.45483 32.2543 6.34508 31.7246 7.21191C30.6638 8.94776 29.5557 10.5673 29.1025 11.166L28.6172 11.8076H28.8906L28.9355 11.8789C28.9973 11.9761 29.135 12.1262 29.2812 12.2822C29.4414 12.453 29.6547 12.6742 29.9004 12.9297C30.394 13.443 31.0293 14.1063 31.6797 14.833C32.3306 15.5604 32.9915 16.3464 33.5381 17.1025C34.0865 17.8613 34.4986 18.5635 34.6816 19.1318H34.6826C34.9527 20.0528 34.7024 20.5984 34.4854 20.8887L34.3887 21.0059C34.1324 21.2858 33.6549 21.5995 32.7686 21.5996H29.1592C28.313 21.5996 27.7611 21.3 27.1055 20.6748C26.7678 20.3528 26.4135 19.9543 25.9795 19.4688C25.6565 19.1074 25.2942 18.7038 24.874 18.2627L24.4346 17.8096L24.4287 17.8047L23.8711 17.2783C22.6499 16.1625 21.9744 15.806 21.6025 15.7012L21.123 15.5664L21.0947 16.0635C21.071 16.4724 21.0754 17.1269 21.0811 17.791C21.0297 17.96 21.0186 18.1402 21.0205 18.2988C21.0228 18.4935 21.0436 18.7146 21.0605 18.9219C21.0962 19.3582 21.1192 19.7861 21.0215 20.1748C20.9293 20.5415 20.7283 20.8776 20.2803 21.1348C19.8136 21.4025 19.0513 21.5996 17.8125 21.5996C12.4378 21.5995 8.08923 17.5349 5.05078 12.9717C3.5397 10.7022 2.37233 8.33795 1.58398 6.35742C1.18997 5.36755 0.892158 4.47721 0.693359 3.74609C0.492111 3.00588 0.400443 2.45581 0.400391 2.13574C0.400391 1.55852 0.586113 1.14048 0.889648 0.863281C1.19808 0.58175 1.67605 0.401367 2.33789 0.401367H5.94727C6.69281 0.401367 7.15665 0.627137 7.48145 0.944336C7.82009 1.27507 8.04252 1.73833 8.2334 2.2793V2.28027C9.64691 6.43948 11.6538 9.72376 12.8193 10.9736L13.5801 11.7891L13.5117 10.6758C13.3699 8.38677 13.5093 7.04802 13.5205 5.99609C13.526 5.47477 13.4988 5.01406 13.3721 4.56641C13.2596 4.16944 13.0743 3.80053 12.79 3.41406L12.6621 3.24707L12.543 3.08887C11.9867 2.30959 12.0211 1.66537 12.2578 1.22656C12.5264 0.728722 13.1012 0.400391 13.6973 0.400391H19.3701ZM28.7188 21.9717C28.8028 21.9825 28.8892 21.9918 28.9785 21.9961C28.8892 21.9918 28.8028 21.9825 28.7188 21.9717ZM16.3877 21.9053C16.6857 21.9441 16.987 21.9729 17.292 21.9873C16.987 21.9729 16.6857 21.9441 16.3877 21.9053ZM13.8145 2.44824C14.1891 2.92137 14.744 3.66924 14.8867 5.14941L14.9092 5.45508L14.9102 10.8633L14.9072 11.1582C14.8973 11.4806 14.8597 11.8729 14.7197 12.2139C14.6296 12.4333 14.5036 12.6132 14.3301 12.7393C14.1595 12.8631 13.9131 12.957 13.543 12.957C13.1215 12.9569 12.578 12.6663 11.9395 12.0303C11.316 11.4093 10.6673 10.5242 10.0361 9.49121C8.9328 7.68551 7.91265 5.47411 7.19922 3.54883L6.91309 2.74316L6.91113 2.73926L6.82812 2.50977C6.80217 2.44073 6.77777 2.37882 6.75391 2.32422C6.708 2.2192 6.6506 2.10591 6.56543 2.01367C6.40344 1.83829 6.20333 1.80668 6.06348 1.80176H3.15723C2.85471 1.80176 2.62778 1.80209 2.47168 1.80273C2.33008 1.80332 2.21937 1.80374 2.17676 1.80762L1.78223 1.84375L1.81445 2.23926C1.87843 3.01232 2.32298 4.5143 3.07129 6.30078C3.82605 8.10263 4.90822 10.2369 6.27832 12.2842C8.9987 16.3491 12.9446 20.2001 17.8125 20.2002C18.8066 20.2002 19.2393 20.0968 19.4385 20.0186L19.7227 19.9062L19.6904 19.6035C19.6897 19.5971 19.6862 19.5842 19.6836 19.5684V17.8662L19.6738 17.0645C19.6718 16.8092 19.6725 16.5654 19.6807 16.332C19.697 15.8657 19.7439 15.4768 19.8447 15.166C19.9432 14.8628 20.0876 14.6517 20.2949 14.5098C20.5067 14.3649 20.8288 14.2617 21.3359 14.2617C22.2475 14.2619 23.3222 14.8378 25.0625 16.4756L25.4199 16.8174C26.4949 17.9022 27.1557 18.6954 27.6748 19.2568C27.928 19.5306 28.1582 19.7615 28.3828 19.9229C28.6144 20.0892 28.8672 20.2012 29.1592 20.2012L32.2773 20.2031C32.7657 20.204 32.9127 20.2031 33.0537 20.1807L33.4717 20.1143L33.3818 19.7002C33.2868 19.2623 32.971 18.7189 32.5898 18.1729C32.1977 17.6111 31.6976 16.9926 31.1816 16.3926C30.1493 15.192 29.0304 14.0406 28.5293 13.5234H28.5303C28.3681 13.3553 28.2337 13.2141 28.1309 13.1035L27.9199 12.8682C27.5078 12.3278 27.4163 11.9076 27.4463 11.5625C27.4782 11.1955 27.6511 10.8516 27.8867 10.4668L27.8857 10.4658L27.9209 10.417C28.4712 9.64741 29.5631 8.03233 30.5596 6.41504C31.0579 5.60627 31.5355 4.79166 31.9102 4.08008C32.2777 3.38194 32.5687 2.74202 32.6641 2.29688L32.6631 2.2959L32.666 2.28711L32.7744 1.7998H28.6514C28.457 1.7998 28.245 1.82188 28.0615 1.94727C27.9239 2.04154 27.8395 2.16949 27.7812 2.28711L27.7305 2.39941L27.7295 2.40332C27.6548 2.5878 25.814 7.06688 23.1738 10.0479C21.9299 11.3019 21.0424 11.5039 20.5439 11.3467C20.0629 11.1948 19.6885 10.6162 19.6885 9.66113L19.6875 9.64844C19.6658 8.93157 19.6628 7.08173 19.665 5.39941C19.6661 4.56022 19.669 3.76539 19.6709 3.17871C19.6719 2.88572 19.6723 2.64436 19.6729 2.47559C19.6731 2.39119 19.6738 2.32421 19.6738 2.27832V2.19922C19.6738 2.1977 19.673 2.19478 19.6729 2.19141C19.6728 2.18954 19.673 2.18512 19.6729 2.18262C19.6726 2.17828 19.6717 2.1668 19.6709 2.15918L19.6289 1.80664L19.2734 1.80566L14.1289 1.7998L13.3008 1.79883L13.8145 2.44824ZM19.4492 19.9883C19.4024 20.0093 19.3465 20.0242 19.2793 20.0225C19.3378 20.0172 19.3978 20.0044 19.4492 19.9883ZM25.165 19.166C25.4058 19.4302 25.6287 19.6757 25.835 19.9062C25.6287 19.6757 25.4058 19.4302 25.165 19.166ZM28.7559 19.6865L28.8906 19.751C28.8145 19.722 28.7389 19.6787 28.6592 19.625C28.6921 19.6472 28.7237 19.6685 28.7559 19.6865ZM19.293 19.6465C19.2297 19.6714 19.109 19.707 18.8906 19.7383C19.1088 19.7068 19.2297 19.6714 19.293 19.6465ZM16.6357 19.7188C16.6016 19.7141 16.5673 19.711 16.5332 19.7061C16.5673 19.711 16.6016 19.7141 16.6357 19.7188ZM19.2852 19.5938C19.2847 19.6691 19.2845 19.6487 19.2861 19.6338C19.2859 19.6358 19.2853 19.6378 19.2852 19.6396V19.5938ZM32.916 19.5469C32.9262 19.5736 32.9367 19.5993 32.9453 19.625C32.9367 19.5993 32.9262 19.5736 32.916 19.5469ZM15.7754 19.5596C15.7543 19.5546 15.7329 19.551 15.7119 19.5459C15.7329 19.551 15.7543 19.5546 15.7754 19.5596ZM15.3633 19.4541C15.3457 19.4491 15.3281 19.4445 15.3105 19.4395C15.3281 19.4445 15.3457 19.4491 15.3633 19.4541ZM14.999 19.3428C14.9662 19.3321 14.9331 19.3226 14.9004 19.3115C14.9331 19.3226 14.9662 19.3321 14.999 19.3428ZM14.6523 19.2227C14.6006 19.2037 14.5485 19.1858 14.4971 19.166C14.5485 19.1858 14.6006 19.2037 14.6523 19.2227ZM27.9688 18.9854C28.0259 19.0472 28.0809 19.1054 28.1338 19.1602C27.8483 18.8642 27.5045 18.4655 27.0518 17.9639L27.9688 18.9854ZM32.2842 18.4365C32.454 18.6815 32.601 18.9139 32.7178 19.127C32.601 18.9139 32.4539 18.6815 32.2842 18.4365ZM14.2383 19.0596C14.1991 19.0432 14.1592 19.0285 14.1201 19.0117C14.1592 19.0285 14.1991 19.0432 14.2383 19.0596ZM24.1504 18.0918C24.4348 18.3788 24.6937 18.653 24.9336 18.9121C24.8216 18.7911 24.7061 18.6662 24.585 18.5391L24.1504 18.0918ZM13.8193 18.875C13.7941 18.8632 13.7683 18.8528 13.7432 18.8408C13.7683 18.8528 13.7941 18.8632 13.8193 18.875ZM13.1318 18.5254C13.0752 18.4942 13.0181 18.4638 12.9619 18.4316C13.0181 18.4638 13.0752 18.4942 13.1318 18.5254ZM21.4297 18.4932C21.4266 18.4421 21.4242 18.3926 21.4229 18.3447C21.4242 18.3926 21.4266 18.4421 21.4297 18.4932ZM12.8154 18.3447C12.7418 18.3012 12.6678 18.258 12.5947 18.2129C12.6678 18.258 12.7418 18.3012 12.8154 18.3447ZM32.002 18.0449C32.0726 18.1397 32.1408 18.2332 32.2061 18.3252C32.1408 18.2332 32.0726 18.1398 32.002 18.0449ZM21.4512 17.9424C21.4321 18.0192 21.4243 18.1072 21.4219 18.2041C21.4243 18.1072 21.4321 18.0192 21.4512 17.9424ZM12.4043 18.0918C12.3503 18.0571 12.2959 18.0229 12.2422 17.9873C12.2959 18.0229 12.3503 18.0571 12.4043 18.0918ZM31.875 17.874C31.8906 17.8944 31.9055 17.9152 31.9209 17.9355C31.824 17.8076 31.7235 17.6771 31.6191 17.5459L31.875 17.874ZM19.3008 15.9678C19.2574 16.5356 19.2778 17.1843 19.2842 17.8701C19.279 17.3218 19.2645 16.7969 19.2812 16.3184L19.3008 15.9678ZM12.04 17.8496C11.9831 17.8104 11.9257 17.7716 11.8691 17.7314C11.9257 17.7716 11.9831 17.8104 12.04 17.8496ZM11.6572 17.5771C11.6142 17.5454 11.5711 17.5137 11.5283 17.4814C11.5711 17.5137 11.6142 17.5454 11.6572 17.5771ZM11.292 17.2988C11.2548 17.2697 11.2176 17.2405 11.1807 17.2109C11.2176 17.2405 11.2548 17.2697 11.292 17.2988ZM11 17.0645C10.9481 17.0217 10.8962 16.979 10.8447 16.9355C10.8962 16.979 10.9481 17.0217 11 17.0645ZM31.0283 16.8311C31.0563 16.864 31.0845 16.8967 31.1123 16.9297C31.0845 16.8967 31.0563 16.864 31.0283 16.8311ZM10.623 16.7451C10.5852 16.7121 10.5474 16.6789 10.5098 16.6455C10.5474 16.6789 10.5852 16.7121 10.623 16.7451ZM25.1025 15.9678C25.2939 16.1435 25.4933 16.3309 25.6992 16.5312C25.4931 16.3308 25.294 16.1436 25.1025 15.9678ZM10.3369 16.4902C10.274 16.4329 10.2117 16.3748 10.1494 16.3164C10.2117 16.3748 10.274 16.4329 10.3369 16.4902ZM30.2725 15.9678C30.3976 16.1073 30.5231 16.2494 30.6484 16.3926C30.5231 16.2494 30.3976 16.1073 30.2725 15.9678ZM10.0381 16.2109C9.96406 16.1403 9.89049 16.0691 9.81738 15.9971C9.89049 16.0691 9.96407 16.1403 10.0381 16.2109ZM32.8418 15.5664C32.9922 15.7466 33.1399 15.9286 33.2842 16.1104C33.1399 15.9286 32.9922 15.7466 32.8418 15.5664ZM9.65527 15.835C9.61703 15.7964 9.579 15.7576 9.54102 15.7188C9.579 15.7576 9.61703 15.7964 9.65527 15.835ZM19.4229 15.1826C19.4103 15.2301 19.3993 15.2787 19.3887 15.3281L19.335 15.6377C19.3493 15.5308 19.3663 15.4275 19.3877 15.3281L19.4229 15.1826ZM9.36328 15.5352C9.31026 15.4795 9.25758 15.4235 9.20508 15.3672C9.25758 15.4235 9.31026 15.4795 9.36328 15.5352ZM9.05957 15.21C9.00828 15.1539 8.95703 15.0977 8.90625 15.041C8.95703 15.0977 9.00829 15.1539 9.05957 15.21ZM4.17578 12.3525C4.70372 13.198 5.27859 14.039 5.89941 14.8516C5.2786 14.039 4.70371 13.1981 4.17578 12.3525ZM8.74023 14.8535C8.6849 14.7904 8.62991 14.7269 8.5752 14.6631C8.62991 14.7269 8.6849 14.7904 8.74023 14.8535ZM19.7773 14.4463C19.7498 14.4798 19.7239 14.5148 19.6992 14.5508L19.6289 14.6631C19.6509 14.6246 19.6735 14.5868 19.6982 14.5508L19.7773 14.4463ZM8.45898 14.5264C8.40532 14.4628 8.35188 14.3991 8.29883 14.335C8.35188 14.3991 8.40532 14.4628 8.45898 14.5264ZM19.9629 14.2598L19.8652 14.3496C19.9094 14.305 19.957 14.2636 20.0078 14.2246C19.9927 14.2362 19.9774 14.2476 19.9629 14.2598ZM8.15039 14.1543C8.1056 14.0991 8.06094 14.0438 8.0166 13.9883C8.06094 14.0438 8.1056 14.0991 8.15039 14.1543ZM20.7686 13.9082C20.699 13.9208 20.6326 13.9356 20.5693 13.9531C20.581 13.9499 20.5926 13.9464 20.6045 13.9434L20.7686 13.9082ZM7.90039 13.8408C7.83671 13.7598 7.77366 13.6784 7.71094 13.5967C7.77366 13.6784 7.83671 13.7598 7.90039 13.8408ZM7.61719 13.4746C7.5722 13.4153 7.52789 13.3555 7.4834 13.2959C7.52788 13.3555 7.5722 13.4153 7.61719 13.4746ZM13.2363 13.3223C13.3024 13.3365 13.3677 13.3473 13.4326 13.3525L13.3203 13.3389C13.2924 13.3344 13.2645 13.3283 13.2363 13.3223ZM7.06934 12.7256C6.96579 12.5794 6.86519 12.4316 6.76465 12.2842C6.86519 12.4316 6.96579 12.5794 7.06934 12.7256ZM15.0303 12.4902C15.0066 12.5383 14.981 12.585 14.9531 12.6309C14.981 12.585 15.0066 12.5383 15.0303 12.4902ZM6.53906 11.9521C6.45049 11.8186 6.36441 11.6839 6.27832 11.5498C6.36441 11.6839 6.45049 11.8186 6.53906 11.9521ZM20.5557 11.7627C20.5698 11.7657 20.5843 11.767 20.5986 11.7695C20.5869 11.7675 20.575 11.767 20.5635 11.7646L20.5557 11.7627ZM6.05664 11.2031C5.96404 11.0548 5.87468 10.9053 5.78516 10.7568C5.87468 10.9053 5.96405 11.0548 6.05664 11.2031ZM27.3721 10.5557C27.3316 10.6303 27.2941 10.7064 27.2588 10.7832C27.2702 10.7585 27.281 10.7335 27.293 10.709L27.3721 10.5557ZM5.59766 10.4443C5.50389 10.285 5.41242 10.1256 5.32227 9.9668C5.41242 10.1256 5.5039 10.285 5.59766 10.4443ZM12.0039 9.24121C12.2686 9.64085 12.5188 9.98591 12.7461 10.2705C12.5188 9.98589 12.2686 9.64084 12.0039 9.24121ZM19.3057 10.0244C19.3065 10.0323 19.3078 10.04 19.3086 10.0479C19.3082 10.0439 19.3071 10.0401 19.3066 10.0361L19.3057 10.0244ZM5.16797 9.69434C5.0701 9.51835 4.97517 9.34258 4.88184 9.16797C4.97517 9.34258 5.07011 9.51835 5.16797 9.69434ZM19.2656 5.4082C19.2634 7.08547 19.2661 8.93786 19.2881 9.66113C19.2661 8.93661 19.2634 7.07891 19.2656 5.39941V5.4082ZM25.1309 8.13086C24.8235 8.59235 24.4993 9.0515 24.1562 9.49121C24.4993 9.0515 24.8235 8.59235 25.1309 8.13086ZM30.2188 6.20508C29.723 7.00986 29.2039 7.81436 28.7402 8.5127L28.0957 9.46777C28.4837 8.90168 28.967 8.17654 29.4668 7.39844L30.2188 6.20508ZM21.4531 7.91699C21.4572 8.33944 21.4639 8.76218 21.4736 9.18457C21.57 9.09985 21.6678 9.00532 21.7676 8.90332C21.6678 9.00535 21.5701 9.09983 21.4736 9.18457C21.4639 8.76211 21.4572 8.33957 21.4531 7.91699ZM13.0586 7.8623C13.05 8.21374 13.0471 8.59949 13.0518 9.02637C13.0496 8.83077 13.0476 8.64383 13.0488 8.46484L13.0586 7.8623ZM4.7666 8.9541C4.69708 8.82193 4.63034 8.68956 4.56348 8.55859C4.63034 8.68956 4.69709 8.82193 4.7666 8.9541ZM32.4619 6.76367C32.2016 7.20285 31.9327 7.6422 31.666 8.06738L31.2686 8.69336C31.5302 8.28576 31.7991 7.85666 32.0654 7.4209L32.4619 6.76367ZM22.085 8.55664C22.0441 8.60369 22.0024 8.64864 21.9619 8.69336C22.0024 8.64864 22.0441 8.60369 22.085 8.55664ZM22.4102 8.16309C22.351 8.23796 22.2911 8.31011 22.2324 8.38086C22.2911 8.31011 22.351 8.23796 22.4102 8.16309ZM4.37207 8.18164C4.31914 8.07493 4.26888 7.9679 4.21777 7.8623C4.26887 7.9679 4.31914 8.07493 4.37207 8.18164ZM22.749 7.71777C22.6786 7.81416 22.6072 7.90749 22.5371 7.99902C22.6072 7.90749 22.6786 7.81416 22.749 7.71777ZM23.0674 7.26758C22.9905 7.37946 22.9128 7.48859 22.8359 7.5957C22.9128 7.48859 22.9905 7.37945 23.0674 7.26758ZM4.01758 7.44531C3.96486 7.33273 3.91479 7.22026 3.86426 7.10938C3.91478 7.22026 3.96487 7.33273 4.01758 7.44531ZM23.4248 6.73145C23.3438 6.85671 23.2613 6.97942 23.1797 7.10059C23.2613 6.97942 23.3438 6.85671 23.4248 6.73145ZM3.70703 6.76367C3.62072 6.56867 3.53816 6.37673 3.45898 6.18848C3.53815 6.37673 3.62073 6.56867 3.70703 6.76367ZM23.7568 6.20508C23.664 6.356 23.5689 6.50442 23.4746 6.65137C23.5689 6.50443 23.664 6.35599 23.7568 6.20508ZM21.459 5.62793C21.4544 5.93846 21.4517 6.24901 21.4502 6.55957C21.4517 6.249 21.4544 5.93844 21.459 5.62793ZM3.42383 6.10645C3.35244 5.9354 3.28507 5.76705 3.21973 5.60254C3.28506 5.76705 3.35245 5.9354 3.42383 6.10645ZM24.002 5.79883C23.9493 5.88744 23.8961 5.97566 23.8428 6.06348C23.8961 5.97567 23.9493 5.88744 24.002 5.79883ZM27.0049 4.90527C26.8724 5.16518 26.7286 5.43849 26.5752 5.72168C26.7286 5.43849 26.8724 5.16518 27.0049 4.90527ZM12.668 3.94824C12.9343 4.38811 13.0536 4.80257 13.0986 5.29004L13.1182 5.62695C13.1006 5.04412 13.0114 4.57842 12.751 4.09473L12.668 3.94824ZM24.3789 5.14941C24.3139 5.26441 24.2482 5.37943 24.1816 5.49414C24.2482 5.37943 24.3139 5.26441 24.3789 5.14941ZM3.16699 5.4707C3.10552 5.31377 3.04795 5.15975 2.99219 5.00977C3.04795 5.15975 3.10552 5.31377 3.16699 5.4707ZM24.6689 4.62598C24.5951 4.76188 24.5199 4.89846 24.4434 5.03516C24.5199 4.89846 24.5951 4.76188 24.6689 4.62598ZM34.3486 2.96973C34.2387 3.33096 34.0601 3.76452 33.833 4.24219L33.5381 4.83496C33.8524 4.22451 34.1102 3.66203 34.2744 3.19531L34.3486 2.96973ZM2.92676 4.83496C2.88201 4.71195 2.8405 4.59117 2.7998 4.47363C2.84049 4.59117 2.88201 4.71195 2.92676 4.83496ZM14.665 2.98828C14.9022 3.41782 15.1223 3.97915 15.2373 4.73535C15.137 4.07608 14.9567 3.56496 14.7549 3.16016L14.665 2.98828ZM24.96 4.0791C24.885 4.22292 24.8083 4.36839 24.7295 4.51465C24.8083 4.3684 24.885 4.22292 24.96 4.0791ZM2.73438 4.28711C2.68368 4.13643 2.6373 3.99062 2.59375 3.85059C2.6373 3.99062 2.68369 4.13643 2.73438 4.28711ZM6.39355 2.49902C6.43322 2.59158 6.47809 2.71286 6.53418 2.87207C6.66987 3.27164 6.82393 3.68839 6.98926 4.11719C6.82393 3.68839 6.66987 3.27164 6.53418 2.87207C6.47816 2.71305 6.43317 2.59154 6.39355 2.49902ZM25.4238 3.15527C25.2933 3.42568 25.1526 3.70812 25.0029 3.99707C25.1526 3.70813 25.2933 3.42567 25.4238 3.15527ZM2.25195 2.50488C2.30675 2.83131 2.41027 3.25202 2.56055 3.74609C2.40951 3.24953 2.30557 2.82712 2.25098 2.5L2.25195 2.50488ZM21.5088 3.19629L21.5039 3.60547C21.5091 3.3301 21.5105 3.05983 21.5039 2.79883L21.5088 3.19629ZM12.1465 3.2168C12.2075 3.30893 12.2747 3.40234 12.3496 3.49609C12.2747 3.40233 12.2075 3.30894 12.1465 3.2168ZM11.9385 2.85449C11.9859 2.95174 12.0398 3.05076 12.1025 3.15039C12.0398 3.05074 11.9859 2.95176 11.9385 2.85449ZM25.9014 2.1123C25.8025 2.34423 25.6891 2.59555 25.5645 2.86133C25.6148 2.75401 25.6636 2.6492 25.71 2.54688L25.9014 2.1123ZM11.8555 2.66895C11.8358 2.61945 11.8186 2.57018 11.8027 2.52148C11.8186 2.57017 11.8358 2.61946 11.8555 2.66895ZM14.2988 2.4209L14.4805 2.68164C14.3572 2.49336 14.2354 2.33588 14.1279 2.2002C14.1817 2.26804 14.2396 2.34098 14.2988 2.4209ZM34.5273 2.08691C34.5217 2.18696 34.5105 2.29211 34.4912 2.40234L34.4561 2.57227C34.483 2.45676 34.5014 2.34638 34.5137 2.24121L34.5273 2.08691ZM0.00488281 2.28613C0.009741 2.36654 0.0201161 2.45408 0.0322266 2.54883C0.0281634 2.51704 0.0227801 2.48626 0.0195312 2.45605L0.00488281 2.28613ZM6.33496 2.37891C6.34643 2.39955 6.35813 2.42249 6.37012 2.44824C6.35814 2.42248 6.34642 2.39956 6.33496 2.37891ZM28.1973 2.36816C28.2055 2.35678 28.2138 2.34602 28.2227 2.33594C28.2138 2.34602 28.2055 2.35678 28.1973 2.36816ZM6.28223 2.30078C6.29333 2.31426 6.30443 2.32923 6.31543 2.34668C6.30444 2.32921 6.29332 2.31428 6.28223 2.30078ZM28.2422 2.31445C28.2534 2.30352 28.2658 2.29437 28.2783 2.28516C28.2658 2.29436 28.2534 2.30352 28.2422 2.31445ZM6.23145 2.25293C6.24098 2.25974 6.25067 2.26657 6.25977 2.27539C6.25068 2.26654 6.24098 2.25976 6.23145 2.25293ZM28.2969 2.27148C28.3085 2.2641 28.3211 2.2581 28.334 2.25195C28.3211 2.25809 28.3085 2.26411 28.2969 2.27148ZM28.3652 2.23828C28.3764 2.23413 28.3882 2.23096 28.4004 2.22754C28.3882 2.23095 28.3764 2.23414 28.3652 2.23828ZM6.1709 2.22266C6.18015 2.22566 6.18958 2.2274 6.19824 2.23145C6.18958 2.22739 6.18016 2.22567 6.1709 2.22266ZM34.5137 1.66895C34.5192 1.71166 34.5233 1.75562 34.5264 1.80078L34.5312 1.94043C34.5308 1.84534 34.5248 1.7552 34.5137 1.66992V1.66895ZM21.2734 1.22461C21.3019 1.30462 21.3264 1.38782 21.3486 1.47363C21.3402 1.44102 21.3316 1.40875 21.3223 1.37695L21.2734 1.22461ZM34.166 0.799805C34.1993 0.84408 34.2327 0.892424 34.2646 0.945312L34.3564 1.11816C34.2991 0.994264 34.2327 0.88857 34.166 0.799805ZM20.9062 0.577148C20.9705 0.649871 21.0284 0.728341 21.0801 0.8125L21.1523 0.942383C21.1065 0.852975 21.0548 0.768936 20.9971 0.69043L20.9062 0.577148ZM12.1641 0.672852C12.191 0.643191 12.2183 0.613883 12.2471 0.585938C12.2184 0.61388 12.191 0.643194 12.1641 0.672852ZM33.7197 0.378906C33.8226 0.447532 33.9175 0.525153 34.0039 0.612305L34.0879 0.703125C34.0071 0.609827 33.9177 0.526007 33.8203 0.451172L33.7197 0.378906ZM7.01562 0.180664C7.12728 0.223562 7.22991 0.275921 7.32715 0.332031C7.29458 0.313252 7.26264 0.292748 7.22852 0.275391L7.01562 0.180664ZM32.5742 0.0126953C32.877 0.0378222 33.1482 0.100116 33.3867 0.200195L33.5029 0.253906C33.3132 0.160112 33.1008 0.092639 32.8662 0.0507812L32.5742 0.0126953ZM6.24902 0.0136719C6.34572 0.0215256 6.43847 0.0325943 6.52734 0.0478516L6.78223 0.104492C6.70094 0.0823791 6.61599 0.0640428 6.52734 0.0488281L6.24902 0.0136719ZM19.7793 0.0253906C19.8431 0.0337114 19.9046 0.0433626 19.9639 0.0556641L20.1338 0.0986328C20.079 0.0825215 20.0221 0.0679342 19.9629 0.0556641L19.7793 0.0253906ZM13.5605 0.00488281C13.404 0.0154621 13.2491 0.0439249 13.0996 0.0888672C13.2055 0.0570422 13.3139 0.03339 13.4238 0.0185547L13.5605 0.00488281ZM21.4873 19.6875C21.4854 19.7367 21.4815 19.7858 21.4775 19.835C21.4815 19.7858 21.4854 19.7366 21.4873 19.6875ZM32.9551 19.6553C32.9694 19.7005 32.9822 19.7436 32.9912 19.7852C32.9822 19.7436 32.9694 19.7005 32.9551 19.6553ZM7.4248 16.6777C7.34315 16.5885 7.26205 16.4987 7.18164 16.4082C7.26205 16.4987 7.34315 16.5885 7.4248 16.6777ZM7.16895 16.3936C7.06257 16.2737 6.95672 16.1532 6.85254 16.0312C6.95673 16.1532 7.06257 16.2737 7.16895 16.3936ZM6.03809 15.0293C5.99199 14.9699 5.94502 14.9113 5.89941 14.8516C5.94502 14.9112 5.99199 14.9699 6.03809 15.0293ZM9.38281 9.1748C9.38939 9.18617 9.39576 9.19765 9.40234 9.20898C9.39576 9.19765 9.38939 9.18617 9.38281 9.1748ZM21.4531 7.91699C21.4502 7.60841 21.4491 7.29981 21.4492 6.99121C21.4491 7.29981 21.4502 7.6084 21.4531 7.91699ZM11.918 2.81445C11.8951 2.76566 11.8746 2.71705 11.8555 2.66895C11.8746 2.71703 11.8951 2.76567 11.918 2.81445ZM11.7197 2.18164C11.7132 2.14023 11.708 2.09923 11.7041 2.05859C11.708 2.09922 11.7132 2.14024 11.7197 2.18164ZM12.1084 0.737305C12.1265 0.715445 12.145 0.693874 12.1641 0.672852C12.145 0.693872 12.1265 0.715447 12.1084 0.737305Z" fill="#F0BE47"/>
</svg>
