<svg width="469" height="488" viewBox="0 0 469 488" fill="none" xmlns="http://www.w3.org/2000/svg">
<path d="M437.973 203.398C437.973 91.3885 342.629 0.589539 224.964 0.589539C107.299 0.589539 12.0564 91.3885 12.0564 203.398V284.198C12.0564 396.207 107.4 487.006 225.065 487.006C342.73 487.006 438.074 396.207 438.074 284.198C437.973 277.734 437.973 209.761 437.973 203.398Z" fill="#FF7A79"/>
<path d="M315.763 461.352C337.276 442.465 454.537 425.8 462.819 387.42C468.172 362.675 436.357 373.381 422.217 377.926C436.054 372.876 473.02 317.629 467.768 298.136C463.425 282.077 429.59 302.883 421.51 311.569C434.842 300.762 456.961 203.398 432.216 196.732C398.482 187.642 396.159 276.724 392.725 293.49C389.089 284.804 368.99 249.353 356.062 262.988C345.861 273.795 346.366 334.496 348.689 342.273C315.662 318.538 316.066 371.159 323.843 391.763C331.317 411.458 288.998 463.372 315.763 461.352Z" fill="#FFCC7A"/>
<path d="M357.274 422.77C359.496 418.528 361.718 414.185 363.94 409.943C356.062 395.298 348.285 380.653 341.417 365.503C340.912 364.392 342.528 362.877 343.336 364.089C352.325 376.108 360.405 388.935 367.98 401.964C373.03 392.066 377.979 381.966 382.322 371.664C383.938 367.826 385.453 363.988 386.867 360.15C378.181 335.405 368.687 310.862 361.415 285.713C361.112 284.501 362.829 283.289 363.536 284.602C374.545 305.105 383.332 326.921 391.008 348.939C394.543 338.94 397.775 328.941 400.704 318.74C411.309 282.481 417.066 245.111 427.57 208.953C427.974 207.741 430.095 207.741 429.994 209.155C427.873 238.748 421.51 268.24 414.339 297.025C409.794 315.306 404.441 333.385 398.28 351.161C413.632 341.768 428.984 332.375 444.942 323.992C446.053 323.386 447.568 324.901 446.457 325.81C430.095 339.445 412.319 351.565 394.038 362.776C391.614 369.139 389.089 375.502 386.362 381.764C382.625 390.248 378.787 398.833 374.343 407.014C390.301 404.388 406.259 401.964 422.318 400.449C423.631 400.348 424.439 402.267 423.025 402.772C405.754 408.226 387.877 412.266 369.899 415.498L370.202 414.589C367.778 418.629 365.354 422.669 362.627 426.507C360.506 429.537 355.658 426.002 357.274 422.77Z" fill="#FFAC7A"/>
<path d="M137.599 471.048C118.207 453.171 10.6424 435.294 3.87543 399.843C-0.568575 376.916 28.5194 387.521 41.4474 391.965C28.8224 387.016 -4.00258 335.405 1.24942 317.528C5.59243 302.782 36.2964 322.679 43.5684 330.961C31.4484 320.659 13.2684 230.567 36.1954 225.012C67.4044 217.437 67.7074 299.449 70.4344 314.902C73.9694 306.923 93.2604 274.704 104.875 287.632C113.965 297.833 112.248 353.585 109.925 360.756C140.831 339.647 139.316 388.026 131.64 406.913C124.368 424.689 162.142 473.573 137.599 471.048Z" fill="#FFCC7A"/>
<path d="M100.229 434.587C98.3101 430.547 96.2901 426.608 94.3711 422.669C101.946 409.337 109.42 396.005 116.086 382.269C116.591 381.259 115.177 379.845 114.369 380.956C105.885 391.864 98.1081 403.378 90.8361 415.296C86.3921 406.004 82.0491 396.712 78.3121 387.016C76.8981 383.481 75.5851 379.946 74.3731 376.31C82.8571 353.686 92.1491 331.365 99.4211 308.337C99.7241 307.226 98.1081 306.115 97.5021 307.226C86.8971 325.81 78.4131 345.707 70.7371 365.806C67.7071 356.514 64.9801 347.222 62.4551 337.829C53.5671 304.297 49.0221 269.654 40.1341 236.122C39.8311 235.011 37.9121 234.91 37.9121 236.223C39.2251 263.493 44.3761 290.864 50.4361 317.427C54.2741 334.395 58.7181 351.161 64.0711 367.624C50.1331 358.635 36.1951 349.646 21.6511 341.566C20.6411 340.96 19.2271 342.374 20.2371 343.283C34.9831 356.211 51.1431 367.725 67.7071 378.431C69.8281 384.39 72.0501 390.248 74.3731 396.005C77.6051 403.984 81.0391 411.862 84.8771 419.538C70.2321 416.811 55.5871 414.185 40.8411 412.468C39.7301 412.367 38.9221 414.084 40.1341 414.589C55.8901 420.043 72.2521 424.083 88.7151 427.416C88.6141 427.113 88.6141 426.911 88.5131 426.608C90.6341 430.446 92.8561 434.183 95.2801 437.718C97.0981 440.748 101.643 437.617 100.229 434.587Z" fill="#FFAC7A"/>
<path d="M187.695 102.297C181.837 127.143 159.819 133.506 143.154 145.02C127.095 156.13 122.954 180.269 135.579 192.389C160.93 216.73 143.962 230.365 121.742 237.334C32.1553 265.21 70.5353 308.438 136.488 313.69C219.308 320.356 309.703 295.005 340.811 255.211C371.919 215.417 270.111 175.724 288.19 164.008C306.168 152.191 283.847 132.597 295.664 113.306C328.893 59.4726 194.159 75.0266 187.695 102.297Z" fill="#523E3F"/>
<path d="M237.488 255.817C285.261 251.777 289.099 221.679 289.099 221.679C245.164 226.628 244.962 170.674 244.861 170.674L218.096 141.687C218.096 141.687 214.359 194.308 188.907 211.377L168.808 217.538C168.909 217.74 189.715 259.857 237.488 255.817Z" fill="#FFCCAE"/>
<path d="M210.521 215.72C210.521 215.72 219.914 166.028 230.115 155.827C230.317 155.625 230.519 155.524 230.62 155.322L218.096 141.788C218.096 141.788 214.359 194.409 188.907 211.478L168.808 217.639C168.808 217.639 189.614 259.857 237.387 255.817C243.447 255.312 248.901 254.403 253.648 253.09C205.168 245.515 210.521 215.72 210.521 215.72Z" fill="#FA9C90"/>
<path d="M245.265 176.734C244.861 173.098 244.861 170.775 244.861 170.775L218.096 141.788C218.096 141.788 217.389 152.191 214.258 165.321C214.965 169.361 219.409 198.954 236.175 206.731C244.558 210.569 249.608 202.388 248.295 197.136C247.083 191.884 245.669 184.713 245.265 176.734Z" fill="#FA9C90"/>
<path d="M298.694 474.582C288.089 454.483 313.036 341.969 313.036 341.969L328.186 387.622C328.186 387.622 342.629 399.135 357.981 398.327C373.333 397.519 374.747 338.737 374.747 338.737L326.974 231.879C326.974 231.879 305.259 213.8 267.081 215.416C267.081 215.416 260.819 243.696 234.155 244.605C207.491 245.514 188.402 209.76 188.402 209.76C187.19 209.76 145.78 211.679 125.58 228.748C105.38 245.817 16.0963 366.816 38.6193 389.137C38.7203 389.339 38.8213 389.44 38.9223 389.642C79.6253 389.541 139.72 333.788 139.72 333.788L151.234 437.212L145.982 471.552C181.433 488.217 233.549 495.691 298.694 474.582Z" fill="#6C92E5"/>
<path d="M323.338 318.74C320.005 312.478 317.783 306.216 316.672 299.752C314.248 303.59 311.622 307.125 308.592 310.054C297.987 320.659 282.13 327.224 267.081 327.224H266.071C269.202 332.072 293.139 350.252 293.139 350.252C293.139 350.252 289.503 431.557 291.725 476.805C294.048 476.098 296.472 475.391 298.795 474.583C288.089 454.484 313.036 341.97 313.036 341.97L328.186 387.622C328.186 387.622 342.629 399.136 357.981 398.328C361.415 398.126 364.142 394.995 366.364 390.349C351.517 366.715 336.468 343.384 323.338 318.74ZM215.874 331.163C165.98 332.779 149.214 300.863 144.77 273.795C143.962 275.613 143.154 277.532 142.245 279.35C134.67 295.611 128.004 315.811 128.004 315.811C128.004 315.811 36.0944 389.642 37.9124 391.359C38.0134 391.561 38.1144 391.662 38.2154 391.864C78.9184 391.763 139.013 336.011 139.013 336.011L150.527 439.435L145.275 471.654C153.052 475.29 161.637 477.411 171.03 480.037C173.05 461.453 165.475 347.929 165.475 347.929L215.874 331.163Z" fill="#517FE5"/>
<path d="M58.1123 220.466C58.1123 220.466 57.3043 210.77 64.9803 206.73C72.6563 202.69 80.5343 185.52 80.5343 185.52C80.5343 185.52 80.0293 172.592 80.1303 170.976C80.2313 169.36 80.8373 164.007 82.8573 162.492C84.8773 160.977 85.6853 153.604 78.1103 158.856L77.4033 153.604C77.4033 153.604 69.5253 146.332 66.1923 148.857C62.8593 151.382 68.0103 156.533 69.7273 159.058C68.9193 165.118 69.2223 167.542 69.2223 167.542C69.2223 167.542 66.7983 172.794 66.7983 171.279C66.7983 169.764 69.1213 159.058 63.8693 158.755C58.6173 158.452 53.6683 158.452 53.6683 164.31C50.5373 162.997 41.6493 161.583 41.7503 169.663C41.7503 169.663 31.8523 164.714 30.7413 174.41L30.8423 185.116C30.8423 185.116 22.2573 197.64 21.7523 206.629C21.2473 215.618 29.1253 220.264 29.1253 220.264L58.1123 220.466Z" fill="#FFCCAE"/>
<path d="M40.9423 211.175C40.5383 201.176 43.9723 190.167 49.4263 180.976C48.7193 179.259 48.1133 177.441 47.6083 175.623C47.1033 171.684 46.4973 167.745 45.9923 163.705C43.4673 164.311 41.4473 165.927 41.4473 169.866C41.4473 169.866 31.5493 164.917 30.4383 174.613L30.5393 185.319C30.5393 185.319 21.9543 197.843 21.4493 206.832C20.9443 215.821 28.8223 220.467 28.8223 220.467H41.9523C41.4473 217.336 41.1443 214.205 40.9423 211.175Z" fill="#FA9C90"/>
<path d="M28.3173 219.557L58.1123 218.345C55.2843 290.156 73.8683 313.891 67.4043 357.826C64.4753 377.521 45.9923 404.488 29.5293 386.813C-5.51768 349.443 28.3173 219.557 28.3173 219.557Z" fill="#6C92E5"/>
<path d="M38.0134 384.996C36.1954 368.028 35.1854 350.959 34.9834 333.789C34.3774 298.136 36.9024 262.584 40.2354 227.133C40.2354 224.406 40.4374 221.679 40.8414 219.053L28.4184 219.558C28.4184 219.558 -5.4166 349.343 29.6304 386.915C32.6604 390.147 35.7914 391.965 38.9224 392.47C38.6194 389.945 38.3164 387.521 38.0134 384.996Z" fill="#517FE5"/>
<path d="M291.422 282.582C291.422 282.986 291.422 285.107 291.624 288.743C292.028 285.107 291.927 282.784 291.422 282.582Z" fill="#2853C3" fill-opacity="0.188235"/>
<path d="M327.479 389.036L374.343 268.543L407.774 274.199C407.774 274.199 410.905 366.008 384.241 407.418C372.525 425.598 347.477 434.284 327.479 389.036Z" fill="#6C92E5"/>
<path d="M346.972 396.207C353.638 373.886 363.132 352.676 372.222 331.365C377.676 318.134 382.524 304.701 385.453 290.662C385.655 287.632 385.655 284.501 385.655 281.471C385.554 277.734 385.857 274.098 386.564 270.563L374.343 268.543L327.479 389.036C332.327 399.843 337.377 407.62 342.528 412.872C343.841 407.317 345.356 401.762 346.972 396.207Z" fill="#517FE5"/>
<path d="M374.343 271.775L376.161 251.575C376.161 251.575 368.283 251.07 361.92 240.364C355.658 229.658 351.214 202.388 351.214 202.388L362.829 210.771C362.829 210.771 364.445 225.315 368.283 222.588C372.02 219.962 371.212 214.811 371.212 214.811L396.967 225.82L416.359 236.425C416.359 236.425 415.955 246.222 413.228 251.373C410.501 256.524 407.471 274.502 407.471 274.502C402.522 283.895 372.02 287.329 374.343 271.775Z" fill="#FFCCAE"/>
<path d="M388.079 272.179C389.594 260.261 390.705 248.242 389.998 236.223C388.988 231.577 388.483 227.032 388.584 222.386L371.212 214.912C371.212 214.912 372.02 219.962 368.283 222.689C364.546 225.315 362.829 210.872 362.829 210.872L351.214 202.489C351.214 202.489 355.658 229.759 361.92 240.465C368.182 251.171 376.161 251.676 376.161 251.676L374.343 271.876C373.232 279.148 379.393 282.279 386.665 282.582C387.17 279.047 387.675 275.613 388.079 272.179Z" fill="#FA9C90"/>
<path d="M391.109 229.254L416.561 247.535L417.268 248.04L423.934 241.071L398.886 220.265L391.109 229.254Z" fill="white"/>
<path d="M431.105 255.716L434.741 251.777L423.53 241.071L417.167 247.434L431.105 255.716ZM336.064 191.884L391.816 230.769L400.603 220.77L347.578 176.128C347.578 176.128 336.266 182.895 336.064 191.884Z" fill="#523E3F"/>
<path d="M348.487 177.356C348.877 168.719 342.19 161.402 333.553 161.012C324.916 160.623 317.598 167.31 317.209 175.947C316.82 184.584 323.506 191.902 332.144 192.291C340.781 192.68 348.098 185.994 348.487 177.356Z" fill="white"/>
<path d="M343.134 164.917C327.176 170.775 324.449 186.329 323.742 189.359C324.752 190.066 325.863 190.672 327.075 191.076C327.479 190.167 327.883 189.157 328.388 188.248C330.307 182.188 333.741 177.037 338.488 172.593C340.508 170.573 342.73 168.755 345.154 167.139C344.548 166.331 343.942 165.624 343.134 164.917Z" fill="#523E3F"/>
<path d="M207.39 160.675C207.39 160.675 229.004 201.277 259.607 190.066C259.607 190.066 273.949 177.946 277.484 165.422C281.019 152.898 273.242 116.639 273.242 116.639C273.242 116.639 260.011 89.6715 244.659 89.0655C219.611 88.0555 195.068 126.84 190.22 134.718C184.867 143.202 190.826 165.927 207.39 160.675Z" fill="#FFCCAE"/>
<path d="M232.438 184.713C220.924 174.108 215.874 158.352 215.268 143.202C215.167 139.97 215.369 136.637 215.975 133.304C215.874 119.063 223.348 103.105 233.145 93.3076C234.256 92.1966 235.468 91.0856 236.781 89.9746C214.662 95.8326 194.563 127.648 190.22 134.718C184.968 143.303 190.826 165.927 207.491 160.776C207.491 160.776 220.116 184.612 239.811 190.672C237.185 188.854 234.761 186.834 232.438 184.713Z" fill="#FA9C90"/>
<path d="M218.803 72.9056C244.255 66.6436 261.93 81.0866 268.192 91.2876C274.656 101.994 275.464 115.124 275.464 115.124C262.031 117.144 249.002 95.6306 249.002 95.6306C253.547 117.548 207.39 140.98 207.39 140.98C209.41 143.909 210.42 150.878 209.309 152.292C208.198 153.706 206.986 152.393 206.986 152.393C195.674 126.84 187.089 137.142 188.2 142.495L183.15 150.373C183.251 150.373 153.153 89.1666 218.803 72.9056ZM266.071 132.496C266.475 135.829 265.364 138.657 263.748 138.859C262.031 139.061 260.314 136.536 259.91 133.203C259.506 129.87 260.617 127.042 262.233 126.84C263.95 126.638 265.667 129.163 266.071 132.496Z" fill="#523E3F"/>
<path d="M238.902 135.728C239.306 139.061 238.195 141.889 236.579 142.091C234.862 142.293 233.145 139.768 232.741 136.435C232.337 133.102 233.448 130.274 235.064 130.072C236.781 129.87 238.498 132.395 238.902 135.728Z" fill="#523E3F"/>
<path d="M253.951 136.031C253.749 135.425 253.042 135.122 252.436 135.324C251.83 135.526 251.527 136.233 251.729 136.839L257.486 152.999C257.183 153.403 256.779 154.009 256.173 154.716C255.163 155.726 253.749 156.736 251.83 156.938C251.224 157.039 250.517 157.039 249.81 156.938C249.103 156.837 248.497 157.241 248.396 157.948C248.295 158.655 248.699 159.261 249.406 159.362C250.315 159.463 251.224 159.564 252.133 159.463C254.86 159.16 256.779 157.645 258.092 156.332C259.405 155.019 259.91 153.807 260.011 153.706L260.213 153.201L253.951 136.031ZM232.64 148.858C232.842 150.474 230.115 152.09 226.479 152.494C222.944 152.898 219.813 151.989 219.611 150.373C219.409 148.757 222.136 147.141 225.772 146.737C229.408 146.333 232.438 147.242 232.64 148.858ZM277.181 143.505C277.383 145.121 274.656 146.737 271.02 147.141C267.485 147.545 264.354 146.636 264.152 145.02C263.95 143.404 266.677 141.788 270.313 141.384C273.949 140.98 277.08 141.889 277.181 143.505Z" fill="#FF7A79"/>
<path d="M194.26 147.443C194.159 146.635 194.26 145.928 194.462 145.322C194.563 145.019 194.664 144.817 194.765 144.716C194.866 144.615 194.967 144.514 195.068 144.514C195.169 144.514 195.472 144.514 195.876 144.817C196.482 145.221 197.391 146.13 198.502 147.847C198.502 147.847 196.583 148.251 196.785 150.17C197.189 153.604 200.522 156.23 203.249 155.624C203.653 155.523 203.855 155.018 203.653 154.614C201.734 150.069 200.118 147.241 198.704 145.423C197.997 144.514 197.29 143.908 196.684 143.504C196.078 143.1 195.371 142.898 194.765 142.999C194.26 143.1 193.856 143.302 193.553 143.605C193.048 144.11 192.846 144.716 192.644 145.322C192.442 146.029 192.442 146.736 192.543 147.443C192.543 147.847 192.947 148.251 193.351 148.15C193.957 148.251 194.26 147.847 194.26 147.443Z" fill="#523E3F"/>
<path d="M246.679 171.381C248.093 171.179 249.709 170.573 251.325 169.361C251.83 169.058 251.931 168.351 251.527 167.947C251.224 167.442 250.517 167.341 250.113 167.745C248.699 168.755 247.487 169.159 246.376 169.361C244.76 169.563 243.447 169.159 242.437 168.654C241.932 168.452 241.629 168.149 241.326 167.947C241.225 167.846 241.124 167.745 241.023 167.745L240.922 167.644C240.518 167.24 239.912 167.24 239.407 167.644C239.104 167.947 239.003 168.351 239.104 168.755C239.003 168.957 239.003 169.26 239.104 169.563C239.104 169.664 239.71 171.28 241.326 172.795C242.134 173.502 243.144 174.209 244.457 174.613C245.77 175.017 247.285 175.118 249.103 174.714C249.608 174.613 249.911 174.007 249.81 173.502C249.709 172.896 249.103 172.593 248.598 172.694C247.083 172.997 245.871 172.896 244.861 172.593C243.75 172.29 242.841 171.583 242.235 170.977C242.336 171.078 242.538 171.078 242.639 171.179C243.952 171.381 245.265 171.583 246.679 171.381Z" fill="#FF7A79"/>
<path d="M372.424 220.366C372.424 220.366 373.232 188.247 380.302 189.358C387.372 190.57 386.463 195.216 386.463 195.216C386.463 195.216 416.46 215.416 416.561 222.183C416.662 224.506 419.187 231.981 418.177 235.718C417.773 237.031 409.087 228.951 409.087 228.951C409.087 228.951 402.219 237.939 397.674 239.454C389.392 242.181 372.424 220.366 372.424 220.366Z" fill="#FFCCAE"/>
<path d="M286.776 476.906C286.776 476.906 346.063 464.28 349.194 442.363C351.214 428.223 333.741 435.496 325.964 438.627C333.539 435.294 352.224 402.671 348.588 391.864C345.558 382.976 327.277 396.005 323.035 401.257C330.105 394.591 338.791 338.839 324.651 336.112C305.259 332.375 307.38 382.673 306.168 392.167C303.845 387.42 291.018 368.23 284.352 376.411C278.999 382.875 281.726 417.114 283.241 421.457C263.647 409.337 266.475 467.816 286.776 476.906Z" fill="#ACC38C"/>
<path d="M293.038 460.846C285.564 447.009 285.665 445.494 279.706 430.344C281.625 428.324 289.402 441.656 294.553 457.715C297.482 451.453 300.512 443.979 303.239 436.707C304.653 433.071 305.865 429.233 306.875 425.496C299.805 412.366 299.805 410.649 294.048 395.802C295.866 393.883 303.037 405.902 308.188 420.85C309.4 416.002 310.511 411.053 311.622 406.104C316.167 385.298 317.985 363.987 322.429 343.08C322.631 342.373 323.742 342.272 323.742 343.08C323.742 359.846 321.318 376.713 318.389 393.176C316.672 402.771 314.652 412.366 312.228 421.759C325.56 412.467 339.195 406.811 339.397 409.437C325.762 417.921 324.853 419.335 311.117 425.698C309.602 431.253 307.885 436.707 305.865 442.06C303.946 447.211 301.623 452.766 298.896 458.422C319.5 448.221 338.993 442.161 338.286 445.191C318.086 454.18 316.268 455.796 296.977 462.361L293.038 469.633C291.321 472.663 287.483 473.673 284.352 472.158H284.251C287.079 470.845 290.008 466.603 293.038 460.846Z" fill="#95AF88"/>
<path d="M167.091 479.834C167.091 479.834 103.562 470.037 98.8153 447.009C95.7853 432.061 114.773 438.828 123.257 441.656C114.975 438.525 93.2603 405.094 96.4923 393.479C99.2193 383.884 119.318 396.61 124.166 401.963C116.187 395.398 103.764 336.818 118.611 332.98C138.912 327.829 139.619 381.258 141.538 391.358C143.76 386.207 156.183 364.997 163.758 373.38C169.717 379.945 169.01 416.305 167.596 421.052C187.594 406.912 188.099 469.027 167.091 479.834Z" fill="#ACC38C"/>
<path d="M159.516 463.17C166.586 448.02 166.384 446.404 171.737 430.042C169.616 428.022 162.142 442.667 157.597 459.938C154.062 453.474 150.527 445.798 147.093 438.223C145.376 434.385 143.861 430.547 142.548 426.507C149.214 412.165 149.113 410.347 154.365 394.187C152.345 392.268 145.477 405.499 140.932 421.659C139.316 416.609 137.902 411.458 136.387 406.307C130.327 384.491 127.196 361.968 121.136 340.253C120.934 339.546 119.621 339.445 119.722 340.354C120.732 358.13 124.267 375.906 128.408 393.177C130.832 403.277 133.458 413.276 136.69 423.073C121.944 413.983 107.299 408.832 107.097 411.66C122.045 419.841 123.156 421.255 138.003 427.214C139.922 432.971 142.144 438.627 144.467 444.182C146.79 449.535 149.618 455.292 152.85 461.15C130.428 451.555 109.319 446.303 110.329 449.434C132.246 457.817 134.266 459.332 155.173 465.19C156.688 467.715 158.203 470.24 159.819 472.664C161.839 475.694 165.879 476.603 169.111 474.785H169.212C166.485 473.472 163.051 469.129 159.516 463.17Z" fill="#95AF88"/>
<path d="M94.2703 85.7325V117.245C91.9473 117.144 89.2203 117.75 86.5943 119.164C81.0393 122.093 77.9083 127.143 79.6253 130.476C81.4433 133.809 87.3013 134.213 92.8563 131.385C96.3913 129.567 98.9163 126.941 99.9263 124.315V93.6105L123.459 86.5405V113.104C121.136 113.003 118.409 113.609 115.783 115.023C110.228 117.952 107.097 123.002 108.814 126.335C110.632 129.668 116.49 130.072 122.045 127.244C125.58 125.426 128.105 122.8 129.115 120.174V75.3295L94.2703 85.7325ZM329.802 93.1055V124.618C327.479 124.517 324.752 125.123 322.126 126.537C316.571 129.466 313.44 134.516 315.157 137.849C316.975 141.182 322.833 141.586 328.388 138.758C331.923 136.94 334.448 134.314 335.458 131.688V100.984L358.991 93.9135V120.477C356.668 120.376 353.941 120.982 351.315 122.396C345.76 125.325 342.629 130.375 344.346 133.708C346.164 137.041 352.022 137.445 357.577 134.617C361.112 132.799 363.637 130.173 364.647 127.547V82.7025L329.802 93.1055ZM209.915 19.4765L184.766 15.1335V52.3015C182.039 52.2005 178.807 52.9075 175.676 54.5235C169.111 57.9575 165.475 63.9165 167.495 67.8555C169.616 71.7945 176.585 72.2995 183.049 68.8655C187.19 66.7445 190.22 63.6135 191.331 60.5835V24.5265L209.915 27.4555V19.4765Z" fill="white"/>
</svg>
