<svg width="469" height="488" viewBox="0 0 469 488" fill="none" xmlns="http://www.w3.org/2000/svg">
<path d="M30.9873 203.398C30.9873 91.3885 126.331 0.589539 243.996 0.589539C361.661 0.589539 456.904 91.3885 456.904 203.398V284.198C456.904 396.207 361.56 487.006 243.895 487.006C126.23 487.006 30.8863 396.207 30.8863 284.198C30.9873 277.734 30.9873 209.761 30.9873 203.398Z" fill="#FF7A79"/>
<path d="M153.197 461.352C131.684 442.465 14.4235 425.8 6.14149 387.42C0.788489 362.675 32.6035 373.381 46.7435 377.926C32.9065 372.876 -4.0595 317.629 1.1925 298.136C5.5355 282.077 39.3705 302.883 47.4505 311.569C34.1185 300.762 11.9995 203.398 36.7445 196.732C70.4785 187.642 72.8015 276.724 76.2355 293.49C79.8715 284.804 99.9705 249.353 112.899 262.988C123.1 273.795 122.594 334.496 120.271 342.273C153.298 318.538 152.894 371.159 145.117 391.763C137.643 411.458 179.962 463.372 153.197 461.352Z" fill="#FFCC7A"/>
<path d="M111.686 422.77C109.464 418.528 107.242 414.185 105.02 409.943C112.898 395.298 120.675 380.653 127.543 365.503C128.048 364.392 126.432 362.877 125.624 364.089C116.635 376.108 108.555 388.935 100.98 401.964C95.9303 392.066 90.9813 381.966 86.6383 371.664C85.0223 367.826 83.5073 363.988 82.0933 360.15C90.7793 335.405 100.273 310.862 107.545 285.713C107.848 284.501 106.131 283.289 105.424 284.602C94.4153 305.105 85.6283 326.921 77.9523 348.939C74.4173 338.94 71.1853 328.941 68.2563 318.74C57.6513 282.481 51.8943 245.111 41.3903 208.953C40.9863 207.741 38.8653 207.741 38.9663 209.155C41.0873 238.748 47.4503 268.24 54.6213 297.025C59.1663 315.306 64.5193 333.385 70.6803 351.161C55.3283 341.768 39.9763 332.375 24.0183 323.992C22.9073 323.386 21.3923 324.901 22.5033 325.81C38.8653 339.445 56.6413 351.565 74.9223 362.776C77.3463 369.139 79.8713 375.502 82.5983 381.764C86.3353 390.248 90.1733 398.833 94.6173 407.014C78.6593 404.388 62.7013 401.964 46.6423 400.449C45.3293 400.348 44.5213 402.267 45.9353 402.772C63.2063 408.226 81.0833 412.266 99.0613 415.498L98.7583 414.589C101.182 418.629 103.606 422.669 106.333 426.507C108.454 429.537 113.302 426.002 111.686 422.77Z" fill="#FFAC7A"/>
<path d="M331.361 471.048C350.753 453.171 458.318 435.294 465.085 399.843C469.529 376.916 440.441 387.521 427.513 391.965C440.138 387.016 472.963 335.405 467.711 317.528C463.368 302.782 432.664 322.679 425.392 330.961C437.512 320.659 455.692 230.567 432.765 225.012C401.556 217.437 401.253 299.449 398.526 314.902C394.991 306.923 375.7 274.704 364.085 287.632C354.995 297.833 356.712 353.585 359.035 360.756C328.129 339.647 329.644 388.026 337.32 406.913C344.592 424.689 306.818 473.573 331.361 471.048Z" fill="#FFCC7A"/>
<path d="M368.732 434.587C370.651 430.547 372.671 426.608 374.59 422.669C367.015 409.337 359.541 396.005 352.875 382.269C352.37 381.259 353.784 379.845 354.592 380.956C363.076 391.864 370.853 403.378 378.125 415.296C382.569 406.004 386.912 396.712 390.649 387.016C392.063 383.481 393.376 379.946 394.588 376.31C386.104 353.686 376.812 331.365 369.54 308.337C369.237 307.226 370.853 306.115 371.459 307.226C382.064 325.81 390.548 345.707 398.224 365.806C401.254 356.514 403.981 347.222 406.506 337.829C415.394 304.297 419.939 269.654 428.827 236.122C429.13 235.011 431.049 234.91 431.049 236.223C429.736 263.493 424.585 290.864 418.525 317.427C414.687 334.395 410.243 351.161 404.89 367.624C418.828 358.635 432.766 349.646 447.31 341.566C448.32 340.96 449.734 342.374 448.724 343.283C433.978 356.211 417.818 367.725 401.254 378.431C399.133 384.39 396.911 390.248 394.588 396.005C391.356 403.984 387.922 411.862 384.084 419.538C398.729 416.811 413.374 414.185 428.12 412.468C429.231 412.367 430.039 414.084 428.827 414.589C413.071 420.043 396.709 424.083 380.246 427.416C380.347 427.113 380.347 426.911 380.448 426.608C378.327 430.446 376.105 434.183 373.681 437.718C371.863 440.748 367.318 437.617 368.732 434.587Z" fill="#FFAC7A"/>
<path d="M281.265 102.297C287.123 127.143 309.141 133.506 325.806 145.02C341.865 156.13 346.006 180.269 333.381 192.389C308.03 216.73 324.998 230.365 347.218 237.334C436.805 265.21 398.425 308.438 332.472 313.69C249.652 320.356 159.257 295.005 128.149 255.211C97.0414 215.417 198.849 175.724 180.77 164.008C162.792 152.191 185.113 132.597 173.296 113.306C140.067 59.4726 274.801 75.0266 281.265 102.297Z" fill="#523E3F"/>
<path d="M231.472 255.817C183.699 251.777 179.861 221.679 179.861 221.679C223.796 226.628 223.998 170.674 224.099 170.674L250.864 141.687C250.864 141.687 254.601 194.308 280.053 211.377L300.152 217.538C300.051 217.74 279.245 259.857 231.472 255.817Z" fill="#FFCCAE"/>
<path d="M258.439 215.72C258.439 215.72 249.046 166.028 238.845 155.827C238.643 155.625 238.441 155.524 238.34 155.322L250.864 141.788C250.864 141.788 254.601 194.409 280.053 211.478L300.152 217.639C300.152 217.639 279.346 259.857 231.573 255.817C225.513 255.312 220.059 254.403 215.312 253.09C263.792 245.515 258.439 215.72 258.439 215.72Z" fill="#FA9C90"/>
<path d="M223.695 176.734C224.099 173.098 224.099 170.775 224.099 170.775L250.864 141.788C250.864 141.788 251.571 152.191 254.702 165.321C253.995 169.361 249.551 198.954 232.785 206.731C224.402 210.569 219.352 202.388 220.665 197.136C221.877 191.884 223.291 184.713 223.695 176.734Z" fill="#FA9C90"/>
<path d="M170.266 474.582C180.871 454.483 155.924 341.969 155.924 341.969L140.774 387.622C140.774 387.622 126.331 399.135 110.979 398.327C95.6275 397.519 94.2135 338.737 94.2135 338.737L141.986 231.879C141.986 231.879 163.701 213.8 201.879 215.416C201.879 215.416 208.141 243.696 234.805 244.605C261.469 245.514 280.558 209.76 280.558 209.76C281.77 209.76 323.18 211.679 343.38 228.748C363.58 245.817 452.864 366.816 430.341 389.137C430.24 389.339 430.139 389.44 430.038 389.642C389.335 389.541 329.24 333.788 329.24 333.788L317.726 437.212L322.978 471.552C287.527 488.217 235.411 495.691 170.266 474.582Z" fill="#6C92E5"/>
<path d="M145.622 318.74C148.955 312.478 151.177 306.216 152.288 299.752C154.712 303.59 157.338 307.125 160.368 310.054C170.973 320.659 186.83 327.224 201.879 327.224H202.889C199.758 332.072 175.821 350.252 175.821 350.252C175.821 350.252 179.457 431.557 177.235 476.805C174.912 476.098 172.488 475.391 170.165 474.583C180.871 454.484 155.924 341.97 155.924 341.97L140.774 387.622C140.774 387.622 126.331 399.136 110.979 398.328C107.545 398.126 104.818 394.995 102.596 390.349C117.443 366.715 132.492 343.384 145.622 318.74ZM253.086 331.163C302.98 332.779 319.746 300.863 324.19 273.795C324.998 275.613 325.806 277.532 326.715 279.35C334.29 295.611 340.956 315.811 340.956 315.811C340.956 315.811 432.866 389.642 431.048 391.359C430.947 391.561 430.846 391.662 430.745 391.864C390.042 391.763 329.947 336.011 329.947 336.011L318.433 439.435L323.685 471.654C315.908 475.29 307.323 477.411 297.93 480.037C295.91 461.453 303.485 347.929 303.485 347.929L253.086 331.163Z" fill="#517FE5"/>
<path d="M410.848 220.466C410.848 220.466 411.656 210.77 403.98 206.73C396.304 202.69 388.426 185.52 388.426 185.52C388.426 185.52 388.931 172.592 388.83 170.976C388.729 169.36 388.123 164.007 386.103 162.492C384.083 160.977 383.275 153.604 390.85 158.856L391.557 153.604C391.557 153.604 399.435 146.332 402.768 148.857C406.101 151.382 400.95 156.533 399.233 159.058C400.041 165.118 399.738 167.542 399.738 167.542C399.738 167.542 402.162 172.794 402.162 171.279C402.162 169.764 399.839 159.058 405.091 158.755C410.343 158.452 415.292 158.452 415.292 164.31C418.423 162.997 427.311 161.583 427.21 169.663C427.21 169.663 437.108 164.714 438.219 174.41L438.118 185.116C438.118 185.116 446.703 197.64 447.208 206.629C447.713 215.618 439.835 220.264 439.835 220.264L410.848 220.466Z" fill="#FFCCAE"/>
<path d="M428.018 211.175C428.422 201.176 424.988 190.167 419.534 180.976C420.241 179.259 420.847 177.441 421.352 175.623C421.857 171.684 422.463 167.745 422.968 163.705C425.493 164.311 427.513 165.927 427.513 169.866C427.513 169.866 437.411 164.917 438.522 174.613L438.421 185.319C438.421 185.319 447.006 197.843 447.511 206.832C448.016 215.821 440.138 220.467 440.138 220.467H427.008C427.513 217.336 427.816 214.205 428.018 211.175Z" fill="#FA9C90"/>
<path d="M440.643 219.557L410.848 218.345C413.676 290.156 395.092 313.891 401.556 357.826C404.485 377.521 422.968 404.488 439.431 386.813C474.478 349.443 440.643 219.557 440.643 219.557Z" fill="#6C92E5"/>
<path d="M430.947 384.996C432.765 368.028 433.775 350.959 433.977 333.789C434.583 298.136 432.058 262.584 428.725 227.133C428.725 224.406 428.523 221.679 428.119 219.053L440.542 219.558C440.542 219.558 474.377 349.343 439.33 386.915C436.3 390.147 433.169 391.965 430.038 392.47C430.341 389.945 430.644 387.521 430.947 384.996Z" fill="#517FE5"/>
<path d="M177.539 282.582C177.539 282.986 177.539 285.107 177.337 288.743C176.933 285.107 177.034 282.784 177.539 282.582Z" fill="#2853C3" fill-opacity="0.188235"/>
<path d="M141.481 389.036L94.6175 268.543L61.1864 274.199C61.1864 274.199 58.0555 366.008 84.7195 407.418C96.4355 425.598 121.483 434.284 141.481 389.036Z" fill="#6C92E5"/>
<path d="M121.988 396.207C115.322 373.886 105.828 352.676 96.7385 331.365C91.2845 318.134 86.4365 304.701 83.5075 290.662C83.3055 287.632 83.3054 284.501 83.3054 281.471C83.4064 277.734 83.1034 274.098 82.3964 270.563L94.6175 268.543L141.481 389.036C136.633 399.843 131.583 407.62 126.432 412.872C125.119 407.317 123.604 401.762 121.988 396.207Z" fill="#517FE5"/>
<path d="M94.6173 271.775L92.7994 251.575C92.7994 251.575 100.677 251.07 107.04 240.364C113.302 229.658 117.746 202.388 117.746 202.388L106.131 210.771C106.131 210.771 104.515 225.315 100.677 222.588C96.9403 219.962 97.7484 214.811 97.7484 214.811L71.9934 225.82L52.6013 236.425C52.6013 236.425 53.0053 246.222 55.7323 251.373C58.4593 256.524 61.4894 274.502 61.4894 274.502C66.4384 283.895 96.9403 287.329 94.6173 271.775Z" fill="#FFCCAE"/>
<path d="M80.8813 272.179C79.3663 260.261 78.2553 248.242 78.9623 236.223C79.9723 231.577 80.4773 227.032 80.3763 222.386L97.7484 214.912C97.7484 214.912 96.9403 219.962 100.677 222.689C104.414 225.315 106.131 210.872 106.131 210.872L117.746 202.489C117.746 202.489 113.302 229.759 107.04 240.465C100.778 251.171 92.7994 251.676 92.7994 251.676L94.6173 271.876C95.7283 279.148 89.5673 282.279 82.2953 282.582C81.7903 279.047 81.2853 275.613 80.8813 272.179Z" fill="#FA9C90"/>
<path d="M77.8513 229.254L52.3993 247.535L51.6923 248.04L45.0263 241.071L70.0743 220.265L77.8513 229.254Z" fill="white"/>
<path d="M37.8552 255.716L34.2193 251.777L45.4302 241.071L51.7933 247.434L37.8552 255.716ZM132.896 191.884L77.1443 230.769L68.3572 220.77L121.382 176.128C121.382 176.128 132.694 182.895 132.896 191.884Z" fill="#523E3F"/>
<path d="M120.474 177.356C120.084 168.719 126.771 161.402 135.408 161.012C144.045 160.623 151.363 167.31 151.752 175.947C152.141 184.584 145.455 191.902 136.817 192.291C128.18 192.68 120.863 185.994 120.474 177.356Z" fill="white"/>
<path d="M125.826 164.917C141.784 170.775 144.512 186.329 145.219 189.359C144.209 190.066 143.097 190.672 141.885 191.076C141.481 190.167 141.077 189.157 140.572 188.248C138.653 182.188 135.219 177.037 130.472 172.593C128.452 170.573 126.23 168.755 123.806 167.139C124.412 166.331 125.018 165.624 125.826 164.917Z" fill="#523E3F"/>
<path d="M261.57 160.675C261.57 160.675 239.956 201.277 209.353 190.066C209.353 190.066 195.011 177.946 191.476 165.422C187.941 152.898 195.718 116.639 195.718 116.639C195.718 116.639 208.949 89.6715 224.301 89.0655C249.349 88.0555 273.892 126.84 278.74 134.718C284.093 143.202 278.134 165.927 261.57 160.675Z" fill="#FFCCAE"/>
<path d="M236.522 184.713C248.036 174.108 253.086 158.352 253.692 143.202C253.793 139.97 253.591 136.637 252.985 133.304C253.086 119.063 245.612 103.105 235.815 93.3076C234.704 92.1966 233.492 91.0856 232.179 89.9746C254.298 95.8326 274.397 127.648 278.74 134.718C283.992 143.303 278.134 165.927 261.469 160.776C261.469 160.776 248.844 184.612 229.149 190.672C231.775 188.854 234.199 186.834 236.522 184.713Z" fill="#FA9C90"/>
<path d="M250.157 72.9056C224.705 66.6436 207.03 81.0866 200.768 91.2876C194.304 101.994 193.496 115.124 193.496 115.124C206.929 117.144 219.958 95.6306 219.958 95.6306C215.413 117.548 261.57 140.98 261.57 140.98C259.55 143.909 258.54 150.878 259.651 152.292C260.762 153.706 261.974 152.393 261.974 152.393C273.286 126.84 281.871 137.142 280.76 142.495L285.81 150.373C285.709 150.373 315.807 89.1666 250.157 72.9056ZM202.889 132.496C202.485 135.829 203.596 138.657 205.212 138.859C206.929 139.061 208.646 136.536 209.05 133.203C209.454 129.87 208.343 127.042 206.727 126.84C205.01 126.638 203.293 129.163 202.889 132.496Z" fill="#523E3F"/>
<path d="M230.058 135.728C229.654 139.061 230.765 141.889 232.381 142.091C234.098 142.293 235.815 139.768 236.219 136.435C236.623 133.102 235.512 130.274 233.896 130.072C232.179 129.87 230.462 132.395 230.058 135.728Z" fill="#523E3F"/>
<path d="M215.009 136.031C215.211 135.425 215.918 135.122 216.524 135.324C217.13 135.526 217.433 136.233 217.231 136.839L211.474 152.999C211.777 153.403 212.181 154.009 212.787 154.716C213.797 155.726 215.211 156.736 217.13 156.938C217.736 157.039 218.443 157.039 219.15 156.938C219.857 156.837 220.463 157.241 220.564 157.948C220.665 158.655 220.261 159.261 219.554 159.362C218.645 159.463 217.736 159.564 216.827 159.463C214.1 159.16 212.181 157.645 210.868 156.332C209.555 155.019 209.05 153.807 208.949 153.706L208.747 153.201L215.009 136.031ZM236.32 148.858C236.118 150.474 238.845 152.09 242.481 152.494C246.016 152.898 249.147 151.989 249.349 150.373C249.551 148.757 246.824 147.141 243.188 146.737C239.552 146.333 236.522 147.242 236.32 148.858ZM191.779 143.505C191.577 145.121 194.304 146.737 197.94 147.141C201.475 147.545 204.606 146.636 204.808 145.02C205.01 143.404 202.283 141.788 198.647 141.384C195.011 140.98 191.88 141.889 191.779 143.505Z" fill="#FF7A79"/>
<path d="M274.7 147.443C274.801 146.635 274.7 145.928 274.498 145.322C274.397 145.019 274.296 144.817 274.195 144.716C274.094 144.615 273.993 144.514 273.892 144.514C273.791 144.514 273.488 144.514 273.084 144.817C272.478 145.221 271.569 146.13 270.458 147.847C270.458 147.847 272.377 148.251 272.175 150.17C271.771 153.604 268.438 156.23 265.711 155.624C265.307 155.523 265.105 155.018 265.307 154.614C267.226 150.069 268.842 147.241 270.256 145.423C270.963 144.514 271.67 143.908 272.276 143.504C272.882 143.1 273.589 142.898 274.195 142.999C274.7 143.1 275.104 143.302 275.407 143.605C275.912 144.11 276.114 144.716 276.316 145.322C276.518 146.029 276.518 146.736 276.417 147.443C276.417 147.847 276.013 148.251 275.609 148.15C275.003 148.251 274.7 147.847 274.7 147.443Z" fill="#523E3F"/>
<path d="M222.281 171.381C220.867 171.179 219.251 170.573 217.635 169.361C217.13 169.058 217.029 168.351 217.433 167.947C217.736 167.442 218.443 167.341 218.847 167.745C220.261 168.755 221.473 169.159 222.584 169.361C224.2 169.563 225.513 169.159 226.523 168.654C227.028 168.452 227.331 168.149 227.634 167.947C227.735 167.846 227.836 167.745 227.937 167.745L228.038 167.644C228.442 167.24 229.048 167.24 229.553 167.644C229.856 167.947 229.957 168.351 229.856 168.755C229.957 168.957 229.957 169.26 229.856 169.563C229.856 169.664 229.25 171.28 227.634 172.795C226.826 173.502 225.816 174.209 224.503 174.613C223.19 175.017 221.675 175.118 219.857 174.714C219.352 174.613 219.049 174.007 219.15 173.502C219.251 172.896 219.857 172.593 220.362 172.694C221.877 172.997 223.089 172.896 224.099 172.593C225.21 172.29 226.119 171.583 226.725 170.977C226.624 171.078 226.422 171.078 226.321 171.179C225.008 171.381 223.695 171.583 222.281 171.381Z" fill="#FF7A79"/>
<path d="M96.5364 220.366C96.5364 220.366 95.7284 188.247 88.6584 189.358C81.5884 190.57 82.4974 195.216 82.4974 195.216C82.4974 195.216 52.5004 215.416 52.3994 222.183C52.2984 224.506 49.7734 231.981 50.7834 235.718C51.1874 237.031 59.8734 228.951 59.8734 228.951C59.8734 228.951 66.7414 237.939 71.2864 239.454C79.5684 242.181 96.5364 220.366 96.5364 220.366Z" fill="#FFCCAE"/>
<path d="M182.184 476.906C182.184 476.906 122.897 464.28 119.766 442.363C117.746 428.223 135.219 435.496 142.996 438.627C135.421 435.294 116.736 402.671 120.372 391.864C123.402 382.976 141.683 396.005 145.925 401.257C138.855 394.591 130.169 338.839 144.309 336.112C163.701 332.375 161.58 382.673 162.792 392.167C165.115 387.42 177.942 368.23 184.608 376.411C189.961 382.875 187.234 417.114 185.719 421.457C205.313 409.337 202.485 467.816 182.184 476.906Z" fill="#ACC38C"/>
<path d="M175.922 460.846C183.396 447.009 183.295 445.494 189.254 430.344C187.335 428.324 179.558 441.656 174.407 457.715C171.478 451.453 168.448 443.979 165.721 436.707C164.307 433.071 163.095 429.233 162.085 425.496C169.155 412.366 169.155 410.649 174.912 395.802C173.094 393.883 165.923 405.902 160.772 420.85C159.56 416.002 158.449 411.053 157.338 406.104C152.793 385.298 150.975 363.987 146.531 343.08C146.329 342.373 145.218 342.272 145.218 343.08C145.218 359.846 147.642 376.713 150.571 393.176C152.288 402.771 154.308 412.366 156.732 421.759C143.4 412.467 129.765 406.811 129.563 409.437C143.198 417.921 144.107 419.335 157.843 425.698C159.358 431.253 161.075 436.707 163.095 442.06C165.014 447.211 167.337 452.766 170.064 458.422C149.46 448.221 129.967 442.161 130.674 445.191C150.874 454.18 152.692 455.796 171.983 462.361L175.922 469.633C177.639 472.663 181.477 473.673 184.608 472.158H184.709C181.881 470.845 178.952 466.603 175.922 460.846Z" fill="#95AF88"/>
<path d="M301.869 479.834C301.869 479.834 365.398 470.037 370.145 447.009C373.175 432.061 354.187 438.828 345.703 441.656C353.985 438.525 375.7 405.094 372.468 393.479C369.741 383.884 349.642 396.61 344.794 401.963C352.773 395.398 365.196 336.818 350.349 332.98C330.048 327.829 329.341 381.258 327.422 391.358C325.2 386.207 312.777 364.997 305.202 373.38C299.243 379.945 299.95 416.305 301.364 421.052C281.366 406.912 280.861 469.027 301.869 479.834Z" fill="#ACC38C"/>
<path d="M309.444 463.17C302.374 448.02 302.576 446.404 297.223 430.042C299.344 428.022 306.818 442.667 311.363 459.938C314.898 453.474 318.433 445.798 321.867 438.223C323.584 434.385 325.099 430.547 326.412 426.507C319.746 412.165 319.847 410.347 314.595 394.187C316.615 392.268 323.483 405.499 328.028 421.659C329.644 416.609 331.058 411.458 332.573 406.307C338.633 384.491 341.764 361.968 347.824 340.253C348.026 339.546 349.339 339.445 349.238 340.354C348.228 358.13 344.693 375.906 340.552 393.177C338.128 403.277 335.502 413.276 332.27 423.073C347.016 413.983 361.661 408.832 361.863 411.66C346.915 419.841 345.804 421.255 330.957 427.214C329.038 432.971 326.816 438.627 324.493 444.182C322.17 449.535 319.342 455.292 316.11 461.15C338.532 451.555 359.641 446.303 358.631 449.434C336.714 457.817 334.694 459.332 313.787 465.19C312.272 467.715 310.757 470.24 309.141 472.664C307.121 475.694 303.081 476.603 299.849 474.785H299.748C302.475 473.472 305.909 469.129 309.444 463.17Z" fill="#95AF88"/>
<path d="M119.429 85.7325V117.245C117.106 117.144 114.379 117.75 111.753 119.164C106.198 122.093 103.067 127.143 104.784 130.476C106.602 133.809 112.46 134.213 118.015 131.385C121.55 129.567 124.075 126.941 125.085 124.315V93.6105L148.618 86.5405V113.104C146.295 113.003 143.568 113.609 140.942 115.023C135.387 117.952 132.256 123.002 133.973 126.335C135.791 129.668 141.649 130.072 147.204 127.244C150.739 125.426 153.264 122.8 154.274 120.174V75.3295L119.429 85.7325ZM354.961 93.1055V124.618C352.638 124.517 349.911 125.123 347.285 126.537C341.73 129.466 338.599 134.516 340.316 137.849C342.134 141.182 347.992 141.586 353.547 138.758C357.082 136.94 359.607 134.314 360.617 131.688V100.984L384.15 93.9135V120.477C381.827 120.376 379.1 120.982 376.474 122.396C370.919 125.325 367.788 130.375 369.505 133.708C371.323 137.041 377.181 137.445 382.736 134.617C386.271 132.799 388.796 130.173 389.806 127.547V82.7025L354.961 93.1055ZM235.074 19.4765L209.925 15.1335V52.3015C207.198 52.2005 203.966 52.9075 200.835 54.5235C194.27 57.9575 190.634 63.9165 192.654 67.8555C194.775 71.7945 201.744 72.2995 208.208 68.8655C212.349 66.7445 215.379 63.6135 216.49 60.5835V24.5265L235.074 27.4555V19.4765Z" fill="white"/>
</svg>
