<svg width="439" height="488" viewBox="0 0 439 488" fill="none" xmlns="http://www.w3.org/2000/svg">
<path d="M429.216 203.1C429.216 90.9 333.716 0 215.916 0C98.1158 0 2.71582 91 2.71582 203.1V284C2.71582 396.2 98.2158 487.1 216.016 487.1C333.816 487.1 429.316 396.2 429.316 284C429.216 277.6 429.216 209.6 429.216 203.1Z" fill="#ACC38C"/>
<path d="M310.116 456.1C328.016 441.3 423.716 430.8 431.416 399.9C436.416 379.9 410.316 387.8 398.716 391.2C410.116 387.5 441.616 343.6 437.816 327.6C434.716 314.4 406.716 330.4 399.916 337.3C411.016 328.8 431.516 250.4 411.616 244.4C384.516 236.2 380.216 308.4 377.016 321.9C374.316 314.7 358.916 285.4 348.016 296.2C339.516 304.7 338.316 354 339.916 360.4C313.716 340.3 312.616 383 318.516 400C324.116 416 288.416 457.1 310.116 456.1Z" fill="#FFCC7A"/>
<path d="M344.916 425.9L350.616 415.7C344.616 403.6 338.716 391.5 333.516 379C333.116 378 334.416 376.9 335.116 377.9C342.116 387.9 348.316 398.5 354.116 409.3C358.516 401.4 362.816 393.4 366.516 385.1C367.916 382 369.216 379 370.516 375.9C364.116 355.5 357.016 335.4 351.816 314.8C351.516 313.8 353.016 312.9 353.616 314C362.016 330.9 368.516 348.9 374.316 366.9C377.416 358.9 380.316 350.8 383.016 342.6C392.516 313.5 398.216 283.2 407.716 254.1C408.016 253.1 409.816 253.1 409.616 254.3C407.116 278.3 401.216 302.1 394.616 325.2C390.416 339.9 385.616 354.5 380.116 368.8C392.816 361.6 405.616 354.3 418.716 347.9C419.616 347.4 420.816 348.7 419.916 349.4C406.316 360.1 391.516 369.4 376.316 378C374.216 383.1 371.916 388.2 369.616 393.2C366.416 400 363.016 406.8 359.216 413.4C372.216 411.7 385.216 410.1 398.316 409.3C399.316 409.2 399.916 410.9 398.816 411.2C384.616 415.2 370.016 418 355.316 420.1C355.416 419.9 355.516 419.6 355.516 419.4C353.516 422.6 351.316 425.8 349.016 428.9C347.316 431.4 343.516 428.5 344.916 425.9Z" fill="#FFAC7A"/>
<path d="M301.616 468.2C301.616 468.2 368.416 464.5 375.616 441.2C380.316 426.1 359.916 431.1 350.916 433.2C359.816 430.8 385.716 398.5 383.516 386.1C381.716 375.9 359.516 387 354.016 392C362.916 386 381.816 326.7 366.816 321.2C346.316 313.8 340.116 369 337.116 379.2C335.316 373.6 324.716 350.5 315.916 358.3C309.016 364.5 306.116 402.2 307.116 407.2C287.816 390.7 281.016 454.9 301.616 468.2Z" fill="#FF7A79"/>
<path d="M311.116 451.7C305.316 435.4 305.716 433.7 301.816 416.2C304.216 414.3 310.516 430.2 313.416 448.5C317.716 442.2 322.216 434.6 326.516 427.1C328.716 423.3 330.616 419.4 332.416 415.5C326.916 400 327.316 398.1 323.416 380.9C325.716 379.1 331.516 393.5 334.516 410.6C336.716 405.5 338.716 400.3 340.716 395.1C349.216 373.2 354.816 350.2 363.216 328.3C363.516 327.6 364.816 327.7 364.716 328.6C361.816 346.9 356.316 364.9 350.316 382.4C346.816 392.6 343.016 402.7 338.716 412.5C354.816 404.6 370.616 400.7 370.516 403.7C354.216 410.6 352.916 412 336.916 416.6C334.316 422.3 331.516 428 328.416 433.5C325.516 438.8 322.016 444.5 318.016 450.2C342.216 442.5 364.516 439.2 363.216 442.4C339.616 448.8 337.416 450.2 315.216 454.1C313.416 456.6 311.516 459 309.616 461.4C307.216 464.4 302.916 464.9 299.816 462.6H299.716C302.916 461.7 306.816 457.5 311.116 451.7Z" fill="#FFAC7A"/>
<path d="M119.616 400C125.416 383 124.316 340.3 98.216 360.4C99.816 354 98.616 304.7 90.116 296.2C79.316 285.4 63.816 314.7 61.116 321.9C57.916 308.4 53.616 236.2 26.516 244.4C6.61604 250.4 27.116 328.9 38.216 337.3C31.416 330.4 3.41604 314.4 0.316036 327.6C-3.48396 343.6 28.016 387.5 39.416 391.2C27.916 387.9 1.71603 380 6.71603 399.9C14.416 430.8 110.116 441.3 128.016 456.1C149.816 457.1 114.116 416 119.616 400Z" fill="#FFCC7A"/>
<path d="M89.0161 429C86.7161 425.9 84.6161 422.8 82.5161 419.5C82.6161 419.7 82.7161 420 82.7161 420.2C68.0161 418.1 53.4161 415.3 39.2161 411.3C38.1161 411 38.7161 409.4 39.7161 409.4C52.8161 410.3 65.8161 411.8 78.8161 413.5C75.0161 406.9 71.6161 400.1 68.4161 393.3C66.0161 388.3 63.8161 383.2 61.7161 378.1C46.6161 369.5 31.8161 360.1 18.1161 349.5C17.2161 348.8 18.4161 347.5 19.3161 348C32.5161 354.4 45.2161 361.6 57.9161 368.9C52.4161 354.6 47.6161 340 43.4161 325.3C36.8161 302.2 30.9161 278.4 28.4161 254.4C28.3161 253.2 30.0161 253.2 30.3161 254.2C39.8161 283.3 45.4161 313.5 55.0161 342.7C57.7161 350.9 60.6161 359 63.7161 367C69.4161 348.9 76.0161 331 84.4161 314.1C84.9161 313 86.4161 313.9 86.2161 314.9C80.9161 335.6 73.8161 355.7 67.5161 376C68.8161 379.1 70.1161 382.2 71.5161 385.2C75.3161 393.5 79.5161 401.5 83.9161 409.4C89.7161 398.6 96.0161 388 102.916 378C103.616 377 104.916 378.1 104.516 379.1C99.3161 391.5 93.4161 403.7 87.4161 415.8L93.1161 426C94.7161 428.5 90.9161 431.4 89.0161 429Z" fill="#FFAC7A"/>
<path d="M131.116 407.2C132.116 402.2 129.216 364.5 122.316 358.3C113.616 350.5 102.916 373.6 101.116 379.2C98.116 369 91.916 313.8 71.416 321.2C56.416 326.6 75.316 385.9 84.216 392C78.716 387 56.616 375.9 54.716 386.1C52.516 398.5 78.416 430.9 87.316 433.2C78.316 431.1 57.916 426.1 62.616 441.2C69.816 464.6 136.616 468.2 136.616 468.2C157.216 454.9 150.416 390.7 131.116 407.2Z" fill="#FF7A79"/>
<path d="M138.416 462.6C135.216 464.9 130.916 464.4 128.516 461.4C126.616 459 124.716 456.6 122.916 454.1C100.816 450.2 98.5162 448.8 74.9162 442.4C73.5162 439.2 95.9162 442.5 120.116 450.2C116.216 444.5 112.716 438.8 109.716 433.5C106.716 428 103.916 422.3 101.216 416.6C85.2162 412 83.9162 410.6 67.6162 403.7C67.5162 400.7 83.2162 404.6 99.4162 412.5C95.1162 402.6 91.3162 392.5 87.8162 382.4C81.8162 364.9 76.3162 346.9 73.4162 328.6C73.3162 327.7 74.6162 327.6 74.9162 328.3C83.3162 350.2 88.9162 373.2 97.4162 395.1C99.4162 400.3 101.416 405.5 103.616 410.6C106.616 393.4 112.516 379.1 114.716 380.9C110.916 398.1 111.216 400 105.716 415.5C107.516 419.4 109.516 423.3 111.616 427.1C115.916 434.6 120.416 442.2 124.716 448.5C127.616 430.2 133.916 414.3 136.316 416.2C132.416 433.7 132.816 435.4 127.016 451.7C131.416 457.5 135.316 461.7 138.416 462.6Z" fill="#FFAC7A"/>
<path d="M141.616 383.7L124.016 467.4C149.216 478.9 177.116 485.8 206.616 487C208.416 472.7 209.516 462.1 209.216 461.8L218.816 487.1C249.016 486.7 277.616 480.4 303.516 469.3L277.216 390.2L141.616 383.7Z" fill="#395798"/>
<path d="M317.716 213.5C317.716 213.5 302.316 177.5 227.916 166.1C192.916 160.8 153.516 167.6 121.616 176.3L125.716 258.3L139.816 325.5L119.716 387.2C119.716 387.2 195.116 433.4 294.416 388.9L270.916 343.1L301.716 258.6L317.716 213.5Z" fill="white"/>
<path d="M271.716 135.6C280.416 129.7 280.316 113.3 273.216 93.4C281.216 82 279.316 62.1 267.516 44.9C255.516 27.4 237.216 18.5 223.616 22.4C208.216 9.69998 193.816 4.49998 185.516 10.2C171.716 19.6 179.916 55.4 203.716 90C227.516 124.6 257.916 145 271.716 135.6Z" fill="#395798"/>
<path d="M263.316 95.1C265.716 112.6 236.716 141.4 236.716 141.4L220.616 136.2L214.416 68.9C214.316 68.8 259.516 67.4 263.316 95.1Z" fill="#523E3F"/>
<path d="M208.216 126.4L194.616 168.3C194.616 168.3 189.716 190.8 213.416 193.3C237.116 195.7 243.716 171.1 243.716 171.1L242.716 115.3C242.616 115.3 219.316 106.2 208.216 126.4Z" fill="#FFCCAE"/>
<path d="M201.616 133.3C209.516 118.8 230.416 112.5 237.816 114V114.1C237.816 114.1 241.016 161.9 216.516 165C196.816 167.5 201.616 133.3 201.616 133.3Z" fill="#FA9C90"/>
<path d="M243.216 116.8C243.216 116.8 231.716 149.4 208.316 149.5C184.816 149.7 179.016 127.3 177.916 113.9C176.816 100.5 176.016 60.3 198.716 57.9C221.416 55.6 249.116 84.3 254.716 90.6C260.816 97.6 258.916 118.9 243.216 116.8Z" fill="#FFCCAE"/>
<path d="M254.716 90.7C252.316 87.9 245.616 80.9 237.016 74.1C237.116 79.5 234.816 180.6 235.016 184.8V185.8C241.416 179.3 243.716 171.1 243.716 171.1L242.716 118.1C243.016 117.3 243.216 116.8 243.216 116.8C258.916 118.9 260.816 97.6 254.716 90.7Z" fill="#FA9C90"/>
<path d="M208.116 34.3C198.916 34.4 201.816 43.9 201.816 43.9C201.816 43.9 180.116 28.1 171.316 38.3C162.516 48.5 179.916 55.9 179.916 55.9C163.216 60.6 167.916 78.4 179.716 79.3C179.716 79.3 183.916 63.5 188.816 66.2C188.816 66.2 186.916 73.1 193.016 76.9C205.716 84.7 234.716 86.1 234.716 86.1C233.016 100.3 240.116 99.1 240.116 99.1C238.716 102 238.916 108.5 240.116 109.5C241.316 110.6 242.216 109.3 242.216 109.3C248.516 84.6 257.816 92.5 257.616 97.5C257.616 97.5 259.316 89.2 261.116 73.6C262.916 58 217.316 34.2 208.116 34.3Z" fill="#523E3F"/>
<path d="M192.946 101.316C193.058 98.2804 191.896 95.7733 190.351 95.7161C188.806 95.6589 187.462 98.0733 187.349 101.109C187.237 104.144 188.399 106.651 189.944 106.709C191.489 106.766 192.833 104.351 192.946 101.316Z" fill="#523E3F"/>
<path d="M218.024 102.293C218.136 99.2575 216.974 96.7503 215.429 96.6931C213.884 96.6359 212.54 99.0503 212.428 102.086C212.315 105.121 213.477 107.628 215.022 107.686C216.568 107.743 217.911 105.328 218.024 102.293Z" fill="#523E3F"/>
<path d="M198.516 103.3C198.716 102.7 199.316 102.4 199.916 102.5C200.516 102.7 200.816 103.3 200.716 103.9L196.716 119C197.016 119.3 197.416 119.9 198.016 120.4C199.016 121.3 200.416 122.1 202.216 122.1C202.816 122.1 203.416 122.1 204.016 121.9C204.616 121.8 205.216 122.1 205.316 122.7C205.416 123.3 205.116 123.9 204.516 124C203.616 124.2 202.816 124.3 202.116 124.3C199.616 124.2 197.716 123 196.516 121.9C195.216 120.8 194.616 119.7 194.616 119.7L194.416 119.3L198.516 103.3Z" fill="#FF7A79"/>
<path d="M253.616 101.1C253.616 100.4 253.416 99.7 253.116 99.2C253.016 99 252.816 98.8 252.716 98.7C252.616 98.6 252.516 98.6 252.416 98.6C252.316 98.6 252.016 98.6 251.716 98.9C251.216 99.3 250.416 100.3 249.716 102C249.716 102 251.516 102.1 251.516 103.9C251.516 107.1 248.816 109.8 246.316 109.6C245.916 109.6 245.716 109.1 245.816 108.7C247.016 104.4 248.216 101.6 249.216 99.7C249.716 98.8 250.316 98.1 250.816 97.7C251.316 97.3 251.916 97 252.516 97C252.916 97 253.316 97.2 253.616 97.4C254.116 97.8 254.416 98.3 254.616 98.9C254.816 99.5 254.916 100.1 255.016 100.8C255.016 101.2 254.716 101.5 254.316 101.6C254.016 101.8 253.616 101.5 253.616 101.1Z" fill="#523E3F"/>
<path d="M231.033 114.091C231.088 112.601 228.448 111.293 225.137 111.171C221.825 111.048 219.096 112.157 219.041 113.647C218.986 115.137 221.625 116.445 224.937 116.567C228.248 116.69 230.977 115.581 231.033 114.091Z" fill="#FF7A79"/>
<path d="M189.914 112.494C189.969 111.004 187.329 109.696 184.018 109.574C180.706 109.451 177.977 110.56 177.922 112.05C177.867 113.54 180.507 114.847 183.818 114.97C187.13 115.092 189.859 113.984 189.914 112.494Z" fill="#FF7A79"/>
<path d="M191.116 164.2C113.816 167.2 110.116 182.8 110.116 182.8L46.2158 256.9L59.1158 298.3C59.1158 298.3 118.216 259 118.716 258.6L135.116 335.3L86.7158 431.2C103.016 455.2 160.316 457.7 160.316 457.7L180.316 351.2L191.116 164.2Z" fill="#6C92E5"/>
<path d="M57.6162 293.3L59.2162 298.3C59.2162 298.3 118.316 259 118.816 258.6L135.216 335.3L86.8162 431.2C90.7162 437 97.0162 441.5 104.316 445C106.016 440.7 150.116 334.6 150.116 334.6C150.116 334.6 138.516 269.4 129.016 223C106.516 247.8 83.1162 271.6 57.6162 293.3Z" fill="#517FE5"/>
<path d="M182.016 335.1L156.616 231.5L170.316 218.4L151.116 195L174.016 167.2C180.616 165.3 184.616 163.9 191.316 164.1C191.116 164.8 182.016 335.1 182.016 335.1Z" fill="#395798"/>
<path d="M356.116 277.5L323.216 197.1C323.216 197.1 270.816 175.2 245.616 169.4C245.716 170.1 236.116 357.6 236.116 357.6L255.416 462.6C255.416 462.6 306.016 462.4 325.316 430.2L286.116 331.9C286.116 331.9 303.816 274.7 303.716 271.9L329.316 316.2L356.116 277.5Z" fill="#6C92E5"/>
<path d="M329.316 316.3L336.416 306C322.816 282.1 311.816 256.6 301.216 231C286.716 273.9 264.216 338.2 262.116 342.8C281.816 374.8 296.816 409.5 315.116 442.3C318.916 438.9 322.416 434.9 325.216 430.3L286.116 331.9C286.116 331.9 303.816 274.7 303.716 271.9L329.316 316.3Z" fill="#517FE5"/>
<path d="M236.816 334.9L273.916 242.4L255.916 223.3L281.716 208.7L264.216 177.7C258.516 174 252.416 171 246.016 169.2C246.016 169.9 236.816 334.9 236.816 334.9Z" fill="#395798"/>
<path d="M385.516 217C385.516 217 388.516 198.4 394.616 197.1C400.616 195.8 409.416 185.5 409.416 185.5C409.416 185.5 411.516 176.5 411.916 175.5C412.316 174.4 413.716 170.8 415.416 170.2C417.116 169.6 419.116 164.7 412.816 166.8L413.316 163.1C413.316 163.1 409.316 156.6 406.516 157.7C403.716 158.8 406.316 163.3 407.016 165.4C405.316 169.4 405.016 171.1 405.016 171.1C405.016 171.1 402.316 174.2 402.616 173.2C402.916 172.2 406.516 165.2 403.016 164C399.516 162.8 396.016 161.8 394.916 165.8C393.016 164.3 387.216 161.6 385.616 167.2C385.616 167.2 379.716 161.9 377.116 168.3L375.116 175.7C375.116 175.7 366.816 182.6 364.716 188.7C362.616 194.8 367.116 199.5 367.116 199.5L364.216 204.4L385.516 217Z" fill="#FFCCAE"/>
<path d="M412.816 166.8L413.316 163.1C413.316 163.1 409.316 156.6 406.516 157.7C406.116 157.9 405.816 158.1 405.616 158.4L405.316 160.8C405.616 162.4 406.516 164.3 406.916 165.4C405.216 169.4 404.916 171.1 404.916 171.1C404.916 171.1 402.216 174.2 402.516 173.2C402.716 172.4 405.116 167.9 404.216 165.4C402.016 173.4 397.516 181.1 392.116 186.6C389.216 189.5 385.716 192.1 382.016 194.1C380.116 199.9 377.816 205.6 375.216 211.1L385.316 217.1C385.316 217.1 388.316 198.5 394.416 197.2C400.416 195.9 409.216 185.6 409.216 185.6C409.216 185.6 411.316 176.6 411.716 175.6C412.116 174.5 413.516 170.9 415.216 170.3C417.016 169.6 419.016 164.7 412.816 166.8Z" fill="#FA9C90"/>
<path d="M364.716 203.5L388.216 214.3L367.116 301.3C367.116 301.3 345.616 321.6 332.516 316.6C319.416 311.6 320.416 279.6 320.416 279.6L364.716 203.5Z" fill="#6C92E5"/>
<path d="M376.916 209.2C374.216 240 362.816 268.1 350.616 296.4C347.616 303.2 344.716 310.1 341.716 316.9C353.816 314 367.116 301.4 367.116 301.4L388.216 214.4L376.916 209.2Z" fill="#517FE5"/>
<path d="M57.0161 182.4L53.5161 167.7C53.5161 167.7 61.9161 165.6 68.0161 158.1C74.1161 150.6 80.7161 130.1 80.7161 130.1L70.7161 135.2C70.7161 135.2 67.7161 146.2 65.1161 143.7C62.5161 141.2 63.7161 137.4 63.7161 137.4L42.5161 142.9L26.3161 148.8C26.3161 148.8 25.5161 156.4 27.0161 160.7C28.5161 165 28.7161 179.2 28.7161 179.2L57.0161 182.4Z" fill="#FFCCAE"/>
<path d="M73.1162 134C70.7162 140 67.0162 145.6 62.9162 149.8C55.9162 156.8 46.1162 161.5 36.1162 162.8C37.6162 168.6 38.6162 174.4 39.5162 180.3L57.0162 182.3L53.5162 167.6C53.5162 167.6 61.9162 165.5 68.0162 158C74.1162 150.5 80.7162 130 80.7162 130L73.1162 134Z" fill="#FA9C90"/>
<path d="M46.9162 146.2L25.1162 157.2L24.4162 157.6L20.1162 151.5L41.8162 138.3L46.9162 146.2Z" fill="white"/>
<path d="M12.9161 161.9L10.5161 158.4L20.5161 151.5L24.6161 157.1L12.9161 161.9ZM93.7161 123.9L46.1161 147.3L40.5161 138.6L86.7161 110.4C86.7161 110.4 94.6161 116.9 93.7161 123.9Z" fill="#395798"/>
<path d="M106.516 103.6C101.716 98.9 93.9161 99.1 89.3161 103.9C87.4161 105.9 86.3161 108.4 86.0161 110.9C88.9161 114.8 91.3161 119.1 93.2161 123.5C97.7161 125.5 103.216 124.6 106.816 120.8C111.516 116 111.416 108.3 106.516 103.6Z" fill="white"/>
<path d="M91.4162 102.2C103.016 108.6 103.316 120.9 103.516 123.3C102.616 123.7 101.716 124.1 100.716 124.3C100.516 123.5 100.316 122.7 100.016 122C99.2162 117.1 97.2162 112.7 94.1162 108.7C92.8162 106.9 91.3162 105.2 89.6162 103.7C90.1162 103.1 90.7162 102.7 91.4162 102.2Z" fill="#395798"/>
<path d="M62.316 141.5C62.316 141.5 65.416 116.6 59.916 116.7C54.316 116.8 54.416 120.5 54.416 120.5C54.416 120.5 28.916 132.6 28.016 137.8C27.716 139.6 24.816 145.1 25.216 148C25.316 149.1 33.016 143.9 33.016 143.9C33.016 143.9 37.316 151.6 40.616 153.3C46.616 156.4 62.316 141.5 62.316 141.5Z" fill="#FFCCAE"/>
<path d="M59.8158 116.7C57.2158 116.7 55.9158 117.5 55.1158 118.4C56.7158 121.2 57.6158 124.5 57.8158 127.9C58.2158 137.1 50.9158 145.1 42.2158 147.2C43.4158 149.1 44.6158 151.1 45.7158 153C52.8158 150.4 62.2158 141.5 62.2158 141.5C62.2158 141.5 65.4158 116.6 59.8158 116.7Z" fill="#FA9C90"/>
<path d="M78.5158 274.4L56.6158 175.9L28.7158 178.8L27.2158 280.6C31.1158 289.3 59.7158 299.4 59.7158 299.4C59.7158 299.4 68.0158 291.1 78.5158 274.4Z" fill="#6C92E5"/>
<path d="M64.7162 293.7C68.1162 289.6 73.0162 283.2 78.5162 274.4L56.6162 175.9L43.6162 177.3C54.2162 215.3 60.4162 254.4 64.7162 293.7Z" fill="#517FE5"/>
<path d="M204.616 134.4C203.316 134.2 201.816 133.7 200.316 132.6C199.916 132.3 199.816 131.7 200.116 131.3C200.416 130.9 201.016 130.8 201.416 131.1C202.716 132 203.816 132.4 204.816 132.6C206.316 132.8 207.516 132.4 208.416 132C208.816 131.8 209.216 131.5 209.416 131.3L209.616 131.1L209.716 131C210.116 130.6 210.716 130.6 211.116 131C211.416 131.3 211.516 131.7 211.316 132C211.416 132.2 211.416 132.5 211.316 132.8C211.316 132.9 210.716 134.4 209.316 135.7C208.616 136.4 207.616 137 206.416 137.4C205.216 137.8 203.816 137.9 202.116 137.5C201.997 137.479 201.885 137.432 201.787 137.362C201.689 137.292 201.608 137.201 201.55 137.095C201.493 136.989 201.46 136.872 201.454 136.751C201.448 136.631 201.469 136.511 201.516 136.4C201.616 135.9 202.116 135.5 202.616 135.6C204.016 135.9 205.116 135.8 206.016 135.5C207.016 135.2 207.816 134.6 208.416 134C208.316 134.1 208.116 134.1 208.016 134.2C207.116 134.4 206.016 134.6 204.616 134.4Z" fill="#FF7A79"/>
</svg>
