<svg width="546" height="467" viewBox="0 0 546 467" fill="none" xmlns="http://www.w3.org/2000/svg">
<path d="M406.46 193.27C406.46 86.57 315.6 0 203.51 0C91.4197 0 0.669678 86.57 0.669678 193.27V270.27C0.669678 376.97 91.5297 463.54 203.62 463.54C315.71 463.54 406.57 377.08 406.57 270.27C406.46 264.11 406.46 199.32 406.46 193.27Z" fill="#ACC38C"/>
<path d="M295.909 437.25C313.069 422.62 405.909 411.07 412.949 380.93C417.569 361.46 392.269 369.49 381.049 372.9C392.049 369.16 421.969 326.04 418.119 310.64C414.929 297.88 387.979 313.83 381.489 320.65C392.159 312.29 410.969 235.84 391.499 230.23C364.989 222.64 361.909 292.82 359.049 306.02C356.299 299.09 340.899 270.82 330.559 281.49C322.419 289.85 321.979 337.7 323.629 343.97C297.889 324.83 297.449 366.3 303.389 382.69C308.889 398.09 274.789 438.57 295.909 437.25Z" fill="#FFCC7A"/>
<path d="M329.24 407.33C331 403.92 332.87 400.62 334.63 397.32C328.58 385.66 322.75 374 317.47 362.01C317.03 361.13 318.35 360.03 319.01 360.91C325.94 370.59 332.21 380.71 337.93 391.16C342.11 383.35 346.07 375.54 349.7 367.4C351.02 364.43 352.23 361.46 353.44 358.38C346.95 338.69 339.8 319.22 334.3 299.31C334.08 298.32 335.51 297.44 335.95 298.43C344.31 314.71 351.02 332.09 356.74 349.58C359.71 341.77 362.35 333.85 364.88 325.93C373.68 297.55 378.74 268.07 387.54 239.69C387.87 238.7 389.52 238.7 389.41 239.91C387.32 263.23 381.93 286.44 375.88 308.99C372.03 323.29 367.63 337.59 362.46 351.56C374.67 344.3 386.99 337.15 399.64 330.77C400.52 330.33 401.73 331.54 400.85 332.31C387.76 342.87 373.57 352.11 358.94 360.8C356.96 365.75 354.87 370.7 352.56 375.65C349.48 382.36 346.29 388.96 342.77 395.45C355.42 393.58 367.96 391.93 380.72 390.94C381.71 390.83 382.37 392.48 381.27 392.81C367.52 396.88 353.44 399.85 339.14 402.16C339.25 401.94 339.25 401.72 339.36 401.5C337.38 404.69 335.4 407.77 333.2 410.85C331.66 412.72 327.92 409.86 329.24 407.33Z" fill="#FFAC7A"/>
<path d="M276 444.18C276 444.18 340.02 454.85 351.79 434.17C359.38 420.86 339.03 421.3 330.12 421.3C339.03 420.86 370.49 395.67 370.93 383.46C371.37 373.34 348.05 379.28 341.78 382.8C351.46 378.95 381.93 326.7 368.84 318.45C351.02 307.12 333.42 358.16 328.47 367.18C328.03 361.46 322.75 337.37 312.85 342.87C305.04 347.27 294.26 382.36 294.15 387.31C279.3 367.84 259.28 427.24 276 444.18Z" fill="#8F76C9"/>
<path d="M288.43 430.54C286.34 413.82 287.11 412.28 287.11 394.9C289.75 393.58 292.39 410.08 291.29 428.01C296.68 422.95 302.62 416.68 308.23 410.41C311.09 407.33 313.73 404.03 316.26 400.62C314.39 384.78 315.05 383.02 315.05 365.97C317.58 364.76 320.11 379.61 319.34 396.55C322.53 392.15 325.5 387.64 328.47 383.24C341.12 364.21 351.24 343.64 363.89 324.61C364.33 323.95 365.54 324.39 365.21 325.16C358.61 341.88 349.59 357.83 340.24 373.12C334.74 382.03 329.02 390.83 322.86 399.19C339.8 395.12 355.64 394.79 354.87 397.54C337.93 400.62 336.5 401.72 320.33 402.71C316.59 407.55 312.74 412.39 308.67 417.01C304.82 421.41 300.2 426.03 295.36 430.65C319.89 428.45 341.78 430.1 339.8 432.85C316.15 433.95 313.73 434.72 291.84 433.84C289.64 435.82 287.33 437.69 285.02 439.56C282.05 441.87 277.87 441.43 275.45 438.68C278.64 438.35 283.15 435.16 288.43 430.54Z" fill="#BD95C9"/>
<path d="M115.07 382.69C121.01 366.3 120.57 324.83 94.8297 343.97C96.4797 337.7 96.0397 289.85 87.8997 281.49C77.5597 270.82 62.1597 299.09 59.4097 306.02C56.4397 292.82 53.3597 222.64 26.9597 230.23C7.48967 235.84 26.2997 312.29 36.9697 320.65C30.4797 313.83 3.52967 297.88 0.339669 310.64C-3.51033 326.15 26.4097 369.16 37.4097 372.9C26.2997 369.49 0.999669 361.46 5.50967 380.93C12.5497 411.07 105.39 422.62 122.55 437.25C143.56 438.57 109.46 398.09 115.07 382.69Z" fill="#FFCC7A"/>
<path d="M84.9297 410.3C82.7297 407.33 80.7497 404.14 78.7697 400.95C78.8797 401.17 78.8797 401.39 78.9897 401.61C64.7997 399.3 50.6097 396.44 36.8597 392.26C35.7597 391.93 36.4197 390.39 37.4097 390.39C50.0597 391.38 62.7097 393.14 75.3597 394.9C71.8397 388.41 68.6497 381.81 65.5697 375.1C63.3697 370.15 61.2797 365.2 59.1897 360.25C44.6697 351.67 30.3697 342.32 17.2797 331.76C16.3997 330.99 17.6097 329.78 18.4897 330.22C31.1397 336.6 43.4597 343.86 55.6697 351.01C50.4997 337.04 46.0997 322.85 42.2497 308.44C36.1997 286.33 30.8097 263.12 28.7197 239.8C28.6097 238.7 30.2597 238.7 30.5897 239.58C39.3897 267.96 44.4497 297.44 53.2497 325.82C55.6697 333.74 58.4197 341.66 61.3897 349.47C67.2197 331.98 73.8197 314.71 82.1797 298.32C82.7297 297.33 84.1597 298.21 83.8297 299.2C78.4397 319.22 71.1797 338.69 64.6897 358.27C65.8997 361.24 67.1097 364.32 68.4297 367.29C71.9497 375.43 76.0197 383.24 80.1997 391.05C86.0297 380.6 92.1897 370.48 99.1197 360.8C99.7797 359.92 101.1 361.02 100.66 361.9C95.5997 374 89.6597 385.66 83.7197 397.32C85.4797 400.62 87.3497 404.03 89.1097 407.33C90.4297 409.86 86.6897 412.72 84.9297 410.3Z" fill="#FFAC7A"/>
<path d="M124.31 387.53C124.2 382.58 113.42 347.49 105.61 343.09C95.7097 337.48 90.4297 361.68 89.9897 367.4C84.9297 358.38 67.4397 307.34 49.6197 318.67C36.5297 327.03 66.9997 379.28 76.6797 383.02C70.4097 379.5 47.0897 373.56 47.5297 383.68C48.0797 395.89 79.4297 421.08 88.3397 421.52C79.4297 421.41 58.9697 420.97 66.6697 434.39C78.4397 455.07 142.46 444.4 142.46 444.4C159.18 427.24 139.05 367.84 124.31 387.53Z" fill="#8F76C9"/>
<path d="M143.01 438.46C140.48 441.32 136.3 441.76 133.33 439.45C131.02 437.58 128.71 435.71 126.51 433.73C104.73 434.72 102.2 433.84 78.5495 432.74C76.5695 429.99 98.4595 428.34 122.99 430.54C118.04 426.03 113.53 421.3 109.68 416.9C105.61 412.28 101.76 407.55 98.0195 402.6C81.8495 401.61 80.3095 400.62 63.4795 397.43C62.7095 394.68 78.4395 395.01 95.4895 399.08C89.2195 390.72 83.4995 382.03 78.1095 373.12C68.7595 357.83 59.7395 341.88 53.1395 325.16C52.8095 324.39 54.0195 323.95 54.4595 324.61C67.1095 343.64 77.2295 364.21 89.8795 383.24C92.8495 387.75 95.9295 392.26 99.0095 396.55C98.2395 379.61 100.77 364.76 103.3 365.97C103.3 383.13 104.07 384.78 102.09 400.62C104.62 404.03 107.26 407.22 110.12 410.41C115.73 416.57 121.67 422.95 127.06 428.01C125.96 410.08 128.49 393.69 131.24 394.9C131.24 412.39 132.01 413.82 129.92 430.54C135.2 435.16 139.82 438.35 143.01 438.46Z" fill="#BD95C9"/>
<path d="M150.709 40.7L121.119 35.64V79.42C117.929 79.31 114.079 80.08 110.449 82.06C102.749 86.02 98.4594 93.06 100.769 97.79C103.189 102.41 111.439 102.96 119.029 99C123.869 96.47 127.389 92.73 128.819 89.21V46.64L150.709 50.05V40.7ZM302.949 107.03V138.82C300.639 138.71 297.889 139.26 295.139 140.69C289.529 143.55 286.449 148.72 288.099 152.13C289.859 155.54 295.909 155.87 301.409 153.01C304.929 151.14 307.459 148.5 308.449 145.86V114.95L332.099 107.8V134.64C329.789 134.53 327.039 135.08 324.289 136.51C318.679 139.37 315.599 144.54 317.249 147.95C319.009 151.36 325.059 151.69 330.559 148.83C334.079 146.96 336.609 144.32 337.599 141.68V96.36L302.949 107.03ZM55.2294 161.92V193.71C52.9194 193.6 50.1694 194.15 47.4194 195.58C41.8094 198.44 38.7294 203.61 40.3794 207.02C42.1394 210.43 48.1894 210.76 53.6894 207.9C57.2094 206.03 59.7394 203.39 60.7294 200.75V169.84L84.3794 162.69V189.64C82.0694 189.53 79.3194 190.08 76.5694 191.51C70.9594 194.37 67.8794 199.54 69.5294 202.95C71.2894 206.36 77.3394 206.69 82.8394 203.83C86.3594 201.96 88.8894 199.32 89.8794 196.68V151.36L55.2294 161.92Z" fill="white"/>
<path d="M347.719 242.44C347.719 242.44 310.759 172.7 193.939 183.59C193.939 183.59 255.869 276.32 312.629 288.31C312.629 288.31 349.919 302.28 383.579 281.82C417.239 261.36 399.969 229.68 399.969 229.68L347.719 242.44Z" fill="#FF7A79"/>
<path d="M400.079 229.68L397.329 230.34C400.299 241.23 402.389 254.54 396.229 263.78C384.899 280.83 350.689 294.36 309.879 282.59C314.719 199.54 216.819 185.13 196.689 187.44C208.679 204.49 258.509 271.7 306.359 286.66C306.469 286.66 306.579 286.77 306.689 286.77C307.239 286.99 307.789 287.1 308.339 287.32C308.669 287.43 308.999 287.43 309.219 287.54C309.659 287.65 309.989 287.76 310.429 287.87C311.199 288.09 311.859 288.2 312.629 288.42H312.849C312.959 288.42 312.959 288.42 313.069 288.53H313.179C313.289 288.53 313.399 288.64 313.509 288.64C313.619 288.64 313.729 288.75 313.839 288.75C313.949 288.75 314.059 288.86 314.169 288.86C314.389 288.97 314.499 288.97 314.719 289.08C314.829 289.08 314.939 289.19 315.049 289.19C315.599 289.3 316.149 289.52 316.809 289.74C316.919 289.74 316.919 289.74 317.029 289.85C317.359 289.96 317.799 290.07 318.239 290.18C318.349 290.18 318.459 290.18 318.569 290.29C319.009 290.4 319.449 290.51 319.999 290.62C320.109 290.62 320.219 290.62 320.219 290.73C320.549 290.84 320.769 290.84 321.099 290.95C333.969 293.81 359.709 296.67 383.689 282.15C417.349 261.47 400.079 229.68 400.079 229.68Z" fill="#E2637E"/>
<path d="M122.66 209.88C122.66 209.88 149.94 183.26 206.92 183.26C263.9 183.26 291.95 230.67 296.9 253.66C306.03 296.01 314.5 369.82 288.21 446.16C277.87 449.9 255.87 459.69 227.6 463.1C194.38 467.06 152.58 463.1 111.55 441.98C119.58 446.05 181.51 380.71 122.66 209.88Z" fill="#FFCC7A"/>
<path d="M194.71 464.2C244.43 368.06 160.83 214.94 159.95 197.12C159.84 194.7 160.06 192.28 160.61 189.86C135.09 197.78 122.66 209.88 122.66 209.88C122.66 209.88 176.23 383.35 104.51 438.35C130.47 453.53 162.81 461.45 194.71 464.2ZM296.9 253.66C282.38 194.48 241.24 183.59 228.81 183.92C228.81 183.92 308.01 334.51 247.95 460.02C265.55 455.73 283.04 448.14 288.21 446.16C314.5 369.71 307.24 295.68 296.9 253.66Z" fill="#FF7A79"/>
<path d="M137.07 252.12C77.6698 231.44 96.2598 325.16 118.04 347.27C128.93 358.27 171.17 374.55 200.76 347.05C230.35 319.55 225.29 297.66 225.29 297.66C225.29 297.66 190.97 327.69 161.16 308C135.97 291.5 137.07 252.12 137.07 252.12Z" fill="#E2637E"/>
<path d="M171.94 322.19C171.94 322.19 113.31 325.71 104.07 368.94C94.7198 412.06 163.25 502.81 212.31 451.66C240.69 417.89 226.94 400.95 263.02 388.74C299.1 376.53 312.85 357.17 306.03 348.92C299.1 340.67 275.67 373.01 262.69 342.87L287.33 319.55L266.54 292.38C266.54 292.38 256.2 298.76 253.12 292.49C248.83 284.02 265 268.62 272.59 262.02C276 259.05 277.98 254.54 277.21 250.03C276.66 246.62 274.57 243.76 268.85 244.2C248.06 245.96 223.2 270.6 213.19 291.61C206.7 296.67 204.83 315.26 171.94 322.19Z" fill="#ACC38C"/>
<path d="M457.389 145.86L221.549 329.23L241.679 354.2L468.389 160.82L457.389 145.86Z" fill="#FAB298"/>
<path d="M185.69 435.38L177.11 424.93C177.88 421.19 179.42 413.27 178.76 412.39L151.48 379.28C150.82 378.51 143.34 378.62 139.16 378.84L129.92 367.62C129.26 366.85 128.16 366.74 127.5 367.4L126.07 368.61C125.3 369.27 125.19 370.37 125.85 371.03L181.62 438.68C182.28 439.45 183.38 439.56 184.04 438.9L185.47 437.69C186.13 437.25 186.24 436.15 185.69 435.38Z" fill="#523E3F"/>
<path d="M469.05 162.14C469.05 162.14 476.09 157.19 496.44 153.78C529.77 148.28 510.63 125.84 537.91 118.47C550.34 115.06 548.58 93.0599 531.64 97.6799L462.23 132.22C462.23 132.22 451.56 137.94 456.29 146.19L469.05 162.14Z" fill="#ACC38C"/>
<path d="M488.079 111.54C488.849 113.3 486.649 115.94 483.129 117.59C479.609 119.24 476.089 119.13 475.209 117.48C474.439 115.72 476.639 113.08 480.159 111.43C483.789 109.78 487.309 109.78 488.079 111.54ZM469.489 121C470.369 122.65 468.169 125.51 464.759 127.27C461.239 129.03 457.719 129.14 456.839 127.38C455.959 125.73 458.159 122.87 461.569 121.11C465.089 119.35 468.609 119.35 469.489 121ZM524.599 95.04C525.369 96.8 523.169 99.44 519.649 101.09C516.129 102.74 512.609 102.63 511.729 100.98C510.959 99.22 513.159 96.58 516.679 94.93C520.309 93.28 523.829 93.28 524.599 95.04ZM506.119 103.29C506.999 104.94 504.799 107.8 501.389 109.56C497.869 111.32 494.349 111.43 493.469 109.67C492.589 108.02 494.789 105.16 498.199 103.4C501.719 101.75 505.239 101.64 506.119 103.29Z" fill="#523E3F"/>
<path d="M162.37 412.72L528.45 112.31L528.56 111.65L527.9 111.54L161.82 412.06L161.71 412.72H162.37ZM157.75 407L507.11 124.08L507.22 123.42H506.56L157.2 406.34L157.09 406.89L157.75 407ZM153.13 401.17L489.73 130.68L489.84 130.13L489.18 130.02L152.58 400.51V401.17H153.13ZM148.62 395.45L471.8 138.27L471.91 137.61L471.25 137.5L148.07 394.68L147.96 395.34L148.62 395.45Z" fill="white"/>
<path d="M244.54 339.02C248.39 336.05 248.17 329.67 235.52 330C237.72 329.78 239.37 327.91 240.47 325.93C241.46 324.06 240.25 321.64 238.38 321.86L224.96 323.51C217.59 324.17 202.41 336.71 202.41 336.71L187.67 334.4L188.99 360.47C188.99 360.47 237.06 366.41 240.58 363.44C243.44 361.02 239.81 357.83 239.81 357.83C239.81 357.83 244.43 357.28 245.75 355.85C248.94 352.44 243.66 349.36 243.66 349.36C250.04 348.37 252.68 341.44 244.54 339.02Z" fill="#F9C3C0"/>
<path d="M246.19 339.68C246.52 340.01 246.85 340.56 246.96 341C247.18 341.88 246.96 342.54 246.63 343.31C246.19 344.3 245.42 345.18 244.65 345.84C243.77 346.61 242.78 347.38 241.68 348.04C241.02 348.37 240.47 348.7 239.81 349.03C240.58 349.91 241.35 350.68 242.12 351.67C242.56 352.33 242.56 353.21 242.45 353.98C242.34 354.64 241.68 355.41 241.13 355.74C239.7 356.51 238.05 357.06 236.51 357.39C236.29 357.5 235.96 357.5 235.74 357.61C235.96 358.38 235.85 359.37 235.52 360.03C224.96 360.36 201.97 356.07 201.97 356.07L202.52 336.82L187.78 334.51L189.1 360.58C189.1 360.58 210.88 363.22 226.17 364.1H226.61C227.05 364.1 227.38 364.1 227.82 364.21H237.72C238.05 364.21 238.27 364.21 238.6 364.1H238.82C239.15 364.1 239.37 363.99 239.59 363.99H239.81C240.03 363.99 240.14 363.88 240.25 363.88C240.25 363.88 240.36 363.88 240.36 363.77C240.58 363.66 240.69 363.66 240.8 363.55L241.24 363.11L241.35 363C241.46 362.89 241.57 362.78 241.57 362.67V362.56C241.68 362.45 241.68 362.23 241.79 362.12V362.01C241.79 361.9 241.9 361.79 241.9 361.68V361.02C241.9 360.91 241.9 360.8 241.79 360.69V360.58C241.79 360.47 241.68 360.36 241.68 360.25C241.68 360.14 241.57 360.03 241.46 359.92C241.46 359.92 241.46 359.81 241.35 359.81C241.35 359.7 241.24 359.59 241.24 359.59C241.24 359.59 241.24 359.48 241.13 359.48C241.02 359.37 241.02 359.26 240.91 359.15L240.8 359.04L240.69 358.93L240.58 358.82L239.81 358.05C239.81 358.05 244.43 357.5 245.75 356.07C248.94 352.66 243.66 349.58 243.66 349.58C249.49 348.48 252.13 342.43 246.19 339.68Z" fill="#FA9C90"/>
<path d="M200.87 335.83C200.87 335.83 145.21 316.47 137.95 284.9C127.94 241.34 178.1 198.22 143.89 201.3C104.51 204.82 50.0597 294.58 85.0397 329.89C131.57 376.97 193.83 360.14 193.83 360.14C193.83 360.14 200.43 338.69 200.87 335.83Z" fill="#FF7A79"/>
<path d="M86.7996 253.44C72.6096 280.83 67.6596 312.18 85.1496 329.89C131.68 376.97 193.94 360.14 193.94 360.14C193.94 360.14 194.38 358.71 195.04 356.51C195.04 356.51 131.79 366.19 96.3696 326.26C66.7796 293.04 86.5796 256.3 86.7996 253.44Z" fill="#E2637E"/>
<path d="M150.16 115.83C116.28 132.44 130.69 155.43 130.69 155.43C130.69 155.43 159.84 181.5 175.68 152.79C175.57 152.79 191.63 95.4799 150.16 115.83Z" fill="#523E3F"/>
<path d="M209.45 146.63L222.1 191.07C222.1 191.07 227.71 210.65 208.35 211.75C188.99 212.85 170.62 192.06 170.62 192.06L173.81 133.65C173.92 133.76 198.67 125.07 209.45 146.63Z" fill="#F9C3C0"/>
<path d="M215.39 165.11L210.66 146.74C202.96 131.23 188 131.34 180.19 132.66V132.77C180.19 132.77 178.87 175.78 206.37 176.33C214.4 176.33 215.39 165.11 215.39 165.11Z" fill="#FA9C90"/>
<path d="M172.16 129.91C172.16 129.91 182.94 164.45 207.47 165.55C232 166.65 239.04 143.33 240.69 129.47C242.34 115.61 244.76 73.37 221 70.07C197.24 66.77 167.21 95.7 161.16 102.19C154.56 109.12 155.55 131.56 172.16 129.91Z" fill="#F9C3C0"/>
<path d="M215.28 88.66L172.38 85.36C172.38 85.36 163.69 99.55 161.16 102.19C154.56 109.23 155.66 131.56 172.16 129.91C172.16 129.91 172.71 131.67 173.81 134.42L170.62 192.06C170.62 192.06 172.49 194.15 175.68 197.01L181.84 113.41C210.77 105.16 215.28 88.66 215.28 88.66Z" fill="#FA9C90"/>
<path d="M215.5 53.46C261.7 54.56 253.34 75.35 245.53 86.46C245.53 86.46 263.35 95.81 241.24 128.26V98.78L219.35 77.55C219.35 98.89 176.01 111.54 176.01 111.54C177.33 114.62 177 121.44 175.57 122.43C174.25 123.53 173.37 122.1 173.37 122.1C167.76 95.92 157.64 103.95 157.64 109.12C157.64 109.12 147.96 99.77 154.01 84.15C160.28 68.31 176.23 52.58 215.5 53.46Z" fill="#523E3F"/>
<path d="M228.48 121.33C230.12 121.33 231.45 118.72 231.45 115.5C231.45 112.28 230.12 109.67 228.48 109.67C226.839 109.67 225.51 112.28 225.51 115.5C225.51 118.72 226.839 121.33 228.48 121.33Z" fill="#523E3F"/>
<path d="M202.19 121.33C203.83 121.33 205.16 118.72 205.16 115.5C205.16 112.28 203.83 109.67 202.19 109.67C200.549 109.67 199.22 112.28 199.22 115.5C199.22 118.72 200.549 121.33 202.19 121.33Z" fill="#523E3F"/>
<path d="M218.25 118.58C218.14 117.92 217.48 117.59 216.82 117.7C216.16 117.81 215.83 118.47 215.94 119.13L219.57 135.08C219.24 135.41 218.8 135.96 218.14 136.51C217.04 137.39 215.61 138.16 213.74 138.16C213.19 138.16 212.53 138.05 211.87 137.83C211.21 137.61 210.66 138.05 210.44 138.6C210.22 139.26 210.66 139.81 211.21 140.03C212.09 140.25 212.97 140.36 213.74 140.36C216.38 140.36 218.36 139.15 219.79 138.05C221.11 136.95 221.88 135.85 221.88 135.74L222.1 135.3L218.25 118.58ZM206.92 148.06C205.05 147.84 203.62 147.4 202.63 146.74C201.09 145.75 200.32 144.43 199.88 143.33C199.66 142.78 199.55 142.34 199.44 141.9C199.44 141.68 199.44 141.57 199.33 141.46V141.35C199.33 140.69 198.78 140.25 198.12 140.25C197.46 140.25 197.02 140.8 197.02 141.46C197.02 141.57 197.13 143.44 198.45 145.64C199.11 146.74 199.99 147.73 201.42 148.61C202.74 149.49 204.5 150.15 206.81 150.26C207.47 150.37 208.02 149.82 208.02 149.16C208.02 148.72 207.58 148.17 206.92 148.06Z" fill="#FF7A79"/>
<path d="M190.31 131.12C193.772 131.12 196.58 129.889 196.58 128.37C196.58 126.851 193.772 125.62 190.31 125.62C186.847 125.62 184.04 126.851 184.04 128.37C184.04 129.889 186.847 131.12 190.31 131.12Z" fill="#FF7A79"/>
<path d="M233.32 131.12C236.783 131.12 239.59 129.889 239.59 128.37C239.59 126.851 236.783 125.62 233.32 125.62C229.857 125.62 227.05 126.851 227.05 128.37C227.05 129.889 229.857 131.12 233.32 131.12Z" fill="#FF7A79"/>
<path d="M161.93 113.85C162.04 113.08 162.26 112.42 162.48 111.98C162.59 111.76 162.81 111.54 162.92 111.54C163.03 111.43 163.14 111.43 163.25 111.43C163.36 111.43 163.58 111.54 164.02 111.87C164.57 112.31 165.23 113.41 166 115.17C166 115.17 164.13 115.28 164.02 117.15C163.91 120.45 166.55 123.42 169.3 123.31C169.74 123.31 169.96 122.76 169.85 122.43C168.75 117.92 167.65 114.84 166.55 112.97C166 111.98 165.45 111.32 165.01 110.77C164.46 110.33 163.91 110 163.25 110C162.81 110 162.37 110.11 162.04 110.44C161.49 110.77 161.16 111.32 160.94 111.98C160.72 112.53 160.5 113.3 160.5 113.96C160.5 114.4 160.72 114.73 161.16 114.73C161.49 114.62 161.82 114.29 161.93 113.85Z" fill="#523E3F"/>
<path d="M380.939 262.57C397.439 263.12 409.649 246.62 404.039 231.44C398.429 216.26 392.819 210.98 391.059 211.86C389.299 212.74 393.149 225.83 393.149 225.83C393.149 225.83 384.129 202.62 378.959 206.14C375.549 208.45 386.439 230.56 386.439 230.56C386.439 230.56 375.549 210.21 371.149 211.97C369.939 212.52 369.169 214.06 370.269 216.92L373.679 225.06C373.679 225.06 375.109 226.82 377.199 236.28C376.319 233.42 370.929 222.97 368.179 223.96C365.539 224.84 367.299 231.22 367.299 231.22L369.059 243.76C363.779 254.32 371.149 262.35 380.939 262.57Z" fill="#F9C3C0"/>
<path d="M370.6 250.69C370.49 248.6 370.93 246.07 371.81 243.76C371.04 241.89 367.96 229.13 367.96 225.72C367.96 225.17 367.96 224.62 368.07 224.07V223.96C365.65 225.06 367.3 231.11 367.3 231.11L369.06 243.65C367.3 247.17 366.97 250.36 367.63 253.11V253.22C367.74 253.55 367.85 253.99 367.96 254.32C367.96 254.43 367.96 254.43 368.07 254.54C368.18 254.87 368.29 255.09 368.4 255.42C368.4 255.53 368.51 255.64 368.51 255.64C368.62 255.86 368.73 256.19 368.95 256.41C369.06 256.52 369.06 256.63 369.17 256.74C369.28 256.96 369.5 257.18 369.61 257.4L369.94 257.73C370.05 257.95 370.27 258.06 370.38 258.28L370.71 258.61L371.15 259.05C371.26 259.16 371.48 259.27 371.59 259.38C371.7 259.49 371.92 259.6 372.03 259.71C372.25 259.82 372.36 259.93 372.58 260.04C372.69 260.15 372.91 260.26 373.02 260.37L373.68 260.7C373.79 260.7 373.9 260.81 374.01 260.81C375.99 261.8 378.41 262.46 380.94 262.46C393.04 262.79 402.94 253.99 405.03 243.32C402.5 251.57 391.94 259.6 381.82 259.38C378.08 259.49 370.49 258.06 370.6 250.69Z" fill="#FA9C90"/>
</svg>
